<svg width="375" height="812" viewBox="0 0 375 812" fill="none" xmlns="http://www.w3.org/2000/svg">
<g opacity="0.5">
<path d="M189.789 843.919C304.528 936.91 247.158 1090.27 331.15 1132.64C425.265 1179.89 587.249 1032.53 662.241 964.282C772.105 864.167 867.345 777.551 881.969 636.19C898.842 476.082 808.476 287.101 689.989 263.478C575.25 240.606 511.507 389.091 405.392 363.218C267.406 329.097 282.78 55.3743 176.666 38.501C81.4252 23.5026 -42.3122 226.732 -77.1836 403.714C-85.8078 448.334 -128.178 663.938 -14.1901 763.678C55.5529 824.796 112.922 781.676 189.789 843.919Z" fill="url(#paint0_linear_217_15032)"/>
<path opacity="0.56" d="M-12.2924 -178.671C342.047 -179.046 567.024 209.79 472.158 531.132C403.54 764.733 208.56 873.472 157.19 899.72C15.4548 972.087 -281.515 1055.7 -426.25 889.97C-517.741 784.981 -540.989 613.248 -467.121 492.136C-435.999 441.141 -389.504 403.645 -331.76 387.521C-297.264 377.772 -255.643 380.022 -239.894 340.651C-232.77 322.653 -232.77 302.03 -237.27 282.907C-258.642 195.541 -364.757 139.672 -353.883 42.9317C-347.508 -14.4375 -297.263 -53.8085 -256.018 -88.305C-187.4 -145.299 -101.908 -178.671 -12.2924 -178.671Z" fill="#FF6767"/>
<path d="M-1.79283 -326.779C75.8243 -306.531 44.3275 -155.421 172.565 -55.6813C235.183 -6.93626 336.423 29.8099 427.914 4.68749C578.273 -36.5583 590.647 -214.29 683.638 -213.54C778.128 -212.79 901.49 -33.1834 869.244 108.552C832.122 272.786 609.395 288.159 589.897 454.642C577.898 555.132 652.516 605.376 622.144 666.87C577.898 756.486 390.042 754.237 278.679 731.739C81.0738 691.993 -39.2889 555.132 -80.9097 506.387C-115.031 466.641 -346.383 187.294 -248.518 -88.3029C-201.273 -221.039 -79.035 -347.402 -1.79283 -326.779Z" fill="url(#paint1_linear_217_15032)"/>
</g>
<g opacity="0.5">
<path d="M380.189 -29.1746C410.41 -66.4635 460.251 -47.8191 474.021 -75.1156C489.375 -105.702 441.484 -158.345 419.306 -182.717C386.769 -218.422 358.62 -249.374 312.679 -254.127C260.645 -259.611 199.228 -230.242 191.551 -191.735C184.117 -154.446 232.374 -133.73 223.966 -99.2437C212.876 -54.3995 123.919 -59.3957 118.435 -24.9095C113.561 6.04275 179.609 46.2563 237.126 57.5892C251.627 60.392 321.697 74.1621 354.111 37.1169C373.974 14.451 359.96 -4.19343 380.189 -29.1746Z" fill="url(#paint2_linear_217_15032)"/>
<path opacity="0.56" d="M47.856 36.4995C47.7342 -78.6576 174.102 -151.773 278.536 -120.943C354.454 -98.6425 389.793 -35.2757 398.324 -18.5809C421.842 27.4819 449.017 123.994 395.155 171.032C361.034 200.766 305.223 208.321 265.862 184.315C249.29 174.2 237.104 159.09 231.864 140.324C228.695 129.113 229.426 115.586 216.631 110.468C210.782 108.153 204.08 108.153 197.865 109.615C169.472 116.561 151.315 151.047 119.875 147.513C101.231 145.442 88.4353 129.113 77.2243 115.708C58.7016 93.4078 47.856 65.6239 47.856 36.4995Z" fill="#FF6767"/>
<path d="M-0.277607 33.0879C6.3028 7.86299 55.4121 18.0992 87.8267 -23.5767C103.668 -43.9272 115.611 -76.8292 107.446 -106.563C94.0415 -155.428 36.2802 -159.45 36.5239 -189.671C36.7676 -220.38 95.1383 -260.471 141.201 -249.991C194.575 -237.927 199.572 -165.543 253.677 -159.206C286.335 -155.307 302.665 -179.557 322.649 -169.686C351.774 -155.307 351.043 -94.2551 343.731 -58.0629C330.814 6.15694 286.336 45.2738 270.494 58.8002C257.577 69.8893 166.792 145.077 77.225 113.271C34.0868 97.917 -6.97987 58.1909 -0.277607 33.0879Z" fill="url(#paint3_linear_217_15032)"/>
<path d="M200.547 159.577C209.969 159.577 217.607 151.939 217.607 142.517C217.607 133.095 209.969 125.457 200.547 125.457C191.125 125.457 183.487 133.095 183.487 142.517C183.487 151.939 191.125 159.577 200.547 159.577Z" fill="url(#paint4_linear_217_15032)"/>
<path d="M223.7 168.108C227.065 168.108 229.793 165.38 229.793 162.015C229.793 158.65 227.065 155.922 223.7 155.922C220.335 155.922 217.607 158.65 217.607 162.015C217.607 165.38 220.335 168.108 223.7 168.108Z" fill="url(#paint5_linear_217_15032)"/>
<path d="M205.421 179.074C208.113 179.074 210.295 176.892 210.295 174.2C210.295 171.508 208.113 169.326 205.421 169.326C202.729 169.326 200.546 171.508 200.546 174.2C200.546 176.892 202.729 179.074 205.421 179.074Z" fill="url(#paint6_linear_217_15032)"/>
</g>
<g opacity="0.5">
<path d="M74.9508 755.579C51.2417 784.833 12.1409 770.206 1.33801 791.62C-10.7077 815.616 26.8635 856.916 44.2629 876.036C69.7883 904.047 91.8722 928.33 127.914 932.058C168.735 936.36 216.918 913.32 222.941 883.111C228.773 853.857 190.915 837.604 197.511 810.549C206.211 775.368 276 779.288 280.302 752.233C284.126 727.95 232.31 696.402 187.186 687.511C175.81 685.312 120.839 674.509 95.4094 703.572C79.8265 721.354 90.8205 735.981 74.9508 755.579Z" fill="url(#paint7_linear_217_15032)"/>
<path opacity="0.56" d="M335.672 704.056C335.767 794.399 236.629 851.76 154.699 827.573C95.1397 810.078 67.4154 760.365 60.7233 747.268C42.2723 711.131 20.9534 635.415 63.209 598.513C89.9773 575.186 133.763 569.259 164.642 588.092C177.643 596.027 187.203 607.882 191.314 622.604C193.8 631.399 193.226 642.011 203.264 646.026C207.853 647.843 213.111 647.843 217.987 646.696C240.262 641.246 254.506 614.191 279.172 616.964C293.798 618.589 303.837 631.399 312.632 641.916C327.163 659.411 335.672 681.208 335.672 704.056Z" fill="#FF6767"/>
<path d="M373.434 706.733C368.272 726.522 329.745 718.492 304.315 751.187C291.887 767.152 282.518 792.965 288.923 816.291C299.439 854.627 344.754 857.782 344.563 881.491C344.371 905.583 298.579 937.035 262.441 928.814C220.568 919.349 216.649 862.562 174.202 857.591C148.581 854.532 135.77 873.556 120.092 865.813C97.243 854.532 97.8165 806.636 103.553 778.242C113.686 727.86 148.581 697.173 161.009 686.561C171.142 677.861 242.365 618.875 312.632 643.827C346.475 655.873 378.692 687.039 373.434 706.733Z" fill="url(#paint8_linear_217_15032)"/>
<path opacity="0.56" d="M317.588 826.89C319.213 832.244 322.272 837.119 326.096 840.083C332.502 844.959 341.584 847.062 349.614 845.819C358.218 844.481 369.595 836.163 363.859 826.221C361.182 821.632 356.115 820.389 351.24 819.529C349.71 819.242 348.18 818.955 347.033 817.903C345.599 816.661 345.312 814.557 344.834 812.741C342.827 805.953 335.561 799.166 328.008 801.269C316.441 804.424 314.337 816.565 317.588 826.89Z" fill="#FEA800"/>
<path d="M335.656 789.224C335.656 789.702 335.752 789.893 335.752 790.563C335.943 791.901 336.039 792.761 336.899 794.004C338.238 796.107 340.054 797.446 342.444 798.211C342.444 798.211 342.444 798.211 342.54 798.211C342.731 798.306 343.018 798.402 343.209 798.497C344.738 798.88 346.268 798.88 347.702 798.497C349.136 798.019 350.474 797.35 351.622 796.299C351.909 796.012 352.1 795.629 352.386 795.343C352.673 795.056 352.96 794.673 353.151 794.387C353.534 793.813 353.916 792.761 354.107 792.092C354.394 791.327 354.394 790.371 354.394 789.511C354.394 787.79 354.107 787.121 353.534 785.687C353.056 784.444 353.056 784.54 352.291 783.584C351.526 782.532 351.622 782.628 350.57 781.863C350.188 781.576 349.901 781.289 349.518 781.002C348.18 780.142 346.555 779.855 345.025 779.76C343.4 779.664 341.584 780.333 340.245 781.098C339.385 781.576 338.907 781.958 338.333 782.628C337.855 783.106 337.282 783.87 336.899 784.54C336.23 785.687 335.943 786.834 335.848 787.981C335.752 788.364 335.656 788.842 335.656 789.224Z" fill="#FEA800"/>
<path d="M352.673 808.44C352.864 809.014 353.151 809.587 353.534 810.065C353.629 810.256 353.82 810.448 354.012 810.639C354.203 810.83 354.298 810.926 354.49 811.021C354.776 811.308 355.159 811.499 355.541 811.595C355.924 811.786 356.306 811.882 356.688 811.882C357.262 811.977 357.931 811.977 358.505 811.786C358.887 811.69 359.27 811.499 359.652 811.308C359.843 811.212 360.512 810.734 360.608 810.543C360.704 810.448 361.277 809.683 361.373 809.587C361.468 809.396 361.851 808.631 361.851 808.44C361.946 808.058 361.946 807.579 362.042 807.197C361.946 806.815 361.946 806.337 361.851 805.954C361.66 805.381 361.373 804.807 360.99 804.329C360.799 803.947 360.512 803.66 360.13 803.469C359.843 803.182 359.461 802.991 359.078 802.895C358.696 802.704 358.314 802.608 357.836 802.608C357.453 802.513 356.975 802.513 356.593 802.608C355.924 802.608 355.35 802.799 354.872 803.182C354.585 803.469 354.203 803.66 353.916 803.947C353.629 804.233 353.438 804.616 353.151 804.903C352.96 805.285 352.864 805.667 352.673 806.05C352.578 806.432 352.577 806.91 352.482 807.293C352.577 807.58 352.673 808.058 352.673 808.44Z" fill="#FEA800"/>
<path d="M24.4902 724.515C24.8726 734.075 29.8438 743.635 35.9623 750.805C39.5951 755.107 48.008 763.807 53.3616 757.019C56.8033 752.621 52.7881 747.746 50.7805 743.73C48.2948 738.759 46.0003 733.31 43.8971 728.052C42.1763 723.559 41.0291 717.536 36.249 715.05C32.425 713.043 28.4098 714.955 26.2109 718.301C24.7769 720.213 24.3946 722.316 24.4902 724.515Z" fill="url(#paint9_linear_217_15032)"/>
<path d="M32.8081 765.145C35.5805 766.674 38.0662 767.535 41.221 766.292C42.8462 765.623 42.7506 763.424 41.3166 762.755C38.831 761.512 27.6457 749.466 26.0204 757.975C25.2556 761.799 30.1313 763.711 32.8081 765.145Z" fill="url(#paint10_linear_217_15032)"/>
<path d="M215.883 607.499C208.492 607.499 202.499 613.492 202.499 620.883C202.499 628.275 208.492 634.268 215.883 634.268C223.275 634.268 229.268 628.275 229.268 620.883C229.268 613.492 223.275 607.499 215.883 607.499Z" fill="url(#paint11_linear_217_15032)"/>
<path d="M197.719 600.807C195.08 600.807 192.939 602.947 192.939 605.587C192.939 608.227 195.08 610.367 197.719 610.367C200.359 610.367 202.5 608.227 202.5 605.587C202.5 602.947 200.359 600.807 197.719 600.807Z" fill="url(#paint12_linear_217_15032)"/>
<path d="M212.06 592.203C209.948 592.203 208.236 593.916 208.236 596.028C208.236 598.139 209.948 599.852 212.06 599.852C214.172 599.852 215.884 598.139 215.884 596.028C215.884 593.916 214.172 592.203 212.06 592.203Z" fill="url(#paint13_linear_217_15032)"/>
</g>
<defs>
<linearGradient id="paint0_linear_217_15032" x1="46.168" y1="-50.0931" x2="556.123" y2="826.701" gradientUnits="userSpaceOnUse">
<stop stop-color="#FC887B"/>
<stop offset="0.9959" stop-color="#FFDD95"/>
</linearGradient>
<linearGradient id="paint1_linear_217_15032" x1="-272.476" y1="136.812" x2="407.951" y2="136.812" gradientUnits="userSpaceOnUse">
<stop stop-color="#FFC2C1"/>
<stop offset="1" stop-color="#FEDC99"/>
</linearGradient>
<linearGradient id="paint2_linear_217_15032" x1="89.6429" y1="17.501" x2="374.593" y2="-148.23" gradientUnits="userSpaceOnUse">
<stop stop-color="#FC887B"/>
<stop offset="0.9959" stop-color="#FFDD95"/>
</linearGradient>
<linearGradient id="paint3_linear_217_15032" x1="150.385" y1="121.058" x2="150.385" y2="-100.075" gradientUnits="userSpaceOnUse">
<stop stop-color="#FFC2C1"/>
<stop offset="1" stop-color="#FEDC99"/>
</linearGradient>
<linearGradient id="paint4_linear_217_15032" x1="200.547" y1="125.457" x2="200.547" y2="159.577" gradientUnits="userSpaceOnUse">
<stop stop-color="#FEA800"/>
<stop offset="1" stop-color="#FF6767"/>
</linearGradient>
<linearGradient id="paint5_linear_217_15032" x1="222.893" y1="168.108" x2="222.893" y2="160.879" gradientUnits="userSpaceOnUse">
<stop stop-color="#FFC2C1"/>
<stop offset="1" stop-color="#FEDC99"/>
</linearGradient>
<linearGradient id="paint6_linear_217_15032" x1="204.775" y1="179.074" x2="204.775" y2="173.291" gradientUnits="userSpaceOnUse">
<stop stop-color="#FFC2C1"/>
<stop offset="1" stop-color="#FEDC99"/>
</linearGradient>
<linearGradient id="paint7_linear_217_15032" x1="302.89" y1="718.961" x2="79.3409" y2="848.98" gradientUnits="userSpaceOnUse">
<stop stop-color="#FC887B"/>
<stop offset="0.9959" stop-color="#FFDD95"/>
</linearGradient>
<linearGradient id="paint8_linear_217_15032" x1="255.236" y1="637.719" x2="255.236" y2="811.202" gradientUnits="userSpaceOnUse">
<stop stop-color="#FFC2C1"/>
<stop offset="1" stop-color="#FEDC99"/>
</linearGradient>
<linearGradient id="paint9_linear_217_15032" x1="39.5915" y1="759.522" x2="39.5915" y2="714.231" gradientUnits="userSpaceOnUse">
<stop stop-color="#FEA800"/>
<stop offset="1" stop-color="#FF6767"/>
</linearGradient>
<linearGradient id="paint10_linear_217_15032" x1="35.2691" y1="754.955" x2="35.2691" y2="762.033" gradientUnits="userSpaceOnUse">
<stop stop-color="#FFC2C1"/>
<stop offset="1" stop-color="#FEDC99"/>
</linearGradient>
<linearGradient id="paint11_linear_217_15032" x1="215.883" y1="634.268" x2="215.883" y2="607.499" gradientUnits="userSpaceOnUse">
<stop stop-color="#FEA800"/>
<stop offset="1" stop-color="#FF6767"/>
</linearGradient>
<linearGradient id="paint12_linear_217_15032" x1="198.353" y1="600.807" x2="198.353" y2="606.479" gradientUnits="userSpaceOnUse">
<stop stop-color="#FFC2C1"/>
<stop offset="1" stop-color="#FEDC99"/>
</linearGradient>
<linearGradient id="paint13_linear_217_15032" x1="212.566" y1="592.203" x2="212.566" y2="596.741" gradientUnits="userSpaceOnUse">
<stop stop-color="#FFC2C1"/>
<stop offset="1" stop-color="#FEDC99"/>
</linearGradient>
</defs>
</svg>
