<svg width="375" height="446" viewBox="0 0 375 446" fill="none" xmlns="http://www.w3.org/2000/svg">
<path d="M205.759 11.8725L196.68 5.93623H180.631V0H177L177 124H180.631L180.631 35.6174H194.846L203.925 41.5536H223V11.8725H205.759Z" fill="#E2E2E2"/>
<path d="M203.182 22.9744H209V29.1282L201 34L193 29.1282V25.7949H194.939V27.9744L201 31.6923L207.061 27.9744V25.0256H203.182V22.9744Z" fill="url(#paint0_linear_254_20306)"/>
<path d="M198.818 25.0256L193 25.0256V18.8718L201 14L209 18.8718L209 22.2051H207.061L207.061 20.0256L201 16.3077L194.939 20.0256V22.9744L198.818 22.9744V25.0256Z" fill="url(#paint1_linear_254_20306)"/>
<path d="M-461 656L-313.5 547.5L-257.5 588.5L-86 397L-1 419.5L112 209L176 120L207 134.5L271.5 219L403.5 425V666V801H112H-86H-461V656Z" fill="url(#paint2_linear_254_20306)"/>
<g clip-path="url(#clip0_254_20306)">
<g filter="url(#filter0_d_254_20306)">
<path d="M115 215.169C115 214.063 114.629 212.989 113.946 212.118C113.263 211.248 112.308 210.632 111.234 210.369C111.189 208.612 110.46 206.941 109.202 205.713C107.943 204.486 106.255 203.798 104.497 203.797C103.477 203.797 102.471 204.028 101.555 204.473C100.638 204.918 99.834 205.566 99.2042 206.367C98.6917 205.709 97.9763 205.239 97.1691 205.029C96.3618 204.819 95.5078 204.881 94.7395 205.206C93.9713 205.531 93.3318 206.1 92.9202 206.826C92.5087 207.551 92.3481 208.392 92.4635 209.219C91.6728 209.076 90.8603 209.108 90.0835 209.313C89.3067 209.519 88.5845 209.892 87.9678 210.407C87.3512 210.922 86.8552 211.567 86.5149 212.295C86.1745 213.023 85.9982 213.816 85.9983 214.62C85.9981 215.341 86.1398 216.054 86.4154 216.72C86.691 217.386 87.095 217.991 87.6045 218.501C88.1139 219.011 88.7188 219.415 89.3846 219.691C90.0504 219.967 90.764 220.11 91.4847 220.11H110.07C111.378 220.107 112.632 219.585 113.556 218.659C114.48 217.732 114.999 216.477 114.998 215.169H115Z" fill="#FFE2DF"/>
</g>
</g>
<g clip-path="url(#clip1_254_20306)">
<g filter="url(#filter1_d_254_20306)">
<path d="M356 277.169C356 276.063 355.629 274.989 354.946 274.118C354.263 273.248 353.308 272.632 352.234 272.369C352.189 270.612 351.46 268.941 350.202 267.713C348.943 266.486 347.255 265.798 345.497 265.797C344.477 265.797 343.471 266.028 342.555 266.473C341.638 266.918 340.834 267.566 340.204 268.367C339.692 267.709 338.976 267.239 338.169 267.029C337.362 266.819 336.508 266.881 335.74 267.206C334.971 267.531 334.332 268.1 333.92 268.826C333.509 269.551 333.348 270.392 333.463 271.219C332.673 271.076 331.86 271.108 331.084 271.313C330.307 271.519 329.584 271.892 328.968 272.407C328.351 272.922 327.855 273.567 327.515 274.295C327.175 275.023 326.998 275.816 326.998 276.62C326.998 277.341 327.14 278.054 327.415 278.72C327.691 279.386 328.095 279.991 328.604 280.501C329.114 281.011 329.719 281.415 330.385 281.691C331.05 281.967 331.764 282.11 332.485 282.11H351.07C352.378 282.107 353.632 281.585 354.556 280.659C355.48 279.732 355.999 278.477 355.998 277.169H356Z" fill="#FFE2DF"/>
</g>
</g>
<g filter="url(#filter2_d_254_20306)">
<path d="M64.9999 331.717C65 329.39 64.2194 327.131 62.783 325.3C61.3466 323.47 59.3375 322.175 57.0775 321.621C56.9841 317.924 55.4503 314.41 52.8031 311.828C50.1558 309.245 46.6046 307.799 42.9065 307.797C40.7626 307.796 38.6465 308.283 36.718 309.219C34.7894 310.156 33.0989 311.518 31.774 313.203C30.696 311.819 29.1913 310.829 27.4933 310.387C25.7952 309.946 23.9988 310.077 22.3829 310.76C20.7669 311.444 19.4217 312.641 18.556 314.167C17.6904 315.694 17.3527 317.463 17.5953 319.201C15.9321 318.9 14.2232 318.968 12.5892 319.4C10.9552 319.832 9.43598 320.617 8.13891 321.701C6.84183 322.785 5.79852 324.14 5.08267 325.671C4.36682 327.202 3.99589 328.872 3.99609 330.562C3.99559 332.078 4.2937 333.579 4.87339 334.98C5.45308 336.381 6.303 337.654 7.37463 338.726C8.44626 339.798 9.71861 340.649 11.119 341.23C12.5195 341.81 14.0205 342.109 15.5365 342.11H54.6299C57.382 342.104 60.0192 341.006 61.9626 339.058C63.9061 337.109 64.9971 334.469 64.9961 331.717H64.9999Z" fill="#FFE2DF"/>
</g>
<g clip-path="url(#clip2_254_20306)">
<g filter="url(#filter3_d_254_20306)">
<path d="M318 267.717C318 265.39 317.219 263.131 315.783 261.3C314.347 259.47 312.338 258.175 310.078 257.621C309.984 253.924 308.45 250.41 305.803 247.828C303.156 245.245 299.605 243.799 295.906 243.797C293.763 243.796 291.646 244.283 289.718 245.219C287.789 246.156 286.099 247.518 284.774 249.203C283.696 247.819 282.191 246.829 280.493 246.387C278.795 245.946 276.999 246.077 275.383 246.76C273.767 247.444 272.422 248.641 271.556 250.167C270.69 251.694 270.353 253.463 270.595 255.201C268.932 254.9 267.223 254.968 265.589 255.4C263.955 255.832 262.436 256.617 261.139 257.701C259.842 258.785 258.799 260.14 258.083 261.671C257.367 263.202 256.996 264.872 256.996 266.562C256.996 268.078 257.294 269.579 257.873 270.98C258.453 272.381 259.303 273.654 260.375 274.726C261.446 275.798 262.719 276.649 264.119 277.23C265.519 277.81 267.021 278.109 268.537 278.11H307.63C310.382 278.104 313.019 277.006 314.963 275.058C316.906 273.109 317.997 270.469 317.996 267.717H318Z" fill="#FFE2DF"/>
</g>
</g>
<g clip-path="url(#clip3_254_20306)">
<g filter="url(#filter4_d_254_20306)">
<path d="M398 187.717C398 185.39 397.219 183.131 395.783 181.3C394.347 179.47 392.338 178.175 390.078 177.621C389.984 173.924 388.45 170.41 385.803 167.828C383.156 165.245 379.605 163.799 375.906 163.797C373.763 163.796 371.646 164.283 369.718 165.219C367.789 166.156 366.099 167.518 364.774 169.203C363.696 167.819 362.191 166.829 360.493 166.387C358.795 165.946 356.999 166.077 355.383 166.76C353.767 167.444 352.422 168.641 351.556 170.167C350.69 171.694 350.353 173.463 350.595 175.201C348.932 174.9 347.223 174.968 345.589 175.4C343.955 175.832 342.436 176.617 341.139 177.701C339.842 178.785 338.799 180.14 338.083 181.671C337.367 183.202 336.996 184.872 336.996 186.562C336.996 188.078 337.294 189.579 337.873 190.98C338.453 192.381 339.303 193.654 340.375 194.726C341.446 195.798 342.719 196.649 344.119 197.23C345.519 197.81 347.021 198.109 348.537 198.11H387.63C390.382 198.104 393.019 197.006 394.963 195.058C396.906 193.109 397.997 190.469 397.996 187.717H398Z" fill="#FFE2DF"/>
</g>
</g>
<path d="M-100.843 378.463C-100.794 378.461 -100.746 378.479 -100.71 378.513L-97.4504 381.448L-92.0326 383.121C-91.9485 383.145 -91.8953 383.228 -91.9029 383.316L-91.9812 384.342C-91.9961 384.532 -92.0887 384.709 -92.2395 384.827C-92.3904 384.945 -92.5823 384.996 -92.7693 384.965L-98.2518 384.093L-98.2765 384.088C-98.5319 384.047 -98.7675 383.936 -98.9605 383.766L-102.559 380.565C-102.585 380.541 -102.606 380.507 -102.615 380.471C-102.618 380.46 -102.622 380.446 -102.621 380.434C-102.623 380.384 -102.608 380.337 -102.573 380.297L-100.978 378.526C-100.941 378.489 -100.893 378.468 -100.843 378.463Z" fill="#EDBD82"/>
<path d="M-97.4504 381.448L-99.5876 383.585L-101.736 381.292C-102.434 380.641 -102.408 379.508 -101.852 378.916C-101.296 378.325 -100.018 378.355 -99.7293 378.623L-97.4504 381.448Z" fill="#DB5200"/>
<path d="M-106.833 372.366C-106.668 370.78 -105.416 369.002 -103.89 368.541C-102.18 368.023 -100.773 368.743 -99.8509 370.071C-99.5172 370.551 -99.2772 371.08 -99.1872 371.496C-99.1759 371.545 -99.1084 371.908 -99.0634 372.013C-98.9322 372.43 -97.9909 372.448 -97.6947 372.831C-97.4697 373.12 -98.0472 373.656 -98.0734 373.742C-98.1972 374.162 -97.4022 375.205 -98.5722 376.082C-98.8722 376.307 -99.8884 376.468 -99.8884 376.468C-100.466 376.858 -99.8622 378.31 -99.8622 378.31L-103.128 378.842C-103.128 378.842 -102.588 377.473 -104.171 376.382C-105.382 375.546 -106.942 373.386 -106.833 372.366Z" fill="#F9DDBD"/>
<path d="M-97.9272 374.668C-98.1784 374.811 -98.4934 374.875 -98.7897 374.822C-99.1122 374.762 -99.0447 374.488 -98.7184 374.47C-98.5197 374.458 -98.2159 374.35 -98.0247 374.207L-97.9272 374.668Z" fill="#444444"/>
<path d="M-100.456 372.947C-100.585 372.656 -100.535 372.35 -100.343 372.266C-100.152 372.181 -99.8923 372.349 -99.7631 372.64C-99.6338 372.932 -99.6841 373.237 -99.8753 373.322C-100.067 373.406 -100.326 373.239 -100.456 372.947Z" fill="#312D2D"/>
<path d="M-100.218 371.987C-99.8322 371.98 -99.8247 371.721 -100.001 371.571C-100.132 371.462 -100.38 371.413 -100.766 371.623C-101.13 371.822 -101.22 372.092 -101.283 372.261C-101.347 372.43 -101.291 372.561 -101.197 372.542C-101.066 372.527 -100.691 372.002 -100.218 371.987Z" fill="#454140"/>
<path d="M-105.585 376.056C-105.637 376.033 -105.693 376.011 -105.757 375.977C-106.541 375.617 -106.713 374.56 -106.796 373.798C-106.807 373.701 -106.811 373.6 -106.818 373.498C-106.826 373.382 -106.841 373.27 -106.845 373.153C-106.848 372.906 -106.837 372.662 -106.792 372.422C-106.762 372.253 -106.713 372.085 -106.657 371.92C-106.597 371.758 -106.526 371.597 -106.447 371.443C-106.383 371.316 -106.308 371.196 -106.233 371.076L-106.166 370.975C-106.102 370.881 -106.035 370.791 -105.967 370.705C-105.945 370.678 -105.926 370.652 -105.903 370.626C-105.813 370.517 -105.716 370.412 -105.615 370.315C-105.592 370.292 -105.57 370.273 -105.547 370.255C-105.465 370.176 -105.375 370.101 -105.288 370.03C-105.27 370.015 -105.255 370 -105.236 369.985C-105.221 369.973 -105.202 369.962 -105.183 369.947C-105.112 369.895 -105.041 369.842 -104.966 369.793L-104.865 369.726C-104.756 369.658 -104.643 369.595 -104.527 369.538C-103.702 369.133 -102.735 369.017 -101.846 369.25C-101.673 369.295 -101.501 369.355 -101.34 369.433C-101.257 369.471 -101.178 369.516 -101.1 369.561C-100.871 369.7 -100.665 369.88 -100.515 370.09C-100.466 370.161 -100.421 370.236 -100.383 370.311C-100.346 370.386 -100.316 370.472 -100.29 370.558C-100.616 370.686 -100.991 370.611 -101.332 370.776C-101.662 370.937 -101.977 371.151 -102.322 371.263C-102.438 371.301 -102.555 371.327 -102.675 371.335C-102.798 371.342 -102.926 371.335 -103.05 371.331C-103.113 371.327 -103.177 371.323 -103.237 371.323C-103.271 371.338 -103.293 371.35 -103.293 371.35C-103.32 371.383 -103.335 371.421 -103.35 371.455C-103.44 371.728 -103.207 372.081 -102.975 372.478C-102.945 372.527 -102.918 372.58 -102.888 372.632C-102.847 372.707 -102.81 372.782 -102.772 372.857C-102.735 372.932 -102.701 373.011 -102.675 373.09C-102.652 373.15 -102.637 373.21 -102.622 373.27C-102.581 373.453 -102.57 373.641 -102.615 373.832C-102.648 373.97 -102.692 374.106 -102.746 374.237C-102.746 374.237 -102.851 374.057 -103.016 373.892C-103.042 373.862 -103.072 373.836 -103.106 373.81C-103.155 373.768 -103.203 373.731 -103.256 373.701C-103.308 373.671 -103.361 373.648 -103.417 373.633C-103.458 373.622 -103.496 373.615 -103.537 373.615C-103.635 373.611 -103.74 373.641 -103.845 373.72C-103.867 373.735 -103.882 373.75 -103.901 373.768C-103.932 373.793 -103.96 373.822 -103.983 373.855C-103.995 373.87 -104.01 373.881 -104.017 373.896C-104.028 373.911 -104.036 373.926 -104.043 373.941C-104.051 373.956 -104.062 373.971 -104.07 373.982C-104.077 373.997 -104.081 374.016 -104.088 374.031C-104.092 374.046 -104.1 374.061 -104.103 374.072C-104.107 374.087 -104.111 374.106 -104.111 374.121C-104.115 374.136 -104.118 374.151 -104.118 374.166V374.26C-104.118 374.278 -104.115 374.293 -104.111 374.312C-104.107 374.327 -104.107 374.342 -104.103 374.357C-104.1 374.376 -104.092 374.395 -104.088 374.41C-104.085 374.425 -104.081 374.436 -104.073 374.451C-104.066 374.47 -104.058 374.488 -104.047 374.507C-104.04 374.522 -104.036 374.533 -104.028 374.548C-104.021 374.567 -104.01 374.582 -103.998 374.601C-103.991 374.616 -103.983 374.627 -103.972 374.642C-103.961 374.661 -103.946 374.676 -103.935 374.695C-103.923 374.706 -103.916 374.721 -103.908 374.732L-103.863 374.788C-103.852 374.8 -103.845 374.811 -103.833 374.822C-103.818 374.841 -103.8 374.856 -103.785 374.875L-103.751 374.908C-103.732 374.923 -103.713 374.942 -103.698 374.957C-103.687 374.968 -103.676 374.98 -103.661 374.991C-103.638 375.01 -103.616 375.028 -103.59 375.047C-103.582 375.055 -103.575 375.058 -103.563 375.066C-103.53 375.092 -103.496 375.115 -103.462 375.137C-102.9 375.52 -102.75 375.118 -102.72 375.362C-102.682 375.422 -102.63 375.572 -102.581 375.718L-102.577 375.726C-102.513 375.91 -102.461 376.09 -102.461 376.09H-102.465L-102.397 376.307C-102.341 376.596 -102.393 376.937 -102.701 377.248C-102.851 377.402 -103.132 377.477 -103.301 377.511C-103.357 377.672 -103.492 377.95 -103.77 378.096C-103.89 378.16 -104.021 378.193 -104.163 378.193C-104.31 378.193 -104.463 378.16 -104.628 378.092L-104.936 377.968C-104.936 377.968 -104.512 377.8 -104.531 377.323C-105.135 377.773 -105.776 377.256 -105.791 377.241L-106.023 377.031L-105.738 376.922C-105.63 376.885 -105.435 376.757 -105.401 376.648C-105.27 376.262 -105.558 376.078 -105.585 376.056Z" fill="#312D2D"/>
<path d="M-105.585 376.056C-105.637 376.033 -105.693 376.011 -105.757 375.977C-106.541 375.617 -106.713 374.56 -106.796 373.798C-106.807 373.701 -106.811 373.6 -106.818 373.498C-106.826 373.382 -106.841 373.27 -106.845 373.153C-106.848 372.906 -106.837 372.662 -106.792 372.422C-106.762 372.253 -106.713 372.085 -106.657 371.92C-106.597 371.758 -106.526 371.597 -106.447 371.443C-106.383 371.316 -106.308 371.196 -106.233 371.076L-106.166 370.975C-106.102 370.881 -106.035 370.791 -105.967 370.705C-105.945 370.678 -105.926 370.652 -105.903 370.626C-105.813 370.517 -105.716 370.412 -105.615 370.315C-105.592 370.292 -105.57 370.273 -105.547 370.255C-105.465 370.176 -105.375 370.101 -105.288 370.03C-105.27 370.015 -105.255 370 -105.236 369.985C-105.221 369.973 -105.202 369.962 -105.183 369.947C-105.112 369.895 -105.041 369.842 -104.966 369.793L-104.865 369.726C-104.756 369.658 -104.643 369.595 -104.527 369.538C-103.702 369.133 -102.735 369.017 -101.846 369.25C-101.673 369.295 -101.501 369.355 -101.34 369.433C-101.257 369.471 -101.178 369.516 -101.1 369.561C-100.871 369.7 -100.665 369.88 -100.515 370.09C-100.466 370.161 -100.421 370.236 -100.383 370.311C-100.346 370.386 -100.316 370.472 -100.29 370.558C-100.616 370.686 -100.991 370.611 -101.332 370.776C-101.662 370.937 -101.977 371.151 -102.322 371.263C-102.438 371.301 -102.555 371.327 -102.675 371.335C-102.798 371.342 -102.926 371.335 -103.05 371.331C-103.113 371.327 -103.177 371.323 -103.237 371.323C-103.271 371.338 -103.293 371.35 -103.293 371.35C-103.32 371.383 -103.335 371.421 -103.35 371.455C-103.44 371.728 -103.207 372.081 -102.975 372.478C-102.945 372.527 -102.918 372.58 -102.888 372.632C-102.847 372.707 -102.81 372.782 -102.772 372.857C-102.735 372.932 -102.701 373.011 -102.675 373.09C-102.652 373.15 -102.637 373.21 -102.622 373.27C-102.581 373.453 -102.57 373.641 -102.615 373.832C-102.648 373.97 -102.692 374.106 -102.746 374.237C-102.746 374.237 -102.851 374.057 -103.016 373.892C-103.042 373.862 -103.072 373.836 -103.106 373.81C-103.155 373.768 -103.203 373.731 -103.256 373.701C-103.308 373.671 -103.361 373.648 -103.417 373.633C-103.458 373.622 -103.496 373.615 -103.537 373.615C-103.635 373.611 -103.74 373.641 -103.845 373.72C-103.867 373.735 -103.882 373.75 -103.901 373.768C-103.932 373.793 -103.96 373.822 -103.983 373.855C-103.995 373.87 -104.01 373.881 -104.017 373.896C-104.028 373.911 -104.036 373.926 -104.043 373.941C-104.051 373.956 -104.062 373.971 -104.07 373.982C-104.077 373.997 -104.081 374.016 -104.088 374.031C-104.092 374.046 -104.1 374.061 -104.103 374.072C-104.107 374.087 -104.111 374.106 -104.111 374.121C-104.115 374.136 -104.118 374.151 -104.118 374.166V374.26C-104.118 374.278 -104.115 374.293 -104.111 374.312C-104.107 374.327 -104.107 374.342 -104.103 374.357C-104.1 374.376 -104.092 374.395 -104.088 374.41C-104.085 374.425 -104.081 374.436 -104.073 374.451C-104.066 374.47 -104.058 374.488 -104.047 374.507C-104.04 374.522 -104.036 374.533 -104.028 374.548C-104.021 374.567 -104.01 374.582 -103.998 374.601C-103.991 374.616 -103.983 374.627 -103.972 374.642C-103.961 374.661 -103.946 374.676 -103.935 374.695C-103.923 374.706 -103.916 374.721 -103.908 374.732L-103.863 374.788C-103.852 374.8 -103.845 374.811 -103.833 374.822C-103.818 374.841 -103.8 374.856 -103.785 374.875L-103.751 374.908C-103.732 374.923 -103.713 374.942 -103.698 374.957C-103.687 374.968 -103.676 374.98 -103.661 374.991C-103.638 375.01 -103.616 375.028 -103.59 375.047C-103.582 375.055 -103.575 375.058 -103.563 375.066C-103.53 375.092 -103.496 375.115 -103.462 375.137C-102.9 375.52 -102.75 375.118 -102.72 375.362C-102.682 375.422 -102.63 375.572 -102.581 375.718L-102.577 375.726C-102.513 375.91 -102.461 376.09 -102.461 376.09H-102.465L-102.397 376.307C-102.341 376.596 -102.393 376.937 -102.701 377.248C-102.851 377.402 -103.132 377.477 -103.301 377.511C-103.357 377.672 -103.492 377.95 -103.77 378.096C-103.89 378.16 -104.021 378.193 -104.163 378.193C-104.31 378.193 -104.463 378.16 -104.628 378.092L-104.936 377.968C-104.936 377.968 -104.512 377.8 -104.531 377.323C-105.135 377.773 -105.776 377.256 -105.791 377.241L-106.023 377.031L-105.738 376.922C-105.63 376.885 -105.435 376.757 -105.401 376.648C-105.27 376.262 -105.558 376.078 -105.585 376.056Z" fill="url(#paint3_radial_254_20306)"/>
<path d="M-101.688 375.7C-101.37 376.168 -99.9559 376.423 -99.8884 376.468C-99.7684 376.536 -100.293 376.885 -100.466 376.858C-100.638 376.832 -101.838 376.971 -103.226 376.337C-103.848 376.052 -105.405 375.22 -105.405 375.22L-104.913 374.222C-104.913 374.222 -102.963 376.258 -102.408 375.816C-101.853 375.373 -103.533 373.24 -103.533 373.24L-101.868 372.782C-101.868 372.782 -101.887 375.411 -101.688 375.7Z" fill="url(#paint4_linear_254_20306)"/>
<path d="M-104.636 368.252C-104.148 368.08 -102.461 367.731 -101.133 368.365C-100.575 368.631 -100.035 368.976 -99.6147 369.426C-99.3859 369.673 -99.0147 370.138 -99.0484 370.536C-99.0709 370.81 -99.2659 370.941 -99.4422 371.023C-99.7722 371.181 -100.721 371.432 -100.95 371.578C-101.475 371.916 -101.565 372.557 -101.606 372.7C-101.756 373.202 -101.97 373.6 -102.843 373.6C-103.365 373.6 -103.59 373.465 -103.92 373.641C-104.148 373.761 -104.433 374.035 -104.355 374.916C-104.265 375.895 -104.752 376.36 -105.258 376.307C-105.956 376.236 -108.382 374.732 -107.943 372.036C-107.651 370.285 -106.308 368.841 -104.636 368.252Z" fill="url(#paint5_radial_254_20306)"/>
<path d="M-91.8822 387.392C-92.1634 386.507 -93.1422 385.941 -94.0534 386.061L-102.828 387.216L-102.108 391.461L-94.6797 389.826L-92.0434 396.073L-89.4334 395.151C-89.4297 395.155 -91.7847 387.707 -91.8822 387.392Z" fill="url(#paint6_linear_254_20306)"/>
<path d="M-92.4184 395.155L-89.6697 394.191L-89.0097 396.831L-91.4059 397.675L-92.4184 395.155Z" fill="#E0E0E0"/>
<path d="M-105.037 389.777C-105.273 388.382 -104.336 387.058 -102.941 386.822V386.818L-97.0722 385.982L-96.2547 390.797L-102.082 391.873C-103.473 392.113 -104.797 391.172 -105.037 389.777Z" fill="#646464"/>
<path d="M-89.5609 399.46C-89.6922 399.617 -89.9284 399.64 -90.0822 399.508L-90.7722 398.927C-91.2409 398.533 -91.3722 397.603 -91.3722 397.603L-89.7334 395.65L-88.0909 394.731C-87.8653 394.606 -87.6075 394.552 -87.3508 394.576C-87.0941 394.599 -86.8503 394.699 -86.6509 394.862L-86.3397 395.121C-86.2047 395.233 -86.1859 395.44 -86.3022 395.578L-89.5609 399.46Z" fill="#4568AD"/>
<path d="M-96.1872 396.051C-96.6109 395.327 -100.657 388.427 -100.657 388.427L-104.265 390.778L-99.6147 397.213L-100.905 404.646L-98.2122 405.283L-96.0184 397.746C-96.0147 397.746 -95.7634 396.775 -96.1872 396.051Z" fill="url(#paint7_linear_254_20306)"/>
<path d="M-100.725 403.667L-97.8897 404.342L-98.9997 407.518L-101.238 406.333L-100.725 403.667Z" fill="#E0E0E0"/>
<path d="M-104.276 386.968C-103.994 386.785 -103.679 386.658 -103.349 386.596C-103.018 386.534 -102.679 386.538 -102.349 386.608C-102.02 386.677 -101.708 386.81 -101.431 387C-101.153 387.19 -100.916 387.433 -100.732 387.715L-97.6272 392.766L-101.718 395.432L-105.026 390.512C-105.795 389.331 -105.461 387.741 -104.276 386.968Z" fill="#7C7C7C"/>
<path d="M-102.326 408.238C-102.528 408.137 -102.615 407.893 -102.517 407.691L-102.078 406.798C-101.782 406.191 -100.822 405.805 -100.822 405.805L-97.8747 407.485L-96.8659 408.557C-96.4684 408.988 -96.3709 409.615 -96.6222 410.136L-96.8172 410.541C-96.9034 410.717 -97.1172 410.792 -97.2972 410.702L-102.326 408.238Z" fill="#4568AD"/>
<path d="M-101.182 377.556C-99.4684 377.436 -98.7447 378.973 -98.7447 380.368C-98.7447 383.335 -99.1722 385.015 -98.8872 387.835C-98.8684 388.026 -99.7347 389.125 -101.445 389.717C-103.826 390.542 -105.438 389.605 -105.438 389.44C-105.438 387.782 -105.071 383.41 -103.863 379.982C-103.185 378.043 -102.832 377.676 -101.182 377.556Z" fill="url(#paint8_radial_254_20306)"/>
<path d="M-89.9809 384.33C-89.6783 384.416 -89.481 384.631 -89.5668 384.933C-89.6527 385.236 -89.9519 385.293 -90.2545 385.207L-92.5241 384.662C-92.5405 384.659 -92.5543 384.651 -92.5717 384.644C-92.5013 384.283 -92.354 383.906 -92.2041 383.567L-89.9809 384.33Z" fill="#DBA689"/>
<path d="M-92.5355 383.318L-92.3279 383.065L-90.1203 383.001C-89.8966 382.996 -89.6814 383.031 -89.4699 383.11L-88.4501 383.497C-88.3071 383.551 -88.1724 383.625 -88.0498 383.716C-87.8141 383.886 -87.3912 384.203 -87.197 384.392C-87.0916 384.496 -86.9948 384.625 -87.0047 384.849C-87.0127 385.022 -87.0939 385.168 -87.2295 385.27C-87.3751 385.379 -87.5719 385.413 -87.771 385.365C-88.0075 385.308 -88.2535 385.071 -88.4168 384.882C-88.4456 384.847 -88.4859 384.827 -88.527 384.818L-89.6193 384.61C-89.6933 384.595 -89.7633 384.594 -89.8341 384.606C-89.9384 384.622 -90.0493 384.628 -90.1756 384.635C-90.4737 384.653 -90.8418 384.67 -91.437 384.868C-92.1959 385.122 -92.7481 384.959 -92.7737 384.951L-92.9081 384.855L-92.8699 384.693C-92.8682 384.685 -92.7589 384.586 -92.6961 384.588C-92.6961 384.588 -92.676 384.591 -92.6487 384.591C-92.5821 384.333 -92.4321 383.792 -92.2741 383.396C-92.3956 383.363 -92.5355 383.318 -92.5355 383.318Z" fill="#EDBD82"/>
<path d="M-101.591 380.633L-99.2347 380.863C-99.1858 380.87 -99.1408 380.893 -99.108 380.93C-99.0919 380.949 -99.08 380.971 -99.073 380.994C-99.066 381.018 -99.0641 381.043 -99.0675 381.067L-99.4777 385.288L-97.4515 389.156C-97.253 389.491 -97.3737 389.938 -97.7553 390.239C-98.1081 390.516 -98.6684 390.627 -99.0698 390.23L-101.972 386.454C-101.985 386.434 -101.998 386.414 -102.004 386.392C-102.138 386.168 -102.206 385.91 -102.2 385.649C-102.205 385.627 -102.211 385.605 -102.206 385.581L-101.797 380.804C-101.795 380.754 -101.769 380.708 -101.73 380.678C-101.691 380.646 -101.641 380.629 -101.591 380.633Z" fill="url(#paint9_linear_254_20306)"/>
<path d="M-99.2047 384.365L-102.89 383.939L-102.499 380.519C-102.446 380.067 -102.217 379.655 -101.861 379.373C-101.505 379.09 -101.052 378.961 -100.6 379.012L-100.316 379.045C-99.8644 379.097 -99.4522 379.326 -99.1698 379.682C-98.8873 380.038 -98.7577 380.492 -98.8093 380.943L-99.2047 384.365Z" fill="#ED6D23"/>
<path d="M-95.8729 389.556C-95.697 389.616 -95.5387 389.719 -95.4121 389.855L-94.8495 390.477C-94.7661 390.571 -94.6988 390.677 -94.6467 390.799C-94.5367 391.065 -94.3979 391.424 -94.3525 391.637C-94.3141 391.809 -94.342 391.937 -94.4377 392.087C-94.5423 392.247 -94.6997 392.355 -94.8748 392.382C-95.0236 392.407 -95.1698 392.368 -95.2841 392.275C-95.4178 392.167 -95.507 391.95 -95.546 391.63C-95.5472 391.611 -95.5548 391.598 -95.5639 391.593L-96.2745 391.1C-96.3132 391.071 -96.3562 391.056 -96.4055 391.045C-96.4949 391.031 -96.5835 391.004 -96.685 390.973C-96.909 390.905 -97.1925 390.818 -97.7283 390.818C-98.4459 390.82 -98.6965 390.58 -98.9654 390.33L-99.0767 390.204L-98.781 390.207C-98.7747 390.201 -98.7472 390.159 -98.6811 390.087C-98.6313 390.128 -98.5653 390.157 -98.5148 390.186C-98.5102 390.188 -98.502 390.19 -98.4974 390.193C-98.2921 389.959 -97.9841 389.617 -97.7228 389.36L-97.7264 389.361C-97.7264 389.361 -97.7564 389.307 -97.7615 389.274C-97.7676 389.236 -97.7809 389.201 -97.7969 389.17C-97.7441 389.121 -97.6939 389.077 -97.6463 389.037L-97.5638 388.968L-95.8729 389.556Z" fill="url(#paint10_linear_254_20306)"/>
<path d="M-96.8747 390.092L-96.0298 391.434C-95.934 391.56 -95.9026 391.691 -95.9151 391.819C-95.9275 391.946 -95.9947 392.057 -96.1043 392.141C-96.3198 392.308 -96.5938 392.241 -96.7801 391.981L-97.7469 390.749C-97.7469 390.749 -97.7478 390.745 -97.7524 390.742C-97.759 390.733 -97.772 390.713 -97.774 390.706C-97.805 390.648 -97.8 390.565 -97.7561 390.526C-97.6772 390.458 -97.6538 390.444 -97.6538 390.444L-97.6482 390.451L-97.1626 390.119L-97.1635 390.115C-97.0735 390.06 -97.1223 390.081 -97.0511 390.042C-96.9907 390.007 -96.9148 390.029 -96.8747 390.092Z" fill="url(#paint11_linear_254_20306)"/>
<path d="M-20.4274 400.565C-20.2654 399.697 -21.1564 398.858 -21.2963 398.732C-20.9672 393.876 -17.8459 389.934 -14.1952 387.391L-15.9833 384.822C-20.1262 387.709 -24.0404 392.443 -24.4229 398.606L-24.4076 398.607L-24.6404 399.982C-24.6596 400.396 -24.5755 400.988 -24.4037 401.351C-24.196 401.779 -23.4682 402.273 -22.77 402.309C-22.77 402.309 -21.9062 402.338 -21.2582 401.979C-20.7699 401.717 -21.0196 401.133 -21.0196 401.133C-21.0196 401.133 -20.5436 401.173 -20.4274 400.565Z" fill="#C68D7B"/>
<path d="M-21.52 395.98L-17.8966 395.522L-18.5075 398.056C-18.6137 398.496 -18.8904 398.876 -19.2767 399.113C-19.6631 399.349 -20.1275 399.422 -20.5678 399.316C-21.0081 399.21 -21.3881 398.933 -21.6244 398.546C-21.8606 398.16 -21.9337 397.696 -21.8276 397.255L-21.52 395.98Z" fill="#635994"/>
<path d="M-18.045 394.1C-18.0252 394.018 -17.9738 393.948 -17.902 393.904C-17.8303 393.86 -17.744 393.846 -17.6622 393.866C-17.5804 393.886 -17.5098 393.937 -17.4659 394.009C-17.422 394.081 -17.4084 394.167 -17.4281 394.249L-17.79 395.75C-17.7953 395.826 -17.8273 395.898 -17.8805 395.953C-17.9336 396.008 -18.0045 396.042 -18.0805 396.05L-21.487 396.375C-21.53 396.381 -21.5738 396.378 -21.6157 396.367C-21.6576 396.355 -21.6967 396.336 -21.7308 396.309C-21.7649 396.282 -21.7932 396.248 -21.814 396.21C-21.8348 396.172 -21.8477 396.13 -21.8519 396.087C-21.8561 396.044 -21.8515 396 -21.8384 395.959C-21.8253 395.917 -21.8039 395.879 -21.7757 395.846C-21.7474 395.813 -21.7127 395.786 -21.6738 395.767C-21.6348 395.748 -21.5924 395.737 -21.5491 395.735L-18.3656 395.43L-18.045 394.1Z" fill="#433B6B"/>
<path d="M-7.18883 392.201L-6.73972 396.527L-4.53521 395.934L3.62264 402.912L4.29379 401.739L4.21335 400.462L-2.14567 393.385C-2.60413 392.874 -3.17278 392.474 -3.80862 392.215C-4.44446 391.956 -5.13087 391.845 -5.81596 391.89L-5.83343 391.886L-7.18883 392.201ZM-14.2498 401.816L-10.3889 400.411L-9.7225 402.264C-9.35653 403.277 -9.6346 404.43 -10.4394 405.16L-16.8035 411.003L-18.2416 408.993L-13.4633 403.285L-14.2498 401.816Z" fill="#C68D7B"/>
<path d="M-15.7441 380.843L-16.2892 383.947L-13.1234 384.544L-12.5831 381.383L-15.7441 380.843Z" fill="#B87A66"/>
<path d="M-17.5946 385.222C-17.3724 384.684 -16.9424 383.974 -16.1303 383.597C-14.0892 382.647 -12.8827 383.548 -12.8827 383.548C-12.8827 383.548 -11.287 384.598 -11.7243 387.562C-11.7285 387.58 -11.6544 390.186 -10.4113 392.853L-17.5825 394.988C-19.0135 390.187 -18.0126 385.806 -17.5946 385.222Z" fill="#FF6723"/>
<path d="M-11.3614 395.489L-9.72363 401.043L-13.1095 402.279C-13.9396 402.578 -14.8586 402.171 -15.1751 401.337L-17.0109 396.605L-11.3614 395.489Z" fill="#636363"/>
<path d="M-6.40231 396.851L-6.96924 392.148L-10.4163 392.84L-10.7452 392.088L-17.8303 394.096L-17.5825 394.988C-17.5825 394.988 -17.3062 396.293 -16.5648 397.359C-15.8234 398.426 -13.4983 398.598 -13.4983 398.598L-8.16057 398.776C-7.91222 398.787 -7.6645 398.743 -7.43488 398.648C-7.20526 398.553 -6.99935 398.408 -6.83167 398.225C-6.66399 398.041 -6.53863 397.823 -6.46444 397.586C-6.39025 397.348 -6.36904 397.098 -6.40231 396.851Z" fill="#9B9B9B"/>
<path d="M-11.509 382.068C-12.6049 382.395 -14.4884 382.385 -15.3611 381.25L-16.3424 379.645L-17.4068 378.001C-17.8103 376.684 -17.046 375.278 -15.7284 374.875L-14.1716 374.399C-12.854 373.996 -11.4482 374.76 -11.0448 376.078L-10.7399 377.076C-10.426 377.392 -10.2115 377.553 -10.0628 377.664C-9.89076 377.795 -9.80784 377.857 -9.75725 378.015C-9.66318 378.315 -9.92585 378.653 -10.2253 378.768C-9.78192 380.326 -9.68872 381.512 -11.5112 382.069L-11.509 382.068Z" fill="#C68D7B"/>
<path d="M-13.4116 376.154C-15.4468 376.773 -15.0789 378.008 -15.0789 378.008C-15.0789 378.008 -15.9767 378.05 -15.2145 380.564C-14.8243 381.86 -15.901 381.877 -16.3402 382.012C-17.0969 382.236 -17.5913 380.989 -16.5912 380.676C-16.5912 380.676 -17.8612 381.035 -18.9369 377.521C-19.7215 374.947 -17.4671 373.956 -15.7367 373.911C-14.4901 373.879 -14.7029 373.458 -13.3461 373.045C-12.8894 372.915 -12.0001 372.907 -11.6908 373.925C-11.3863 374.886 -11.6765 375.63 -13.4116 376.154Z" fill="#593B39"/>
<path d="M-15.8291 378.743C-15.89 378.995 -15.8481 379.262 -15.7125 379.483C-15.577 379.705 -15.359 379.864 -15.1064 379.925C-14.8538 379.985 -14.5874 379.943 -14.3658 379.808C-14.1441 379.672 -13.9853 379.454 -13.9244 379.202C-13.8635 378.949 -13.9055 378.683 -14.041 378.461C-14.1766 378.24 -14.3946 378.081 -14.6472 378.02C-14.8997 377.959 -15.1662 378.001 -15.3878 378.136C-15.6095 378.272 -15.7682 378.49 -15.8291 378.743Z" fill="#BB806E"/>
<path d="M-15.4375 377.272C-15.4612 377.221 -15.4746 377.165 -15.4767 377.108C-15.4789 377.051 -15.4699 376.995 -15.4502 376.941C-15.4305 376.888 -15.4005 376.839 -15.3618 376.798C-15.3232 376.756 -15.2768 376.722 -15.2252 376.699C-15.1736 376.675 -15.1178 376.661 -15.061 376.659C-15.0043 376.657 -14.9476 376.666 -14.8943 376.686C-14.8411 376.706 -14.7922 376.736 -14.7505 376.774C-14.7088 376.813 -14.6752 376.859 -14.6514 376.911L-12.2268 382.192C-12.203 382.243 -12.1897 382.299 -12.1874 382.356C-12.1852 382.412 -12.1941 382.469 -12.2137 382.522C-12.2333 382.575 -12.2632 382.624 -12.3017 382.666C-12.3402 382.708 -12.3865 382.741 -12.438 382.765C-12.4895 382.789 -12.5452 382.802 -12.6019 382.804C-12.6585 382.807 -12.7151 382.798 -12.7683 382.778C-12.8215 382.758 -12.8704 382.729 -12.912 382.69C-12.9537 382.652 -12.9874 382.605 -13.0111 382.554L-15.4358 377.273L-15.4375 377.272ZM4.22041 400.448C4.22041 400.448 6.58775 399.464 8.20257 398.787C8.51704 398.648 8.89243 399.223 9.04221 399.461C9.15005 399.635 9.06989 399.745 9.06989 399.745L5.94318 403.602C5.94318 403.602 5.33622 404.371 4.97879 404.067L4.67675 403.816C4.6617 403.806 4.64706 403.795 4.63288 403.784L3.57916 402.901L4.22041 400.448ZM-16.3817 410.643C-16.3817 410.643 -16.7353 413.183 -16.9868 414.916C-17.0151 415.125 -17.3807 415.246 -17.7007 415.254L-17.6984 415.26C-17.6984 415.26 -17.8593 415.314 -17.89 415.288C-18.0949 415.294 -18.1793 415.107 -18.1793 415.107L-20.073 410.231C-20.073 410.231 -20.3051 409.584 -19.8617 409.432L-19.3574 409.258L-19.3552 409.264L-18.1272 408.833L-16.3813 410.641L-16.3817 410.643Z" fill="#635994"/>
<path d="M-11.2368 377.64C-11.1368 377.609 -11.0866 377.515 -11.1141 377.4C-11.1141 377.4 -11.1164 377.386 -11.1204 377.38C-11.2531 376.941 -11.6997 376.815 -12.0721 376.91C-12.4463 377.004 -12.7479 377.374 -12.6144 377.809L-12.6063 377.829C-12.575 377.929 -12.4865 377.984 -12.3986 377.964L-11.2351 377.64L-11.2368 377.64Z" fill="white"/>
<path d="M-11.1003 377.602C-11.1009 377.528 -11.0964 377.448 -11.1156 377.382C-11.2055 377.065 -11.5135 376.878 -11.768 376.944C-12.0247 377.012 -12.1393 377.333 -12.049 377.649C-12.0309 377.728 -11.9911 377.793 -11.9471 377.84L-11.0999 377.601L-11.1003 377.602Z" fill="#7D4533"/>
<path d="M-11.2469 377.645C-11.2301 377.575 -11.2307 377.501 -11.2488 377.423C-11.2982 377.245 -11.4723 377.131 -11.6093 377.17C-11.7484 377.21 -11.8297 377.394 -11.7628 377.576C-11.7429 377.646 -11.7051 377.708 -11.6532 377.758L-11.2469 377.645Z" fill="#7D4533"/>
<path d="M-11.5025 377.269C-11.5183 377.212 -11.4934 377.155 -11.4474 377.14C-11.4013 377.125 -11.3487 377.16 -11.3307 377.216C-11.315 377.274 -11.3398 377.331 -11.3859 377.345C-11.432 377.36 -11.4846 377.325 -11.5025 377.269Z" fill="white"/>
<path d="M-10.4537 379.53C-10.4793 379.494 -10.5182 379.47 -10.5619 379.462C-10.6055 379.455 -10.6503 379.465 -10.6864 379.49C-10.8096 379.578 -10.9627 379.614 -11.112 379.589C-11.2613 379.564 -11.3946 379.481 -11.4827 379.358C-11.5082 379.321 -11.5472 379.296 -11.5911 379.288C-11.635 379.281 -11.6802 379.29 -11.7167 379.316C-11.7533 379.342 -11.7782 379.381 -11.786 379.424C-11.7938 379.468 -11.7839 379.513 -11.7583 379.55C-11.6192 379.746 -11.4079 379.879 -11.1709 379.92C-10.9338 379.96 -10.6904 379.905 -10.494 379.766C-10.4758 379.754 -10.4603 379.738 -10.4483 379.719C-10.4363 379.7 -10.4282 379.68 -10.4243 379.658C-10.4204 379.636 -10.4209 379.614 -10.4257 379.592C-10.4305 379.571 -10.4396 379.55 -10.4523 379.532L-10.4537 379.53Z" fill="#990838"/>
<path d="M-18.2113 373.056L-15.8051 371.972C-14.2243 371.243 -12.3436 371.956 -11.6371 373.55L-11.0107 374.94C-10.8685 375.27 -11.0003 375.663 -11.3305 375.805L-18.2839 378.955C-18.6141 379.097 -19.0075 378.965 -19.1498 378.635L-19.7894 377.223C-20.5002 375.647 -19.7879 373.766 -18.2113 373.056Z" fill="#00A6ED"/>
<path d="M-16.7621 375.864L-14.6469 374.913C-14.5172 374.854 -14.3695 374.848 -14.236 374.898C-14.1024 374.948 -13.9939 375.048 -13.934 375.177C-13.875 375.307 -13.8697 375.455 -13.9192 375.588C-13.9687 375.722 -14.0691 375.83 -14.1984 375.89L-16.3136 376.841C-16.5829 376.961 -16.9064 376.846 -17.0264 376.576C-17.0854 376.447 -17.0908 376.299 -17.0412 376.165C-16.9917 376.032 -16.8914 375.923 -16.7621 375.864Z" fill="#0074BA"/>
<path d="M-11.7763 385.017L-7.55871 387.31L-7.52798 387.336C-7.20377 387.525 -6.79407 387.513 -6.4555 387.335L-2.28671 384.846C-2.13952 384.619 -2.02422 384.373 -1.94406 384.115C-1.76524 383.604 -1.6816 383.18 -1.6816 383.18C-1.64009 382.931 -1.37984 382.772 -1.13099 382.814C-0.882141 382.855 -0.723015 383.115 -0.764526 383.364C-0.768738 383.382 -0.814468 383.648 -0.916206 383.993C-0.928848 384.046 -0.88063 384.076 -0.837257 384.049C-0.208328 383.665 0.453682 383.066 0.717522 382.815C0.800438 382.738 0.910561 382.696 1.02402 382.699C1.13749 382.702 1.24515 382.75 1.32366 382.832C1.40118 382.915 1.44289 383.025 1.43976 383.139C1.43663 383.252 1.38891 383.36 1.30694 383.438C1.28525 383.452 0.947922 383.777 0.488899 384.147C0.441315 384.191 0.376244 384.231 0.328659 384.275C0.306969 384.288 0.320236 384.31 0.316025 384.327L0.350967 384.336C1.05338 383.876 1.56843 383.427 1.59012 383.414C1.63211 383.377 1.68124 383.349 1.73454 383.331C1.78783 383.313 1.84415 383.307 1.90007 383.312C1.95599 383.316 2.01035 383.333 2.05982 383.359C2.10929 383.386 2.15285 383.422 2.18782 383.466C2.22507 383.508 2.25339 383.557 2.27103 383.61C2.28867 383.664 2.29527 383.72 2.29044 383.776C2.2856 383.832 2.26943 383.886 2.2429 383.936C2.21638 383.985 2.18006 384.029 2.13615 384.064C2.13615 384.064 1.58195 384.522 1.00545 384.919C0.983757 384.932 0.997017 384.954 1.01871 384.94L1.95188 384.444C2.05219 384.396 2.16759 384.389 2.27313 384.424C2.37867 384.46 2.46587 384.536 2.51588 384.636C2.63102 384.848 2.52865 385.12 2.32021 385.217L1.27377 385.723C1.25208 385.736 1.26112 385.775 1.30029 385.766C1.62621 385.642 1.85213 385.548 1.85213 385.548C2.07806 385.455 2.31005 385.566 2.4035 385.792C2.49694 386.018 2.38554 386.25 2.15961 386.343C1.1993 386.722 -0.377922 387.359 -0.564682 387.443L-4.8419 389.999C-5.47754 390.375 -6.20128 390.577 -6.93996 390.584C-7.67863 390.591 -8.40605 390.403 -9.04866 390.038L-13.2662 387.746L-11.7763 385.017Z" fill="#C68D7B"/>
<path d="M-15.3566 385.374C-15.8589 386.307 -15.5133 387.481 -14.5805 387.983L-12.0448 389.353C-11.4579 389.679 -10.7054 389.472 -10.3922 388.864L-9.11307 386.472L-12.5744 384.417C-13.5295 383.854 -14.7387 384.191 -15.2711 385.173L-15.3566 385.374Z" fill="#FF8101"/>
<path d="M169.156 95.463C169.205 95.4613 169.253 95.4791 169.29 95.5126L172.549 98.4477L177.967 100.121C178.051 100.145 178.104 100.228 178.097 100.316L178.018 101.342C178.003 101.532 177.911 101.709 177.76 101.827C177.609 101.945 177.417 101.996 177.23 101.965L171.748 101.093L171.723 101.088C171.468 101.047 171.232 100.936 171.039 100.766L167.44 97.5649C167.414 97.5408 167.394 97.5074 167.384 97.4712C167.381 97.4604 167.377 97.4459 167.378 97.434C167.376 97.384 167.391 97.3374 167.427 97.2968L169.022 95.5262C169.058 95.4892 169.107 95.4683 169.156 95.463Z" fill="#EDBD82"/>
<path d="M172.549 98.4477L170.412 100.585L168.264 98.292C167.565 97.6407 167.592 96.5077 168.148 95.9162C168.703 95.3247 169.981 95.355 170.27 95.6231L172.549 98.4477Z" fill="#DB5200"/>
<path d="M163.166 89.3659C163.331 87.7797 164.584 86.0022 166.11 85.5409C167.82 85.0234 169.226 85.7434 170.149 87.0709C170.482 87.5509 170.722 88.0797 170.812 88.4959C170.824 88.5447 170.891 88.9084 170.936 89.0134C171.067 89.4297 172.009 89.4484 172.305 89.8309C172.53 90.1197 171.952 90.6559 171.926 90.7422C171.802 91.1622 172.597 92.2047 171.427 93.0822C171.127 93.3072 170.111 93.4684 170.111 93.4684C169.534 93.8584 170.137 95.3097 170.137 95.3097L166.871 95.8422C166.871 95.8422 167.411 94.4734 165.829 93.3822C164.617 92.5459 163.057 90.3859 163.166 89.3659Z" fill="#F9DDBD"/>
<path d="M172.072 91.6684C171.821 91.8109 171.506 91.8747 171.21 91.8222C170.887 91.7622 170.955 91.4884 171.281 91.4697C171.48 91.4584 171.784 91.3497 171.975 91.2072L172.072 91.6684Z" fill="#444444"/>
<path d="M169.544 89.9471C169.415 89.6555 169.465 89.3505 169.656 89.2657C169.847 89.1809 170.107 89.3486 170.236 89.6402C170.366 89.9318 170.315 90.2369 170.124 90.3216C169.933 90.4064 169.673 90.2387 169.544 89.9471Z" fill="#312D2D"/>
<path d="M169.781 88.9872C170.167 88.9797 170.175 88.7209 169.999 88.5709C169.867 88.4622 169.62 88.4134 169.234 88.6234C168.87 88.8222 168.78 89.0922 168.716 89.2609C168.652 89.4297 168.709 89.5609 168.802 89.5422C168.934 89.5272 169.309 89.0022 169.781 88.9872Z" fill="#454140"/>
<path d="M164.415 93.0559C164.362 93.0334 164.306 93.0109 164.242 92.9772C163.459 92.6172 163.286 91.5597 163.204 90.7984C163.192 90.7009 163.189 90.5997 163.181 90.4984C163.174 90.3822 163.159 90.2697 163.155 90.1534C163.151 89.9059 163.162 89.6622 163.207 89.4222C163.237 89.2534 163.286 89.0847 163.342 88.9197C163.402 88.7584 163.474 88.5972 163.552 88.4434C163.616 88.3159 163.691 88.1959 163.766 88.0759L163.834 87.9747C163.897 87.8809 163.965 87.7909 164.032 87.7047C164.055 87.6784 164.074 87.6522 164.096 87.6259C164.186 87.5172 164.284 87.4122 164.385 87.3147C164.407 87.2922 164.43 87.2734 164.452 87.2547C164.535 87.1759 164.625 87.1009 164.711 87.0297C164.73 87.0147 164.745 86.9997 164.764 86.9847C164.779 86.9734 164.797 86.9622 164.816 86.9472C164.887 86.8947 164.959 86.8422 165.034 86.7934L165.135 86.7259C165.244 86.6584 165.356 86.5947 165.472 86.5384C166.297 86.1334 167.265 86.0172 168.154 86.2497C168.326 86.2947 168.499 86.3547 168.66 86.4334C168.742 86.4709 168.821 86.5159 168.9 86.5609C169.129 86.6997 169.335 86.8797 169.485 87.0897C169.534 87.1609 169.579 87.2359 169.616 87.3109C169.654 87.3859 169.684 87.4722 169.71 87.5584C169.384 87.6859 169.009 87.6109 168.667 87.7759C168.337 87.9372 168.022 88.1509 167.677 88.2634C167.561 88.3009 167.445 88.3272 167.325 88.3347C167.201 88.3422 167.074 88.3347 166.95 88.3309C166.886 88.3272 166.822 88.3234 166.762 88.3234C166.729 88.3384 166.706 88.3497 166.706 88.3497C166.68 88.3834 166.665 88.4209 166.65 88.4547C166.56 88.7284 166.792 89.0809 167.025 89.4784C167.055 89.5272 167.081 89.5797 167.111 89.6322C167.152 89.7072 167.19 89.7822 167.227 89.8572C167.265 89.9322 167.299 90.0109 167.325 90.0897C167.347 90.1497 167.362 90.2097 167.377 90.2697C167.419 90.4534 167.43 90.6409 167.385 90.8322C167.351 90.9703 167.308 91.1057 167.254 91.2372C167.254 91.2372 167.149 91.0572 166.984 90.8922C166.957 90.8622 166.927 90.8359 166.894 90.8097C166.845 90.7684 166.796 90.7309 166.744 90.7009C166.691 90.6709 166.639 90.6484 166.582 90.6334C166.541 90.6222 166.504 90.6147 166.462 90.6147C166.365 90.6109 166.26 90.6409 166.155 90.7197C166.132 90.7347 166.117 90.7497 166.099 90.7684C166.067 90.7934 166.04 90.8224 166.016 90.8547C166.005 90.8697 165.99 90.8809 165.982 90.8959C165.971 90.9109 165.964 90.9259 165.956 90.9409C165.949 90.9559 165.937 90.9709 165.93 90.9822C165.922 90.9972 165.919 91.0159 165.911 91.0309C165.907 91.0459 165.9 91.0609 165.896 91.0722C165.892 91.0872 165.889 91.1059 165.889 91.1209C165.885 91.1359 165.881 91.1509 165.881 91.1659V91.2597C165.881 91.2784 165.885 91.2934 165.889 91.3122C165.892 91.3272 165.892 91.3422 165.896 91.3572C165.9 91.3759 165.907 91.3947 165.911 91.4097C165.915 91.4247 165.919 91.4359 165.926 91.4509C165.934 91.4697 165.941 91.4884 165.952 91.5072C165.96 91.5222 165.964 91.5334 165.971 91.5484C165.979 91.5672 165.99 91.5822 166.001 91.6009C166.009 91.6159 166.016 91.6272 166.027 91.6422C166.039 91.6609 166.054 91.6759 166.065 91.6947C166.076 91.7059 166.084 91.7209 166.091 91.7322L166.136 91.7884C166.147 91.7997 166.155 91.8109 166.166 91.8222C166.181 91.8409 166.2 91.8559 166.215 91.8747L166.249 91.9084C166.267 91.9234 166.286 91.9422 166.301 91.9572C166.312 91.9684 166.324 91.9797 166.339 91.9909C166.361 92.0097 166.384 92.0284 166.41 92.0472C166.417 92.0547 166.425 92.0584 166.436 92.0659C166.47 92.0922 166.504 92.1147 166.537 92.1372C167.1 92.5197 167.25 92.1184 167.28 92.3622C167.317 92.4222 167.37 92.5722 167.419 92.7184L167.422 92.7259C167.486 92.9097 167.539 93.0897 167.539 93.0897H167.535L167.602 93.3072C167.659 93.5959 167.606 93.9372 167.299 94.2484C167.149 94.4022 166.867 94.4772 166.699 94.5109C166.642 94.6722 166.507 94.9497 166.23 95.0959C166.11 95.1597 165.979 95.1934 165.836 95.1934C165.69 95.1934 165.536 95.1597 165.371 95.0922L165.064 94.9684C165.064 94.9684 165.487 94.7997 165.469 94.3234C164.865 94.7734 164.224 94.2559 164.209 94.2409L163.976 94.0309L164.261 93.9222C164.37 93.8847 164.565 93.7572 164.599 93.6484C164.73 93.2622 164.441 93.0784 164.415 93.0559Z" fill="#312D2D"/>
<path d="M164.415 93.0559C164.362 93.0334 164.306 93.0109 164.242 92.9772C163.459 92.6172 163.286 91.5597 163.204 90.7984C163.192 90.7009 163.189 90.5997 163.181 90.4984C163.174 90.3822 163.159 90.2697 163.155 90.1534C163.151 89.9059 163.162 89.6622 163.207 89.4222C163.237 89.2534 163.286 89.0847 163.342 88.9197C163.402 88.7584 163.474 88.5972 163.552 88.4434C163.616 88.3159 163.691 88.1959 163.766 88.0759L163.834 87.9747C163.897 87.8809 163.965 87.7909 164.032 87.7047C164.055 87.6784 164.074 87.6522 164.096 87.6259C164.186 87.5172 164.284 87.4122 164.385 87.3147C164.407 87.2922 164.43 87.2734 164.452 87.2547C164.535 87.1759 164.625 87.1009 164.711 87.0297C164.73 87.0147 164.745 86.9997 164.764 86.9847C164.779 86.9734 164.797 86.9622 164.816 86.9472C164.887 86.8947 164.959 86.8422 165.034 86.7934L165.135 86.7259C165.244 86.6584 165.356 86.5947 165.472 86.5384C166.297 86.1334 167.265 86.0172 168.154 86.2497C168.326 86.2947 168.499 86.3547 168.66 86.4334C168.742 86.4709 168.821 86.5159 168.9 86.5609C169.129 86.6997 169.335 86.8797 169.485 87.0897C169.534 87.1609 169.579 87.2359 169.616 87.3109C169.654 87.3859 169.684 87.4722 169.71 87.5584C169.384 87.6859 169.009 87.6109 168.667 87.7759C168.337 87.9372 168.022 88.1509 167.677 88.2634C167.561 88.3009 167.445 88.3272 167.325 88.3347C167.201 88.3422 167.074 88.3347 166.95 88.3309C166.886 88.3272 166.822 88.3234 166.762 88.3234C166.729 88.3384 166.706 88.3497 166.706 88.3497C166.68 88.3834 166.665 88.4209 166.65 88.4547C166.56 88.7284 166.792 89.0809 167.025 89.4784C167.055 89.5272 167.081 89.5797 167.111 89.6322C167.152 89.7072 167.19 89.7822 167.227 89.8572C167.265 89.9322 167.299 90.0109 167.325 90.0897C167.347 90.1497 167.362 90.2097 167.377 90.2697C167.419 90.4534 167.43 90.6409 167.385 90.8322C167.351 90.9703 167.308 91.1057 167.254 91.2372C167.254 91.2372 167.149 91.0572 166.984 90.8922C166.957 90.8622 166.927 90.8359 166.894 90.8097C166.845 90.7684 166.796 90.7309 166.744 90.7009C166.691 90.6709 166.639 90.6484 166.582 90.6334C166.541 90.6222 166.504 90.6147 166.462 90.6147C166.365 90.6109 166.26 90.6409 166.155 90.7197C166.132 90.7347 166.117 90.7497 166.099 90.7684C166.067 90.7934 166.04 90.8224 166.016 90.8547C166.005 90.8697 165.99 90.8809 165.982 90.8959C165.971 90.9109 165.964 90.9259 165.956 90.9409C165.949 90.9559 165.937 90.9709 165.93 90.9822C165.922 90.9972 165.919 91.0159 165.911 91.0309C165.907 91.0459 165.9 91.0609 165.896 91.0722C165.892 91.0872 165.889 91.1059 165.889 91.1209C165.885 91.1359 165.881 91.1509 165.881 91.1659V91.2597C165.881 91.2784 165.885 91.2934 165.889 91.3122C165.892 91.3272 165.892 91.3422 165.896 91.3572C165.9 91.3759 165.907 91.3947 165.911 91.4097C165.915 91.4247 165.919 91.4359 165.926 91.4509C165.934 91.4697 165.941 91.4884 165.952 91.5072C165.96 91.5222 165.964 91.5334 165.971 91.5484C165.979 91.5672 165.99 91.5822 166.001 91.6009C166.009 91.6159 166.016 91.6272 166.027 91.6422C166.039 91.6609 166.054 91.6759 166.065 91.6947C166.076 91.7059 166.084 91.7209 166.091 91.7322L166.136 91.7884C166.147 91.7997 166.155 91.8109 166.166 91.8222C166.181 91.8409 166.2 91.8559 166.215 91.8747L166.249 91.9084C166.267 91.9234 166.286 91.9422 166.301 91.9572C166.312 91.9684 166.324 91.9797 166.339 91.9909C166.361 92.0097 166.384 92.0284 166.41 92.0472C166.417 92.0547 166.425 92.0584 166.436 92.0659C166.47 92.0922 166.504 92.1147 166.537 92.1372C167.1 92.5197 167.25 92.1184 167.28 92.3622C167.317 92.4222 167.37 92.5722 167.419 92.7184L167.422 92.7259C167.486 92.9097 167.539 93.0897 167.539 93.0897H167.535L167.602 93.3072C167.659 93.5959 167.606 93.9372 167.299 94.2484C167.149 94.4022 166.867 94.4772 166.699 94.5109C166.642 94.6722 166.507 94.9497 166.23 95.0959C166.11 95.1597 165.979 95.1934 165.836 95.1934C165.69 95.1934 165.536 95.1597 165.371 95.0922L165.064 94.9684C165.064 94.9684 165.487 94.7997 165.469 94.3234C164.865 94.7734 164.224 94.2559 164.209 94.2409L163.976 94.0309L164.261 93.9222C164.37 93.8847 164.565 93.7572 164.599 93.6484C164.73 93.2622 164.441 93.0784 164.415 93.0559Z" fill="url(#paint12_radial_254_20306)"/>
<path d="M168.311 92.6997C168.63 93.1684 170.044 93.4234 170.111 93.4684C170.231 93.5359 169.706 93.8847 169.534 93.8584C169.361 93.8322 168.161 93.9709 166.774 93.3372C166.151 93.0522 164.595 92.2197 164.595 92.2197L165.086 91.2222C165.086 91.2222 167.036 93.2584 167.591 92.8159C168.146 92.3734 166.466 90.2397 166.466 90.2397L168.131 89.7822C168.131 89.7822 168.112 92.4109 168.311 92.6997Z" fill="url(#paint13_linear_254_20306)"/>
<path d="M165.364 85.2522C165.851 85.0797 167.539 84.7309 168.866 85.3647C169.425 85.6309 169.965 85.9759 170.385 86.4259C170.614 86.6734 170.985 87.1384 170.951 87.5359C170.929 87.8097 170.734 87.9409 170.557 88.0234C170.227 88.1809 169.279 88.4322 169.05 88.5784C168.525 88.9159 168.435 89.5572 168.394 89.6997C168.244 90.2022 168.03 90.5997 167.156 90.5997C166.635 90.5997 166.41 90.4647 166.08 90.6409C165.851 90.7609 165.566 91.0347 165.645 91.9159C165.735 92.8947 165.247 93.3597 164.741 93.3072C164.044 93.2359 161.617 91.7322 162.056 89.0359C162.349 87.2847 163.691 85.8409 165.364 85.2522Z" fill="url(#paint14_radial_254_20306)"/>
<path d="M177.058 112.872C177.485 112.047 177.194 110.955 176.464 110.395L169.443 105.007L166.95 108.518L173.359 112.615L170.806 118.896L173.304 120.09C173.304 120.095 176.905 113.163 177.058 112.872Z" fill="url(#paint15_linear_254_20306)"/>
<path d="M171.19 117.981L173.815 119.244L172.415 121.577L170.124 120.479L171.19 117.981Z" fill="#E0E0E0"/>
<path d="M166.07 105.256C166.889 104.103 168.488 103.83 169.641 104.649L169.644 104.646L174.385 108.205L171.559 112.188L166.677 108.828C165.523 108.014 165.253 106.412 166.07 105.256Z" fill="#646464"/>
<path d="M170.166 123.046C169.962 123.065 169.779 122.913 169.763 122.712L169.686 121.813C169.633 121.203 170.198 120.453 170.198 120.453L172.738 120.23L174.549 120.742C174.797 120.813 175.017 120.957 175.182 121.155C175.347 121.353 175.449 121.596 175.475 121.853L175.512 122.256C175.528 122.431 175.395 122.59 175.215 122.606L170.166 123.046Z" fill="#4568AD"/>
<path d="M167.891 115.951C168.103 115.139 170.121 107.399 170.121 107.399L165.908 106.511L164.646 114.349L158.478 118.692L159.931 121.047L166.812 117.268C166.815 117.271 167.679 116.762 167.891 115.951Z" fill="url(#paint16_linear_254_20306)"/>
<path d="M159.297 118.128L160.824 120.609L157.794 122.071L157.048 119.65L159.297 118.128Z" fill="#E0E0E0"/>
<path d="M168.594 103.808C168.923 103.878 169.235 104.011 169.513 104.201C169.79 104.391 170.028 104.634 170.211 104.915C170.395 105.197 170.521 105.512 170.583 105.843C170.645 106.173 170.641 106.513 170.572 106.842L169.196 112.609L164.417 111.602L165.558 105.784C165.849 104.405 167.21 103.517 168.594 103.808Z" fill="#7C7C7C"/>
<path d="M154.933 120.227C154.861 120.012 154.973 119.779 155.185 119.705L156.126 119.384C156.765 119.164 157.717 119.57 157.717 119.57L158.613 122.842L158.568 124.313C158.544 124.899 158.17 125.411 157.624 125.602L157.2 125.751C157.014 125.814 156.81 125.716 156.747 125.525L154.933 120.227Z" fill="#4568AD"/>
<path d="M168.817 94.5559C170.531 94.4359 171.255 95.9734 171.255 97.3684C171.255 100.335 170.827 102.015 171.112 104.835C171.131 105.026 170.265 106.125 168.555 106.717C166.174 107.542 164.561 106.605 164.561 106.44C164.561 104.782 164.929 100.41 166.136 96.9822C166.815 95.0434 167.167 94.6759 168.817 94.5559Z" fill="url(#paint17_radial_254_20306)"/>
<path d="M180.019 101.33C180.321 101.416 180.519 101.631 180.433 101.933C180.347 102.236 180.048 102.293 179.745 102.207L177.475 101.662C177.459 101.659 177.445 101.651 177.428 101.644C177.498 101.283 177.646 100.906 177.795 100.567L180.019 101.33Z" fill="#DBA689"/>
<path d="M177.464 100.318L177.672 100.065L179.879 100.001C180.103 99.9957 180.318 100.031 180.53 100.11L181.549 100.497C181.692 100.551 181.827 100.625 181.95 100.716C182.185 100.886 182.608 101.203 182.803 101.392C182.908 101.496 183.005 101.625 182.995 101.849C182.987 102.022 182.906 102.168 182.77 102.27C182.625 102.379 182.428 102.413 182.229 102.365C181.992 102.308 181.746 102.071 181.583 101.882C181.554 101.847 181.514 101.827 181.473 101.818L180.38 101.61C180.306 101.595 180.236 101.594 180.165 101.606C180.061 101.622 179.95 101.628 179.824 101.635C179.526 101.653 179.158 101.67 178.563 101.868C177.804 102.122 177.251 101.959 177.226 101.951L177.091 101.855L177.13 101.693C177.131 101.685 177.241 101.586 177.303 101.588C177.303 101.588 177.324 101.591 177.351 101.591C177.417 101.333 177.567 100.792 177.725 100.396C177.604 100.363 177.464 100.318 177.464 100.318Z" fill="#EDBD82"/>
<path d="M168.937 97.735L167.959 95.5792C167.94 95.5337 167.938 95.4828 167.954 95.436C167.962 95.4128 167.974 95.3915 167.991 95.3737C168.008 95.3558 168.029 95.3418 168.052 95.3326L171.912 93.5772L174.249 89.8888C174.439 89.5494 174.888 89.43 175.338 89.6103C175.755 89.7774 176.131 90.207 175.988 90.7532L174.169 95.1549C174.158 95.1762 174.148 95.1974 174.132 95.2133C174.005 95.4416 173.815 95.6292 173.586 95.7542C173.57 95.7701 173.554 95.786 173.53 95.794L169.189 97.8278C169.144 97.8517 169.091 97.8517 169.046 97.8331C168.999 97.8154 168.96 97.7804 168.937 97.735Z" fill="url(#paint18_linear_254_20306)"/>
<path d="M170.976 93.8024L172.451 97.2071L169.292 98.578C168.875 98.7583 168.404 98.7658 167.981 98.5988C167.559 98.4317 167.22 98.1038 167.039 97.6871L166.925 97.4246C166.744 97.0075 166.737 96.5359 166.904 96.1133C167.071 95.6907 167.399 95.3517 167.816 95.1706L170.976 93.8024Z" fill="#ED6D23"/>
<path d="M173.806 88.3218C173.77 88.1392 173.78 87.9506 173.835 87.7729L174.092 86.9747C174.132 86.8554 174.19 86.744 174.27 86.638C174.445 86.4099 174.686 86.1103 174.848 85.9645C174.978 85.8451 175.103 85.8054 175.28 85.8133C175.471 85.8239 175.643 85.9061 175.755 86.044C175.85 86.1607 175.89 86.3065 175.866 86.4524C175.84 86.6221 175.697 86.8077 175.439 87.0013C175.423 87.0119 175.415 87.0251 175.415 87.0357L175.344 87.8975C175.339 87.9452 175.346 87.9903 175.362 88.038C175.394 88.1229 175.415 88.2131 175.439 88.3165C175.492 88.5445 175.559 88.8335 175.826 89.2976C176.187 89.9181 176.105 90.2548 176.023 90.6128L175.97 90.7719L175.824 90.5147C175.816 90.512 175.765 90.5094 175.67 90.4882C175.681 90.4245 175.673 90.3529 175.673 90.2946C175.673 90.2893 175.67 90.2813 175.67 90.276C175.365 90.2151 174.914 90.1196 174.562 90.0215L174.564 90.0241C174.564 90.0241 174.532 90.0772 174.506 90.0984C174.477 90.1222 174.453 90.1514 174.434 90.1806C174.365 90.1594 174.302 90.1382 174.243 90.1169L174.143 90.0798L173.806 88.3218Z" fill="url(#paint19_linear_254_20306)"/>
<path d="M174.771 88.9209L175.511 87.5182C175.572 87.3723 175.67 87.2795 175.787 87.2265C175.904 87.1734 176.033 87.1761 176.161 87.2291C176.413 87.3325 176.492 87.603 176.36 87.8947L175.776 89.3478C175.776 89.3478 175.774 89.3504 175.774 89.3558C175.768 89.3664 175.758 89.3876 175.752 89.3929C175.718 89.4486 175.644 89.4857 175.588 89.4671C175.49 89.4326 175.466 89.4194 175.466 89.4194L175.469 89.4114L174.938 89.1569L174.936 89.1595C174.843 89.1091 174.885 89.141 174.816 89.0985C174.755 89.0641 174.737 88.9872 174.771 88.9209Z" fill="url(#paint20_linear_254_20306)"/>
<path d="M210.625 121.688C210.463 120.82 211.354 119.981 211.494 119.855C211.165 114.999 208.043 111.057 204.393 108.514L206.181 105.945C210.324 108.832 214.238 113.565 214.62 119.729L214.605 119.73L214.838 121.104C214.857 121.519 214.773 122.11 214.601 122.474C214.393 122.902 213.666 123.396 212.967 123.432C212.967 123.432 212.104 123.461 211.456 123.101C210.967 122.84 211.217 122.256 211.217 122.256C211.217 122.256 210.741 122.296 210.625 121.688Z" fill="#C68D7B"/>
<path d="M211.717 117.102L208.094 116.645L208.705 119.178C208.811 119.619 209.088 119.999 209.474 120.235C209.861 120.471 210.325 120.544 210.765 120.438C211.206 120.332 211.586 120.055 211.822 119.669C212.058 119.283 212.131 118.818 212.025 118.378L211.717 117.102Z" fill="#635994"/>
<path d="M208.242 115.223C208.223 115.141 208.171 115.07 208.1 115.026C208.028 114.982 207.941 114.969 207.86 114.989C207.778 115.008 207.707 115.06 207.663 115.132C207.619 115.203 207.606 115.29 207.626 115.371L207.988 116.872C207.993 116.949 208.025 117.021 208.078 117.075C208.131 117.13 208.202 117.165 208.278 117.172L211.685 117.497C211.728 117.503 211.771 117.5 211.813 117.489C211.855 117.478 211.894 117.458 211.928 117.431C211.962 117.404 211.991 117.371 212.012 117.333C212.032 117.295 212.045 117.253 212.049 117.21C212.054 117.166 212.049 117.123 212.036 117.081C212.023 117.04 212.001 117.002 211.973 116.969C211.945 116.936 211.91 116.909 211.871 116.89C211.832 116.871 211.79 116.86 211.747 116.857L208.563 116.552L208.242 115.223Z" fill="#433B6B"/>
<path d="M197.386 113.323L196.937 117.649L194.733 117.056L186.575 124.034L185.904 122.861L185.984 121.584L192.343 114.508C192.802 113.997 193.37 113.597 194.006 113.338C194.642 113.079 195.328 112.967 196.013 113.013L196.031 113.008L197.386 113.323ZM204.447 122.938L200.586 121.534L199.92 123.387C199.554 124.399 199.832 125.553 200.637 126.283L207.001 132.126L208.439 130.115L203.661 124.408L204.447 122.938Z" fill="#C68D7B"/>
<path d="M205.942 101.965L206.487 105.07L203.321 105.667L202.781 102.506L205.942 101.965Z" fill="#B87A66"/>
<path d="M207.792 106.345C207.57 105.807 207.14 105.097 206.328 104.72C204.287 103.77 203.08 104.671 203.08 104.671C203.08 104.671 201.484 105.721 201.922 108.685C201.926 108.702 201.852 111.309 200.609 113.975L207.78 116.111C209.211 111.309 208.21 106.928 207.792 106.345Z" fill="#FF6723"/>
<path d="M201.559 116.612L199.921 122.165L203.307 123.401C204.137 123.7 205.056 123.294 205.373 122.459L207.208 117.727L201.559 116.612Z" fill="#636363"/>
<path d="M196.6 117.974L197.167 113.27L200.614 113.963L200.943 113.21L208.028 115.219L207.78 116.111C207.78 116.111 207.504 117.416 206.762 118.482C206.021 119.548 203.696 119.721 203.696 119.721L198.358 119.898C198.11 119.909 197.862 119.866 197.632 119.77C197.403 119.675 197.197 119.531 197.029 119.347C196.861 119.164 196.736 118.946 196.662 118.708C196.588 118.471 196.567 118.22 196.6 117.974Z" fill="#9B9B9B"/>
<path d="M201.707 103.19C202.802 103.518 204.686 103.507 205.559 102.372L206.54 100.767L207.604 99.124C208.008 97.8064 207.243 96.4006 205.926 95.9972L204.369 95.522C203.052 95.1186 201.646 95.8828 201.242 97.2004L200.937 98.1984C200.623 98.5145 200.409 98.6753 200.26 98.787C200.088 98.9172 200.005 98.9797 199.955 99.138C199.861 99.438 200.123 99.7759 200.423 99.8905C199.979 101.449 199.886 102.634 201.709 103.191L201.707 103.19Z" fill="#C68D7B"/>
<path d="M203.609 97.2767C205.644 97.8954 205.276 99.1305 205.276 99.1305C205.276 99.1305 206.174 99.1729 205.412 101.686C205.022 102.982 206.098 103 206.538 103.134C207.294 103.359 207.789 102.112 206.789 101.798C206.789 101.798 208.059 102.158 209.134 98.644C209.919 96.0696 207.665 95.0785 205.934 95.0335C204.688 95.0013 204.9 94.5802 203.544 94.1677C203.087 94.0375 202.198 94.03 201.888 95.0476C201.584 96.0085 201.874 96.7521 203.609 97.2767Z" fill="#593B39"/>
<path d="M206.027 99.8651C206.087 100.118 206.046 100.384 205.91 100.606C205.774 100.827 205.556 100.986 205.304 101.047C205.051 101.108 204.785 101.066 204.563 100.931C204.342 100.795 204.183 100.577 204.122 100.324C204.061 100.072 204.103 99.8054 204.238 99.5837C204.374 99.3621 204.592 99.2033 204.845 99.1424C205.097 99.0815 205.364 99.1235 205.585 99.259C205.807 99.3945 205.966 99.6126 206.027 99.8651Z" fill="#BB806E"/>
<path d="M205.635 98.3949C205.659 98.3432 205.672 98.2875 205.674 98.2307C205.676 98.1739 205.667 98.1173 205.648 98.064C205.628 98.0107 205.598 97.9618 205.559 97.9202C205.521 97.8785 205.474 97.8448 205.423 97.8211C205.371 97.7974 205.315 97.784 205.259 97.7818C205.202 97.7797 205.145 97.7887 205.092 97.8084C205.039 97.8281 204.99 97.8581 204.948 97.8967C204.906 97.9353 204.873 97.9818 204.849 98.0334L202.424 103.314C202.401 103.366 202.387 103.422 202.385 103.478C202.383 103.535 202.392 103.592 202.411 103.645C202.431 103.698 202.461 103.747 202.499 103.788C202.538 103.83 202.584 103.864 202.636 103.888C202.687 103.911 202.743 103.925 202.799 103.927C202.856 103.929 202.913 103.92 202.966 103.901C203.019 103.881 203.068 103.851 203.11 103.813C203.151 103.774 203.185 103.728 203.209 103.676L205.633 98.3953L205.635 98.3949ZM185.977 121.571C185.977 121.571 183.61 120.587 181.995 119.909C181.68 119.771 181.305 120.346 181.155 120.583C181.047 120.757 181.128 120.867 181.128 120.867L184.254 124.725C184.254 124.725 184.861 125.494 185.219 125.189L185.521 124.939C185.536 124.929 185.55 124.918 185.565 124.906L186.618 124.023L185.977 121.571ZM206.579 131.765C206.579 131.765 206.933 134.305 207.184 136.038C207.213 136.248 207.578 136.369 207.898 136.377L207.896 136.383C207.896 136.383 208.057 136.436 208.087 136.41C208.292 136.416 208.377 136.23 208.377 136.23L210.27 131.354C210.27 131.354 210.503 130.706 210.059 130.554L209.555 130.38L209.553 130.386L208.325 129.956L206.579 131.763L206.579 131.765Z" fill="#635994"/>
<path d="M201.434 98.7625C201.334 98.7312 201.284 98.6379 201.312 98.5222C201.312 98.5222 201.314 98.5087 201.318 98.5021C201.451 98.0634 201.897 97.9372 202.27 98.0323C202.644 98.127 202.945 98.4962 202.812 98.9314L202.804 98.9519C202.772 99.0519 202.684 99.1065 202.596 99.087L201.433 98.7629L201.434 98.7625Z" fill="white"/>
<path d="M201.298 98.725C201.298 98.6509 201.294 98.5707 201.313 98.505C201.403 98.1875 201.711 98.0004 201.966 98.0666C202.222 98.1342 202.337 98.456 202.246 98.7718C202.228 98.8501 202.189 98.9152 202.145 98.9627L201.297 98.7233L201.298 98.725Z" fill="#7D4533"/>
<path d="M201.444 98.7678C201.428 98.6979 201.428 98.6238 201.446 98.5455C201.496 98.3671 201.67 98.2531 201.807 98.2921C201.946 98.3325 202.027 98.5163 201.96 98.6989C201.94 98.7681 201.903 98.8308 201.851 98.8806L201.444 98.7678Z" fill="#7D4533"/>
<path d="M201.7 98.3918C201.716 98.3343 201.691 98.2775 201.645 98.2627C201.599 98.2479 201.546 98.2828 201.528 98.3389C201.512 98.3963 201.537 98.4532 201.583 98.468C201.629 98.4827 201.682 98.4479 201.7 98.3918Z" fill="white"/>
<path d="M200.651 100.653C200.677 100.616 200.716 100.592 200.759 100.585C200.803 100.577 200.848 100.587 200.884 100.613C201.007 100.701 201.16 100.736 201.309 100.711C201.459 100.686 201.592 100.603 201.68 100.48C201.706 100.444 201.745 100.419 201.789 100.411C201.832 100.403 201.878 100.413 201.914 100.439C201.951 100.464 201.976 100.503 201.983 100.547C201.991 100.591 201.981 100.636 201.956 100.673C201.817 100.869 201.605 101.002 201.368 101.042C201.131 101.083 200.888 101.028 200.691 100.889C200.673 100.876 200.658 100.86 200.646 100.842C200.634 100.823 200.626 100.802 200.622 100.78C200.618 100.759 200.618 100.736 200.623 100.715C200.628 100.693 200.637 100.673 200.65 100.655L200.651 100.653Z" fill="#990838"/>
<path d="M208.409 94.1781L206.003 93.0941C204.422 92.3659 202.541 93.0782 201.835 94.6723L201.208 96.0622C201.066 96.3923 201.198 96.7858 201.528 96.928L208.481 100.077C208.812 100.22 209.205 100.088 209.347 99.7576L209.987 98.3461C210.698 96.7694 209.985 94.8888 208.409 94.1781Z" fill="#00A6ED"/>
<path d="M206.96 96.9861L204.844 96.0354C204.715 95.9764 204.567 95.971 204.433 96.0206C204.3 96.0701 204.191 96.1705 204.132 96.2997C204.072 96.4294 204.067 96.5771 204.117 96.7107C204.166 96.8442 204.267 96.9528 204.396 97.0126L206.511 97.9633C206.78 98.0832 207.104 97.9682 207.224 97.6989C207.283 97.5693 207.288 97.4216 207.239 97.288C207.189 97.1544 207.089 97.0459 206.96 96.9861Z" fill="#0074BA"/>
<path d="M201.974 106.14L197.756 108.432L197.725 108.458C197.401 108.647 196.992 108.635 196.653 108.458L192.484 105.969C192.337 105.742 192.222 105.496 192.142 105.238C191.963 104.726 191.879 104.303 191.879 104.303C191.838 104.054 191.577 103.895 191.328 103.936C191.08 103.978 190.92 104.238 190.962 104.487C190.966 104.504 191.012 104.77 191.114 105.116C191.126 105.168 191.078 105.198 191.035 105.172C190.406 104.787 189.744 104.189 189.48 103.938C189.397 103.86 189.287 103.819 189.173 103.822C189.06 103.825 188.952 103.873 188.874 103.955C188.796 104.038 188.755 104.148 188.758 104.261C188.761 104.375 188.809 104.482 188.891 104.561C188.912 104.574 189.25 104.9 189.709 105.27C189.756 105.314 189.821 105.353 189.869 105.397C189.891 105.411 189.877 105.432 189.881 105.45L189.847 105.458C189.144 104.999 188.629 104.55 188.607 104.537C188.565 104.499 188.516 104.471 188.463 104.453C188.41 104.436 188.353 104.429 188.297 104.434C188.241 104.439 188.187 104.455 188.138 104.482C188.088 104.508 188.045 104.544 188.01 104.588C187.972 104.63 187.944 104.679 187.926 104.733C187.909 104.786 187.902 104.842 187.907 104.898C187.912 104.954 187.928 105.009 187.955 105.058C187.981 105.108 188.017 105.151 188.061 105.186C188.061 105.186 188.616 105.644 189.192 106.041C189.214 106.055 189.2 106.076 189.179 106.063L188.246 105.567C188.145 105.518 188.03 105.511 187.924 105.547C187.819 105.583 187.732 105.659 187.682 105.758C187.566 105.971 187.669 106.242 187.877 106.34L188.924 106.846C188.945 106.859 188.936 106.898 188.897 106.889C188.571 106.764 188.345 106.671 188.345 106.671C188.119 106.577 187.887 106.689 187.794 106.915C187.701 107.141 187.812 107.373 188.038 107.466C188.998 107.845 190.575 108.481 190.762 108.566L195.039 111.121C195.675 111.498 196.399 111.7 197.137 111.707C197.876 111.714 198.604 111.525 199.246 111.161L203.464 108.868L201.974 106.14Z" fill="#C68D7B"/>
<path d="M205.554 106.496C206.056 107.429 205.711 108.603 204.778 109.106L202.242 110.475C201.655 110.802 200.903 110.595 200.59 109.986L199.311 107.595L202.772 105.54C203.727 104.977 204.936 105.314 205.469 106.295L205.554 106.496Z" fill="#FF8101"/>
<rect x="177" width="3" height="124" fill="#9B9B9B"/>
<defs>
<filter id="filter0_d_254_20306" x="81.9983" y="203.797" width="37.0017" height="24.3125" filterUnits="userSpaceOnUse" color-interpolation-filters="sRGB">
<feFlood flood-opacity="0" result="BackgroundImageFix"/>
<feColorMatrix in="SourceAlpha" type="matrix" values="0 0 0 0 0 0 0 0 0 0 0 0 0 0 0 0 0 0 127 0" result="hardAlpha"/>
<feOffset dy="4"/>
<feGaussianBlur stdDeviation="2"/>
<feComposite in2="hardAlpha" operator="out"/>
<feColorMatrix type="matrix" values="0 0 0 0 0.137255 0 0 0 0 0.137255 0 0 0 0 0.141176 0 0 0 0.25 0"/>
<feBlend mode="normal" in2="BackgroundImageFix" result="effect1_dropShadow_254_20306"/>
<feBlend mode="normal" in="SourceGraphic" in2="effect1_dropShadow_254_20306" result="shape"/>
</filter>
<filter id="filter1_d_254_20306" x="322.998" y="265.797" width="37.0017" height="24.3125" filterUnits="userSpaceOnUse" color-interpolation-filters="sRGB">
<feFlood flood-opacity="0" result="BackgroundImageFix"/>
<feColorMatrix in="SourceAlpha" type="matrix" values="0 0 0 0 0 0 0 0 0 0 0 0 0 0 0 0 0 0 127 0" result="hardAlpha"/>
<feOffset dy="4"/>
<feGaussianBlur stdDeviation="2"/>
<feComposite in2="hardAlpha" operator="out"/>
<feColorMatrix type="matrix" values="0 0 0 0 0.137255 0 0 0 0 0.137255 0 0 0 0 0.141176 0 0 0 0.25 0"/>
<feBlend mode="normal" in2="BackgroundImageFix" result="effect1_dropShadow_254_20306"/>
<feBlend mode="normal" in="SourceGraphic" in2="effect1_dropShadow_254_20306" result="shape"/>
</filter>
<filter id="filter2_d_254_20306" x="-0.00390625" y="307.797" width="69.0039" height="42.3125" filterUnits="userSpaceOnUse" color-interpolation-filters="sRGB">
<feFlood flood-opacity="0" result="BackgroundImageFix"/>
<feColorMatrix in="SourceAlpha" type="matrix" values="0 0 0 0 0 0 0 0 0 0 0 0 0 0 0 0 0 0 127 0" result="hardAlpha"/>
<feOffset dy="4"/>
<feGaussianBlur stdDeviation="2"/>
<feComposite in2="hardAlpha" operator="out"/>
<feColorMatrix type="matrix" values="0 0 0 0 0.137255 0 0 0 0 0.137255 0 0 0 0 0.141176 0 0 0 0.25 0"/>
<feBlend mode="normal" in2="BackgroundImageFix" result="effect1_dropShadow_254_20306"/>
<feBlend mode="normal" in="SourceGraphic" in2="effect1_dropShadow_254_20306" result="shape"/>
</filter>
<filter id="filter3_d_254_20306" x="252.996" y="243.797" width="69.0039" height="42.3125" filterUnits="userSpaceOnUse" color-interpolation-filters="sRGB">
<feFlood flood-opacity="0" result="BackgroundImageFix"/>
<feColorMatrix in="SourceAlpha" type="matrix" values="0 0 0 0 0 0 0 0 0 0 0 0 0 0 0 0 0 0 127 0" result="hardAlpha"/>
<feOffset dy="4"/>
<feGaussianBlur stdDeviation="2"/>
<feComposite in2="hardAlpha" operator="out"/>
<feColorMatrix type="matrix" values="0 0 0 0 0.137255 0 0 0 0 0.137255 0 0 0 0 0.141176 0 0 0 0.25 0"/>
<feBlend mode="normal" in2="BackgroundImageFix" result="effect1_dropShadow_254_20306"/>
<feBlend mode="normal" in="SourceGraphic" in2="effect1_dropShadow_254_20306" result="shape"/>
</filter>
<filter id="filter4_d_254_20306" x="332.996" y="163.797" width="69.0039" height="42.3125" filterUnits="userSpaceOnUse" color-interpolation-filters="sRGB">
<feFlood flood-opacity="0" result="BackgroundImageFix"/>
<feColorMatrix in="SourceAlpha" type="matrix" values="0 0 0 0 0 0 0 0 0 0 0 0 0 0 0 0 0 0 127 0" result="hardAlpha"/>
<feOffset dy="4"/>
<feGaussianBlur stdDeviation="2"/>
<feComposite in2="hardAlpha" operator="out"/>
<feColorMatrix type="matrix" values="0 0 0 0 0.137255 0 0 0 0 0.137255 0 0 0 0 0.141176 0 0 0 0.25 0"/>
<feBlend mode="normal" in2="BackgroundImageFix" result="effect1_dropShadow_254_20306"/>
<feBlend mode="normal" in="SourceGraphic" in2="effect1_dropShadow_254_20306" result="shape"/>
</filter>
<linearGradient id="paint0_linear_254_20306" x1="201" y1="14" x2="201" y2="34" gradientUnits="userSpaceOnUse">
<stop stop-color="#FEA800"/>
<stop offset="1" stop-color="#FF6767"/>
</linearGradient>
<linearGradient id="paint1_linear_254_20306" x1="201" y1="14" x2="201" y2="34" gradientUnits="userSpaceOnUse">
<stop stop-color="#FEA800"/>
<stop offset="1" stop-color="#FF6767"/>
</linearGradient>
<linearGradient id="paint2_linear_254_20306" x1="-86" y1="801" x2="-86" y2="397" gradientUnits="userSpaceOnUse">
<stop stop-color="#FFC2C1"/>
<stop offset="1" stop-color="#FEDC99"/>
</linearGradient>
<radialGradient id="paint3_radial_254_20306" cx="0" cy="0" r="1" gradientUnits="userSpaceOnUse" gradientTransform="translate(-61.0797 391.014) rotate(85.147) scale(27.9271 84.9441)">
<stop offset="0.673" stop-color="#454140" stop-opacity="0"/>
<stop offset="1" stop-color="#454140"/>
</radialGradient>
<linearGradient id="paint4_linear_254_20306" x1="-40.5482" y1="389.373" x2="-56.4146" y2="420.583" gradientUnits="userSpaceOnUse">
<stop stop-color="#646464"/>
<stop offset="0.995" stop-color="#262626"/>
</linearGradient>
<radialGradient id="paint5_radial_254_20306" cx="0" cy="0" r="1" gradientUnits="userSpaceOnUse" gradientTransform="translate(-70.8656 374.412) rotate(18.68) scale(75.316 47.1608)">
<stop stop-color="#81D4FA"/>
<stop offset="0.36" stop-color="#5EB3E7"/>
<stop offset="0.775" stop-color="#3C92D3"/>
<stop offset="1" stop-color="#2F85CC"/>
</radialGradient>
<linearGradient id="paint6_linear_254_20306" x1="-25.6102" y1="392.463" x2="-89.0649" y2="389.08" gradientUnits="userSpaceOnUse">
<stop stop-color="#FFD29C"/>
<stop offset="0.5" stop-color="#F9DDBD"/>
</linearGradient>
<linearGradient id="paint7_linear_254_20306" x1="-22.248" y1="369.175" x2="-24.5764" y2="407.396" gradientUnits="userSpaceOnUse">
<stop stop-color="#FFD29C"/>
<stop offset="0.5" stop-color="#F9DDBD"/>
</linearGradient>
<radialGradient id="paint8_radial_254_20306" cx="0" cy="0" r="1" gradientUnits="userSpaceOnUse" gradientTransform="translate(-46.3535 391.757) rotate(2.48672) scale(83.7057 20.8136)">
<stop offset="0.37" stop-color="#F78C1F"/>
<stop offset="0.681" stop-color="#F37F21"/>
<stop offset="0.998" stop-color="#ED6D23"/>
</radialGradient>
<linearGradient id="paint9_linear_254_20306" x1="-30.6774" y1="391.639" x2="-99.5168" y2="391.639" gradientUnits="userSpaceOnUse">
<stop stop-color="#FFD29C"/>
<stop offset="0.5" stop-color="#F9DDBD"/>
</linearGradient>
<linearGradient id="paint10_linear_254_20306" x1="172.536" y1="391.675" x2="-6.20487" y2="391.675" gradientUnits="userSpaceOnUse">
<stop stop-color="#FFD29C"/>
<stop offset="0.5" stop-color="#F9DDBD"/>
</linearGradient>
<linearGradient id="paint11_linear_254_20306" x1="350.633" y1="391.619" x2="41.6655" y2="391.619" gradientUnits="userSpaceOnUse">
<stop stop-color="#FFD29C"/>
<stop offset="0.5" stop-color="#F9DDBD"/>
</linearGradient>
<radialGradient id="paint12_radial_254_20306" cx="0" cy="0" r="1" gradientUnits="userSpaceOnUse" gradientTransform="translate(178.923 110.021) rotate(87.7111) scale(30.2768 43.5963)">
<stop offset="0.673" stop-color="#454140" stop-opacity="0"/>
<stop offset="1" stop-color="#454140"/>
</radialGradient>
<linearGradient id="paint13_linear_254_20306" x1="189.431" y1="108.236" x2="168.144" y2="127.948" gradientUnits="userSpaceOnUse">
<stop stop-color="#646464"/>
<stop offset="0.995" stop-color="#262626"/>
</linearGradient>
<radialGradient id="paint14_radial_254_20306" cx="0" cy="0" r="1" gradientUnits="userSpaceOnUse" gradientTransform="translate(173.915 91.9706) rotate(35.6848) scale(44.9577 43.9606)">
<stop stop-color="#81D4FA"/>
<stop offset="0.36" stop-color="#5EB3E7"/>
<stop offset="0.775" stop-color="#3C92D3"/>
<stop offset="1" stop-color="#2F85CC"/>
</radialGradient>
<linearGradient id="paint15_linear_254_20306" x1="197.077" y1="111.596" x2="164.528" y2="110.779" gradientUnits="userSpaceOnUse">
<stop stop-color="#FFD29C"/>
<stop offset="0.5" stop-color="#F9DDBD"/>
</linearGradient>
<linearGradient id="paint16_linear_254_20306" x1="198.797" y1="86.2777" x2="193.489" y2="127.297" gradientUnits="userSpaceOnUse">
<stop stop-color="#FFD29C"/>
<stop offset="0.5" stop-color="#F9DDBD"/>
</linearGradient>
<radialGradient id="paint17_radial_254_20306" cx="0" cy="0" r="1" gradientUnits="userSpaceOnUse" gradientTransform="translate(186.46 110.828) rotate(5.27066) scale(42.9822 22.5534)">
<stop offset="0.37" stop-color="#F78C1F"/>
<stop offset="0.681" stop-color="#F37F21"/>
<stop offset="0.998" stop-color="#ED6D23"/>
</radialGradient>
<linearGradient id="paint18_linear_254_20306" x1="194.483" y1="110.699" x2="159.251" y2="110.699" gradientUnits="userSpaceOnUse">
<stop stop-color="#FFD29C"/>
<stop offset="0.5" stop-color="#F9DDBD"/>
</linearGradient>
<linearGradient id="paint19_linear_254_20306" x1="298.489" y1="110.739" x2="207.008" y2="110.739" gradientUnits="userSpaceOnUse">
<stop stop-color="#FFD29C"/>
<stop offset="0.5" stop-color="#F9DDBD"/>
</linearGradient>
<linearGradient id="paint20_linear_254_20306" x1="389.639" y1="110.677" x2="231.508" y2="110.677" gradientUnits="userSpaceOnUse">
<stop stop-color="#FFD29C"/>
<stop offset="0.5" stop-color="#F9DDBD"/>
</linearGradient>
<clipPath id="clip0_254_20306">
<rect width="29" height="29" fill="white" transform="translate(86 196.547)"/>
</clipPath>
<clipPath id="clip1_254_20306">
<rect width="29" height="29" fill="white" transform="translate(327 258.547)"/>
</clipPath>
<clipPath id="clip2_254_20306">
<rect width="61" height="61" fill="white" transform="translate(257 228.547)"/>
</clipPath>
<clipPath id="clip3_254_20306">
<rect width="61" height="61" fill="white" transform="translate(337 148.547)"/>
</clipPath>
</defs>
</svg>
