<svg width="375" height="565" viewBox="0 0 375 565" fill="none" xmlns="http://www.w3.org/2000/svg">
<path d="M-186 569L-38.5 460.5L17.5 501.5L189 310L274 332.5L387 122L451 33L482 47.5L546.5 132L678.5 338V579V714H387H189H-186V569Z" fill="url(#paint0_linear_296_16409)"/>
<g clip-path="url(#clip0_296_16409)">
<g filter="url(#filter0_d_296_16409)">
<path d="M177 279.359C177 276.994 176.207 274.698 174.747 272.837C173.287 270.977 171.245 269.66 168.948 269.098C168.853 265.341 167.294 261.769 164.603 259.144C161.913 256.519 158.303 255.049 154.544 255.047C152.365 255.046 150.215 255.54 148.254 256.492C146.294 257.444 144.576 258.829 143.229 260.542C142.134 259.135 140.604 258.129 138.878 257.68C137.153 257.231 135.327 257.364 133.684 258.059C132.042 258.753 130.675 259.971 129.795 261.522C128.915 263.073 128.572 264.871 128.818 266.637C127.128 266.332 125.391 266.401 123.73 266.84C122.069 267.279 120.525 268.078 119.207 269.179C117.888 270.28 116.828 271.658 116.1 273.214C115.373 274.77 114.996 276.467 114.996 278.185C114.996 279.726 115.299 281.252 115.888 282.676C116.477 284.099 117.341 285.393 118.43 286.483C119.519 287.573 120.812 288.438 122.236 289.028C123.659 289.618 125.185 289.922 126.726 289.922H166.46C169.257 289.916 171.938 288.8 173.913 286.82C175.888 284.84 176.997 282.156 176.996 279.359H177Z" fill="#FFE2DF"/>
</g>
</g>
<g clip-path="url(#clip1_296_16409)">
<g filter="url(#filter1_d_296_16409)">
<path d="M390 130.169C390 129.063 389.629 127.989 388.946 127.118C388.263 126.248 387.308 125.632 386.234 125.369C386.189 123.612 385.46 121.941 384.202 120.713C382.943 119.486 381.255 118.798 379.497 118.797C378.477 118.797 377.471 119.028 376.555 119.473C375.638 119.918 374.834 120.566 374.204 121.367C373.692 120.709 372.976 120.239 372.169 120.029C371.362 119.819 370.508 119.881 369.74 120.206C368.971 120.531 368.332 121.1 367.92 121.826C367.509 122.551 367.348 123.392 367.463 124.219C366.673 124.076 365.86 124.108 365.084 124.313C364.307 124.519 363.584 124.892 362.968 125.407C362.351 125.922 361.855 126.567 361.515 127.295C361.175 128.023 360.998 128.816 360.998 129.62C360.998 130.341 361.14 131.054 361.415 131.72C361.691 132.386 362.095 132.991 362.604 133.501C363.114 134.011 363.719 134.415 364.385 134.691C365.05 134.967 365.764 135.11 366.485 135.11H385.07C386.378 135.107 387.632 134.585 388.556 133.659C389.48 132.732 389.999 131.477 389.998 130.169H390Z" fill="#FFE2DF"/>
</g>
</g>
<g filter="url(#filter2_d_296_16409)">
<path d="M340 246.717C340 244.39 339.219 242.131 337.783 240.3C336.347 238.47 334.338 237.175 332.078 236.621C331.984 232.924 330.45 229.41 327.803 226.828C325.156 224.245 321.605 222.799 317.906 222.797C315.763 222.796 313.646 223.283 311.718 224.219C309.789 225.156 308.099 226.518 306.774 228.203C305.696 226.819 304.191 225.829 302.493 225.387C300.795 224.946 298.999 225.077 297.383 225.76C295.767 226.444 294.422 227.641 293.556 229.167C292.69 230.694 292.353 232.463 292.595 234.201C290.932 233.9 289.223 233.968 287.589 234.4C285.955 234.832 284.436 235.617 283.139 236.701C281.842 237.785 280.799 239.14 280.083 240.671C279.367 242.202 278.996 243.872 278.996 245.562C278.996 247.078 279.294 248.579 279.873 249.98C280.453 251.381 281.303 252.654 282.375 253.726C283.446 254.798 284.719 255.649 286.119 256.23C287.519 256.81 289.021 257.109 290.537 257.11H329.63C332.382 257.104 335.019 256.006 336.963 254.058C338.906 252.109 339.997 249.469 339.996 246.717H340Z" fill="#FFE2DF"/>
</g>
<path d="M174.157 293.463C174.206 293.461 174.254 293.479 174.29 293.513L177.55 296.448L182.967 298.121C183.051 298.145 183.105 298.228 183.097 298.316L183.019 299.342C183.004 299.532 182.911 299.709 182.76 299.827C182.61 299.945 182.418 299.996 182.231 299.965L176.748 299.093L176.724 299.088C176.468 299.047 176.232 298.936 176.04 298.766L172.441 295.565C172.415 295.541 172.394 295.507 172.385 295.471C172.382 295.46 172.378 295.446 172.379 295.434C172.377 295.384 172.392 295.337 172.427 295.297L174.022 293.526C174.059 293.489 174.107 293.468 174.157 293.463Z" fill="#EDBD82"/>
<path d="M177.55 296.448L175.412 298.585L173.264 296.292C172.566 295.641 172.592 294.508 173.148 293.916C173.704 293.325 174.982 293.355 175.271 293.623L177.55 296.448Z" fill="#DB5200"/>
<path d="M168.167 287.366C168.332 285.78 169.584 284.002 171.11 283.541C172.82 283.023 174.227 283.743 175.149 285.071C175.483 285.551 175.723 286.08 175.813 286.496C175.824 286.545 175.892 286.908 175.937 287.013C176.068 287.43 177.009 287.448 177.305 287.831C177.53 288.12 176.953 288.656 176.927 288.742C176.803 289.162 177.598 290.205 176.428 291.082C176.128 291.307 175.112 291.468 175.112 291.468C174.534 291.858 175.138 293.31 175.138 293.31L171.872 293.842C171.872 293.842 172.412 292.473 170.829 291.382C169.618 290.546 168.058 288.386 168.167 287.366Z" fill="#F9DDBD"/>
<path d="M177.073 289.668C176.822 289.811 176.507 289.875 176.21 289.822C175.888 289.762 175.955 289.488 176.282 289.47C176.48 289.458 176.784 289.35 176.975 289.207L177.073 289.668Z" fill="#444444"/>
<path d="M174.544 287.947C174.415 287.656 174.465 287.35 174.657 287.266C174.848 287.181 175.108 287.349 175.237 287.64C175.366 287.932 175.316 288.237 175.125 288.322C174.933 288.406 174.674 288.239 174.544 287.947Z" fill="#312D2D"/>
<path d="M174.782 286.987C175.168 286.98 175.175 286.721 174.999 286.571C174.868 286.462 174.62 286.413 174.234 286.623C173.87 286.822 173.78 287.092 173.717 287.261C173.653 287.43 173.709 287.561 173.803 287.542C173.934 287.527 174.309 287.002 174.782 286.987Z" fill="#454140"/>
<path d="M169.415 291.056C169.363 291.033 169.307 291.011 169.243 290.977C168.459 290.617 168.287 289.56 168.204 288.798C168.193 288.701 168.189 288.6 168.182 288.498C168.174 288.382 168.159 288.27 168.155 288.153C168.152 287.906 168.163 287.662 168.208 287.422C168.238 287.253 168.287 287.085 168.343 286.92C168.403 286.758 168.474 286.597 168.553 286.443C168.617 286.316 168.692 286.196 168.767 286.076L168.834 285.975C168.898 285.881 168.965 285.791 169.033 285.705C169.055 285.678 169.074 285.652 169.097 285.626C169.187 285.517 169.284 285.412 169.385 285.315C169.408 285.292 169.43 285.273 169.453 285.255C169.535 285.176 169.625 285.101 169.712 285.03C169.73 285.015 169.745 285 169.764 284.985C169.779 284.973 169.798 284.962 169.817 284.947C169.888 284.895 169.959 284.842 170.034 284.793L170.135 284.726C170.244 284.658 170.357 284.595 170.473 284.538C171.298 284.133 172.265 284.017 173.154 284.25C173.327 284.295 173.499 284.355 173.66 284.433C173.743 284.471 173.822 284.516 173.9 284.561C174.129 284.7 174.335 284.88 174.485 285.09C174.534 285.161 174.579 285.236 174.617 285.311C174.654 285.386 174.684 285.472 174.71 285.558C174.384 285.686 174.009 285.611 173.668 285.776C173.338 285.937 173.023 286.151 172.678 286.263C172.562 286.301 172.445 286.327 172.325 286.335C172.202 286.342 172.074 286.335 171.95 286.331C171.887 286.327 171.823 286.323 171.763 286.323C171.729 286.338 171.707 286.35 171.707 286.35C171.68 286.383 171.665 286.421 171.65 286.455C171.56 286.728 171.793 287.081 172.025 287.478C172.055 287.527 172.082 287.58 172.112 287.632C172.153 287.707 172.19 287.782 172.228 287.857C172.265 287.932 172.299 288.011 172.325 288.09C172.348 288.15 172.363 288.21 172.378 288.27C172.419 288.453 172.43 288.641 172.385 288.832C172.352 288.97 172.308 289.106 172.254 289.237C172.254 289.237 172.149 289.057 171.984 288.892C171.958 288.862 171.928 288.836 171.894 288.81C171.845 288.768 171.797 288.731 171.744 288.701C171.692 288.671 171.639 288.648 171.583 288.633C171.542 288.622 171.504 288.615 171.463 288.615C171.365 288.611 171.26 288.641 171.155 288.72C171.133 288.735 171.118 288.75 171.099 288.768C171.068 288.793 171.04 288.822 171.017 288.855C171.005 288.87 170.99 288.881 170.983 288.896C170.972 288.911 170.964 288.926 170.957 288.941C170.949 288.956 170.938 288.971 170.93 288.982C170.923 288.997 170.919 289.016 170.912 289.031C170.908 289.046 170.9 289.061 170.897 289.072C170.893 289.087 170.889 289.106 170.889 289.121C170.885 289.136 170.882 289.151 170.882 289.166V289.26C170.882 289.278 170.885 289.293 170.889 289.312C170.893 289.327 170.893 289.342 170.897 289.357C170.9 289.376 170.908 289.395 170.912 289.41C170.915 289.425 170.919 289.436 170.927 289.451C170.934 289.47 170.942 289.488 170.953 289.507C170.96 289.522 170.964 289.533 170.972 289.548C170.979 289.567 170.99 289.582 171.002 289.601C171.009 289.616 171.017 289.627 171.028 289.642C171.039 289.661 171.054 289.676 171.065 289.695C171.077 289.706 171.084 289.721 171.092 289.732L171.137 289.788C171.148 289.8 171.155 289.811 171.167 289.822C171.182 289.841 171.2 289.856 171.215 289.875L171.249 289.908C171.268 289.923 171.287 289.942 171.302 289.957C171.313 289.968 171.324 289.98 171.339 289.991C171.362 290.01 171.384 290.028 171.41 290.047C171.418 290.055 171.425 290.058 171.437 290.066C171.47 290.092 171.504 290.115 171.538 290.137C172.1 290.52 172.25 290.118 172.28 290.362C172.318 290.422 172.37 290.572 172.419 290.718L172.423 290.726C172.487 290.91 172.539 291.09 172.539 291.09H172.535L172.603 291.307C172.659 291.596 172.607 291.937 172.299 292.248C172.149 292.402 171.868 292.477 171.699 292.511C171.643 292.672 171.508 292.95 171.23 293.096C171.11 293.16 170.979 293.193 170.837 293.193C170.69 293.193 170.537 293.16 170.372 293.092L170.064 292.968C170.064 292.968 170.488 292.8 170.469 292.323C169.865 292.773 169.224 292.256 169.209 292.241L168.977 292.031L169.262 291.922C169.37 291.885 169.565 291.757 169.599 291.648C169.73 291.262 169.442 291.078 169.415 291.056Z" fill="#312D2D"/>
<path d="M169.415 291.056C169.363 291.033 169.307 291.011 169.243 290.977C168.459 290.617 168.287 289.56 168.204 288.798C168.193 288.701 168.189 288.6 168.182 288.498C168.174 288.382 168.159 288.27 168.155 288.153C168.152 287.906 168.163 287.662 168.208 287.422C168.238 287.253 168.287 287.085 168.343 286.92C168.403 286.758 168.474 286.597 168.553 286.443C168.617 286.316 168.692 286.196 168.767 286.076L168.834 285.975C168.898 285.881 168.965 285.791 169.033 285.705C169.055 285.678 169.074 285.652 169.097 285.626C169.187 285.517 169.284 285.412 169.385 285.315C169.408 285.292 169.43 285.273 169.453 285.255C169.535 285.176 169.625 285.101 169.712 285.03C169.73 285.015 169.745 285 169.764 284.985C169.779 284.973 169.798 284.962 169.817 284.947C169.888 284.895 169.959 284.842 170.034 284.793L170.135 284.726C170.244 284.658 170.357 284.595 170.473 284.538C171.298 284.133 172.265 284.017 173.154 284.25C173.327 284.295 173.499 284.355 173.66 284.433C173.743 284.471 173.822 284.516 173.9 284.561C174.129 284.7 174.335 284.88 174.485 285.09C174.534 285.161 174.579 285.236 174.617 285.311C174.654 285.386 174.684 285.472 174.71 285.558C174.384 285.686 174.009 285.611 173.668 285.776C173.338 285.937 173.023 286.151 172.678 286.263C172.562 286.301 172.445 286.327 172.325 286.335C172.202 286.342 172.074 286.335 171.95 286.331C171.887 286.327 171.823 286.323 171.763 286.323C171.729 286.338 171.707 286.35 171.707 286.35C171.68 286.383 171.665 286.421 171.65 286.455C171.56 286.728 171.793 287.081 172.025 287.478C172.055 287.527 172.082 287.58 172.112 287.632C172.153 287.707 172.19 287.782 172.228 287.857C172.265 287.932 172.299 288.011 172.325 288.09C172.348 288.15 172.363 288.21 172.378 288.27C172.419 288.453 172.43 288.641 172.385 288.832C172.352 288.97 172.308 289.106 172.254 289.237C172.254 289.237 172.149 289.057 171.984 288.892C171.958 288.862 171.928 288.836 171.894 288.81C171.845 288.768 171.797 288.731 171.744 288.701C171.692 288.671 171.639 288.648 171.583 288.633C171.542 288.622 171.504 288.615 171.463 288.615C171.365 288.611 171.26 288.641 171.155 288.72C171.133 288.735 171.118 288.75 171.099 288.768C171.068 288.793 171.04 288.822 171.017 288.855C171.005 288.87 170.99 288.881 170.983 288.896C170.972 288.911 170.964 288.926 170.957 288.941C170.949 288.956 170.938 288.971 170.93 288.982C170.923 288.997 170.919 289.016 170.912 289.031C170.908 289.046 170.9 289.061 170.897 289.072C170.893 289.087 170.889 289.106 170.889 289.121C170.885 289.136 170.882 289.151 170.882 289.166V289.26C170.882 289.278 170.885 289.293 170.889 289.312C170.893 289.327 170.893 289.342 170.897 289.357C170.9 289.376 170.908 289.395 170.912 289.41C170.915 289.425 170.919 289.436 170.927 289.451C170.934 289.47 170.942 289.488 170.953 289.507C170.96 289.522 170.964 289.533 170.972 289.548C170.979 289.567 170.99 289.582 171.002 289.601C171.009 289.616 171.017 289.627 171.028 289.642C171.039 289.661 171.054 289.676 171.065 289.695C171.077 289.706 171.084 289.721 171.092 289.732L171.137 289.788C171.148 289.8 171.155 289.811 171.167 289.822C171.182 289.841 171.2 289.856 171.215 289.875L171.249 289.908C171.268 289.923 171.287 289.942 171.302 289.957C171.313 289.968 171.324 289.98 171.339 289.991C171.362 290.01 171.384 290.028 171.41 290.047C171.418 290.055 171.425 290.058 171.437 290.066C171.47 290.092 171.504 290.115 171.538 290.137C172.1 290.52 172.25 290.118 172.28 290.362C172.318 290.422 172.37 290.572 172.419 290.718L172.423 290.726C172.487 290.91 172.539 291.09 172.539 291.09H172.535L172.603 291.307C172.659 291.596 172.607 291.937 172.299 292.248C172.149 292.402 171.868 292.477 171.699 292.511C171.643 292.672 171.508 292.95 171.23 293.096C171.11 293.16 170.979 293.193 170.837 293.193C170.69 293.193 170.537 293.16 170.372 293.092L170.064 292.968C170.064 292.968 170.488 292.8 170.469 292.323C169.865 292.773 169.224 292.256 169.209 292.241L168.977 292.031L169.262 291.922C169.37 291.885 169.565 291.757 169.599 291.648C169.73 291.262 169.442 291.078 169.415 291.056Z" fill="url(#paint1_radial_296_16409)"/>
<path d="M173.312 290.7C173.63 291.168 175.044 291.423 175.112 291.468C175.232 291.536 174.707 291.885 174.534 291.858C174.362 291.832 173.162 291.971 171.774 291.337C171.152 291.052 169.595 290.22 169.595 290.22L170.087 289.222C170.087 289.222 172.037 291.258 172.592 290.816C173.147 290.373 171.467 288.24 171.467 288.24L173.132 287.782C173.132 287.782 173.113 290.411 173.312 290.7Z" fill="url(#paint2_linear_296_16409)"/>
<path d="M170.364 283.252C170.852 283.08 172.539 282.731 173.867 283.365C174.425 283.631 174.965 283.976 175.385 284.426C175.614 284.673 175.985 285.138 175.952 285.536C175.929 285.81 175.734 285.941 175.558 286.023C175.228 286.181 174.279 286.432 174.05 286.578C173.525 286.916 173.435 287.557 173.394 287.7C173.244 288.202 173.03 288.6 172.157 288.6C171.635 288.6 171.41 288.465 171.08 288.641C170.852 288.761 170.567 289.035 170.645 289.916C170.735 290.895 170.248 291.36 169.742 291.307C169.044 291.236 166.618 289.732 167.057 287.036C167.349 285.285 168.692 283.841 170.364 283.252Z" fill="url(#paint3_radial_296_16409)"/>
<path d="M183.118 302.392C182.837 301.507 181.858 300.941 180.947 301.061L172.172 302.216L172.892 306.461L180.32 304.826L182.957 311.073L185.567 310.151C185.57 310.155 183.215 302.707 183.118 302.392Z" fill="url(#paint4_linear_296_16409)"/>
<path d="M182.582 310.155L185.33 309.191L185.99 311.831L183.594 312.675L182.582 310.155Z" fill="#E0E0E0"/>
<path d="M169.963 304.777C169.727 303.382 170.664 302.058 172.059 301.822V301.818L177.928 300.982L178.745 305.797L172.918 306.873C171.527 307.113 170.203 306.172 169.963 304.777Z" fill="#646464"/>
<path d="M185.439 314.46C185.308 314.617 185.072 314.64 184.918 314.508L184.228 313.927C183.759 313.533 183.628 312.603 183.628 312.603L185.267 310.65L186.909 309.731C187.135 309.606 187.393 309.552 187.649 309.576C187.906 309.599 188.15 309.699 188.349 309.862L188.66 310.121C188.795 310.233 188.814 310.44 188.698 310.578L185.439 314.46Z" fill="#4568AD"/>
<path d="M178.813 311.051C178.389 310.327 174.343 303.427 174.343 303.427L170.735 305.778L175.385 312.213L174.095 319.646L176.788 320.283L178.982 312.746C178.985 312.746 179.237 311.775 178.813 311.051Z" fill="url(#paint5_linear_296_16409)"/>
<path d="M174.275 318.667L177.11 319.342L176 322.518L173.762 321.333L174.275 318.667Z" fill="#E0E0E0"/>
<path d="M170.724 301.968C171.006 301.785 171.321 301.658 171.651 301.596C171.982 301.534 172.321 301.538 172.651 301.608C172.98 301.677 173.292 301.81 173.569 302C173.847 302.19 174.084 302.433 174.268 302.715L177.373 307.766L173.282 310.432L169.974 305.512C169.205 304.331 169.539 302.741 170.724 301.968Z" fill="#7C7C7C"/>
<path d="M172.674 323.238C172.472 323.137 172.385 322.893 172.483 322.691L172.922 321.798C173.218 321.191 174.178 320.805 174.178 320.805L177.125 322.485L178.134 323.557C178.532 323.988 178.629 324.615 178.378 325.136L178.183 325.541C178.097 325.717 177.883 325.792 177.703 325.702L172.674 323.238Z" fill="#4568AD"/>
<path d="M173.818 292.556C175.532 292.436 176.255 293.973 176.255 295.368C176.255 298.335 175.828 300.015 176.113 302.835C176.132 303.026 175.265 304.125 173.555 304.717C171.174 305.542 169.562 304.605 169.562 304.44C169.562 302.782 169.929 298.41 171.137 294.982C171.815 293.043 172.168 292.676 173.818 292.556Z" fill="url(#paint6_radial_296_16409)"/>
<path d="M185.019 299.33C185.322 299.416 185.519 299.631 185.433 299.933C185.347 300.236 185.048 300.293 184.746 300.207L182.476 299.662C182.459 299.659 182.446 299.651 182.428 299.644C182.499 299.283 182.646 298.906 182.796 298.567L185.019 299.33Z" fill="#DBA689"/>
<path d="M182.464 298.318L182.672 298.065L184.88 298.001C185.103 297.996 185.319 298.031 185.53 298.11L186.55 298.497C186.693 298.551 186.828 298.625 186.95 298.716C187.186 298.886 187.609 299.203 187.803 299.392C187.908 299.496 188.005 299.625 187.995 299.849C187.987 300.022 187.906 300.168 187.77 300.27C187.625 300.379 187.428 300.413 187.229 300.365C186.992 300.308 186.747 300.071 186.583 299.882C186.554 299.847 186.514 299.827 186.473 299.818L185.381 299.61C185.307 299.595 185.237 299.594 185.166 299.606C185.062 299.622 184.951 299.628 184.824 299.635C184.526 299.653 184.158 299.67 183.563 299.868C182.804 300.122 182.252 299.959 182.226 299.951L182.092 299.855L182.13 299.693C182.132 299.685 182.241 299.586 182.304 299.588C182.304 299.588 182.324 299.591 182.351 299.591C182.418 299.333 182.568 298.792 182.726 298.396C182.604 298.363 182.464 298.318 182.464 298.318Z" fill="#EDBD82"/>
<path d="M173.409 295.633L175.765 295.863C175.814 295.87 175.859 295.893 175.892 295.93C175.908 295.949 175.92 295.971 175.927 295.994C175.934 296.018 175.936 296.043 175.932 296.067L175.522 300.288L177.549 304.156C177.747 304.491 177.626 304.938 177.245 305.239C176.892 305.516 176.332 305.627 175.93 305.23L173.028 301.454C173.015 301.434 173.002 301.414 172.996 301.392C172.862 301.168 172.794 300.91 172.8 300.649C172.795 300.627 172.789 300.605 172.794 300.581L173.203 295.804C173.205 295.754 173.231 295.708 173.27 295.678C173.309 295.646 173.359 295.629 173.409 295.633Z" fill="url(#paint7_linear_296_16409)"/>
<path d="M175.795 299.365L172.11 298.939L172.501 295.519C172.554 295.067 172.783 294.655 173.139 294.373C173.495 294.09 173.948 293.961 174.4 294.012L174.684 294.045C175.136 294.097 175.548 294.326 175.83 294.682C176.113 295.038 176.242 295.492 176.191 295.943L175.795 299.365Z" fill="#ED6D23"/>
<path d="M179.127 304.556C179.303 304.616 179.461 304.719 179.588 304.855L180.15 305.477C180.234 305.571 180.301 305.677 180.353 305.799C180.463 306.065 180.602 306.424 180.648 306.637C180.686 306.809 180.658 306.937 180.562 307.087C180.458 307.247 180.3 307.355 180.125 307.382C179.976 307.407 179.83 307.368 179.716 307.275C179.582 307.167 179.493 306.95 179.454 306.63C179.453 306.611 179.445 306.598 179.436 306.593L178.726 306.1C178.687 306.071 178.644 306.056 178.595 306.045C178.505 306.031 178.416 306.004 178.315 305.973C178.091 305.905 177.808 305.818 177.272 305.818C176.554 305.82 176.304 305.58 176.035 305.33L175.923 305.204L176.219 305.207C176.225 305.201 176.253 305.159 176.319 305.087C176.369 305.128 176.435 305.157 176.485 305.186C176.49 305.188 176.498 305.19 176.503 305.193C176.708 304.959 177.016 304.617 177.277 304.36L177.274 304.361C177.274 304.361 177.244 304.307 177.238 304.274C177.232 304.236 177.219 304.201 177.203 304.17C177.256 304.121 177.306 304.077 177.354 304.037L177.436 303.968L179.127 304.556Z" fill="url(#paint8_linear_296_16409)"/>
<path d="M178.125 305.092L178.97 306.434C179.066 306.56 179.097 306.691 179.085 306.819C179.073 306.946 179.005 307.057 178.896 307.141C178.68 307.308 178.406 307.241 178.22 306.981L177.253 305.749C177.253 305.749 177.252 305.745 177.248 305.742C177.241 305.733 177.228 305.713 177.226 305.706C177.195 305.648 177.2 305.565 177.244 305.526C177.323 305.458 177.346 305.444 177.346 305.444L177.352 305.451L177.837 305.119L177.836 305.115C177.926 305.06 177.878 305.081 177.949 305.042C178.009 305.007 178.085 305.029 178.125 305.092Z" fill="url(#paint9_linear_296_16409)"/>
<path d="M254.573 315.565C254.735 314.697 253.844 313.858 253.704 313.732C254.033 308.876 257.154 304.934 260.805 302.391L259.017 299.822C254.874 302.709 250.96 307.443 250.577 313.606L250.592 313.607L250.36 314.982C250.34 315.396 250.424 315.988 250.596 316.351C250.804 316.779 251.532 317.273 252.23 317.309C252.23 317.309 253.094 317.338 253.742 316.979C254.23 316.717 253.98 316.133 253.98 316.133C253.98 316.133 254.456 316.173 254.573 315.565Z" fill="#C68D7B"/>
<path d="M253.48 310.98L257.103 310.522L256.492 313.056C256.386 313.496 256.11 313.876 255.723 314.113C255.337 314.349 254.872 314.422 254.432 314.316C253.992 314.21 253.612 313.933 253.376 313.546C253.139 313.16 253.066 312.696 253.172 312.255L253.48 310.98Z" fill="#635994"/>
<path d="M256.955 309.1C256.975 309.018 257.026 308.948 257.098 308.904C257.17 308.86 257.256 308.846 257.338 308.866C257.42 308.886 257.49 308.937 257.534 309.009C257.578 309.081 257.592 309.167 257.572 309.249L257.21 310.75C257.205 310.826 257.173 310.898 257.12 310.953C257.066 311.008 256.996 311.042 256.919 311.05L253.513 311.375C253.47 311.381 253.426 311.378 253.384 311.367C253.342 311.355 253.303 311.336 253.269 311.309C253.235 311.282 253.207 311.248 253.186 311.21C253.165 311.172 253.152 311.13 253.148 311.087C253.144 311.044 253.149 311 253.162 310.959C253.175 310.917 253.196 310.879 253.224 310.846C253.253 310.813 253.287 310.786 253.326 310.767C253.365 310.748 253.408 310.737 253.451 310.735L256.634 310.43L256.955 309.1Z" fill="#433B6B"/>
<path d="M267.811 307.201L268.26 311.527L270.465 310.934L278.623 317.912L279.294 316.739L279.213 315.462L272.854 308.385C272.396 307.874 271.827 307.474 271.191 307.215C270.556 306.956 269.869 306.845 269.184 306.89L269.167 306.886L267.811 307.201ZM260.75 316.816L264.611 315.411L265.277 317.264C265.643 318.277 265.365 319.43 264.561 320.16L258.197 326.003L256.758 323.993L261.537 318.285L260.75 316.816Z" fill="#C68D7B"/>
<path d="M259.256 295.843L258.711 298.947L261.877 299.544L262.417 296.383L259.256 295.843Z" fill="#B87A66"/>
<path d="M257.405 300.222C257.628 299.684 258.058 298.974 258.87 298.597C260.911 297.647 262.117 298.548 262.117 298.548C262.117 298.548 263.713 299.598 263.276 302.562C263.271 302.58 263.346 305.186 264.589 307.853L257.417 309.988C255.987 305.187 256.987 300.806 257.405 300.222Z" fill="#FF6723"/>
<path d="M263.639 310.489L265.276 316.043L261.891 317.279C261.06 317.578 260.141 317.171 259.825 316.337L257.989 311.605L263.639 310.489Z" fill="#636363"/>
<path d="M268.598 311.851L268.031 307.148L264.584 307.84L264.255 307.088L257.17 309.096L257.417 309.988C257.417 309.988 257.694 311.293 258.435 312.359C259.177 313.426 261.502 313.598 261.502 313.598L266.839 313.776C267.088 313.787 267.336 313.743 267.565 313.648C267.795 313.553 268.001 313.408 268.168 313.225C268.336 313.041 268.461 312.823 268.536 312.586C268.61 312.348 268.631 312.098 268.598 311.851Z" fill="#9B9B9B"/>
<path d="M263.491 297.068C262.395 297.395 260.512 297.385 259.639 296.25L258.658 294.645L257.593 293.001C257.19 291.684 257.954 290.278 259.272 289.875L260.828 289.399C262.146 288.996 263.552 289.76 263.955 291.078L264.26 292.076C264.574 292.392 264.789 292.553 264.937 292.664C265.109 292.795 265.192 292.857 265.243 293.015C265.337 293.315 265.074 293.653 264.775 293.768C265.218 295.326 265.311 296.512 263.489 297.069L263.491 297.068Z" fill="#C68D7B"/>
<path d="M261.588 291.154C259.553 291.773 259.921 293.008 259.921 293.008C259.921 293.008 259.023 293.05 259.786 295.564C260.176 296.86 259.099 296.877 258.66 297.012C257.903 297.236 257.409 295.989 258.409 295.676C258.409 295.676 257.139 296.035 256.063 292.521C255.279 289.947 257.533 288.956 259.263 288.911C260.51 288.879 260.297 288.458 261.654 288.045C262.111 287.915 263 287.907 263.309 288.925C263.614 289.886 263.323 290.63 261.588 291.154Z" fill="#593B39"/>
<path d="M259.171 293.743C259.11 293.995 259.152 294.262 259.287 294.483C259.423 294.705 259.641 294.864 259.894 294.925C260.146 294.985 260.413 294.943 260.634 294.808C260.856 294.672 261.015 294.454 261.076 294.202C261.136 293.949 261.095 293.683 260.959 293.461C260.823 293.24 260.605 293.081 260.353 293.02C260.1 292.959 259.834 293.001 259.612 293.136C259.391 293.272 259.232 293.49 259.171 293.743Z" fill="#BB806E"/>
<path d="M259.563 292.272C259.539 292.221 259.525 292.165 259.523 292.108C259.521 292.051 259.53 291.995 259.55 291.941C259.57 291.888 259.6 291.839 259.638 291.798C259.677 291.756 259.723 291.722 259.775 291.699C259.826 291.675 259.882 291.661 259.939 291.659C259.996 291.657 260.052 291.666 260.106 291.686C260.159 291.706 260.208 291.736 260.249 291.774C260.291 291.813 260.325 291.859 260.349 291.911L262.773 297.192C262.797 297.243 262.81 297.299 262.813 297.356C262.815 297.412 262.806 297.469 262.786 297.522C262.767 297.575 262.737 297.624 262.698 297.666C262.66 297.708 262.613 297.741 262.562 297.765C262.51 297.789 262.455 297.802 262.398 297.804C262.341 297.807 262.285 297.798 262.232 297.778C262.178 297.758 262.13 297.729 262.088 297.69C262.046 297.652 262.013 297.605 261.989 297.554L259.564 292.273L259.563 292.272ZM279.22 315.448C279.22 315.448 281.588 314.464 283.203 313.787C283.517 313.648 283.892 314.223 284.042 314.461C284.15 314.635 284.07 314.745 284.07 314.745L280.943 318.602C280.943 318.602 280.336 319.371 279.979 319.067L279.677 318.816C279.662 318.806 279.647 318.795 279.633 318.784L278.579 317.901L279.22 315.448ZM258.618 325.643C258.618 325.643 258.265 328.183 258.013 329.916C257.985 330.125 257.619 330.246 257.299 330.254L257.302 330.26C257.302 330.26 257.141 330.314 257.11 330.288C256.905 330.294 256.821 330.107 256.821 330.107L254.927 325.231C254.927 325.231 254.695 324.584 255.138 324.432L255.643 324.258L255.645 324.264L256.873 323.833L258.619 325.641L258.618 325.643Z" fill="#635994"/>
<path d="M263.763 292.64C263.863 292.609 263.913 292.515 263.886 292.4C263.886 292.4 263.884 292.386 263.88 292.38C263.747 291.941 263.3 291.815 262.928 291.91C262.554 292.004 262.252 292.374 262.386 292.809L262.394 292.829C262.425 292.929 262.514 292.984 262.601 292.964L263.765 292.64L263.763 292.64Z" fill="white"/>
<path d="M263.9 292.602C263.899 292.528 263.904 292.448 263.884 292.382C263.795 292.065 263.486 291.878 263.232 291.944C262.975 292.012 262.861 292.333 262.951 292.649C262.969 292.728 263.009 292.793 263.053 292.84L263.9 292.601L263.9 292.602Z" fill="#7D4533"/>
<path d="M263.753 292.645C263.77 292.575 263.769 292.501 263.751 292.423C263.702 292.245 263.528 292.131 263.391 292.17C263.252 292.21 263.17 292.394 263.237 292.576C263.257 292.646 263.295 292.708 263.347 292.758L263.753 292.645Z" fill="#7D4533"/>
<path d="M263.497 292.269C263.482 292.212 263.507 292.155 263.553 292.14C263.599 292.125 263.651 292.16 263.669 292.216C263.685 292.274 263.66 292.331 263.614 292.345C263.568 292.36 263.515 292.325 263.497 292.269Z" fill="white"/>
<path d="M264.546 294.53C264.521 294.494 264.482 294.47 264.438 294.462C264.395 294.455 264.35 294.465 264.314 294.49C264.19 294.578 264.037 294.614 263.888 294.589C263.739 294.564 263.605 294.481 263.517 294.358C263.492 294.321 263.453 294.296 263.409 294.288C263.365 294.281 263.32 294.29 263.283 294.316C263.247 294.342 263.222 294.381 263.214 294.424C263.206 294.468 263.216 294.513 263.242 294.55C263.381 294.746 263.592 294.879 263.829 294.92C264.066 294.96 264.31 294.905 264.506 294.766C264.524 294.754 264.54 294.738 264.552 294.719C264.564 294.7 264.572 294.68 264.576 294.658C264.58 294.636 264.579 294.614 264.574 294.592C264.569 294.571 264.56 294.55 264.548 294.532L264.546 294.53Z" fill="#990838"/>
<path d="M256.789 288.056L259.195 286.972C260.776 286.243 262.656 286.956 263.363 288.55L263.989 289.94C264.132 290.27 264 290.663 263.67 290.805L256.716 293.955C256.386 294.097 255.992 293.965 255.85 293.635L255.211 292.223C254.5 290.647 255.212 288.766 256.789 288.056Z" fill="#00A6ED"/>
<path d="M258.238 290.864L260.353 289.913C260.483 289.854 260.63 289.848 260.764 289.898C260.898 289.948 261.006 290.048 261.066 290.177C261.125 290.307 261.13 290.455 261.081 290.588C261.031 290.722 260.931 290.83 260.802 290.89L258.686 291.841C258.417 291.961 258.094 291.846 257.974 291.576C257.915 291.447 257.909 291.299 257.959 291.165C258.008 291.032 258.109 290.923 258.238 290.864Z" fill="#0074BA"/>
<path d="M263.224 300.017L267.441 302.31L267.472 302.336C267.796 302.525 268.206 302.513 268.545 302.335L272.713 299.846C272.86 299.619 272.976 299.373 273.056 299.115C273.235 298.604 273.318 298.18 273.318 298.18C273.36 297.931 273.62 297.772 273.869 297.814C274.118 297.855 274.277 298.115 274.235 298.364C274.231 298.382 274.186 298.648 274.084 298.993C274.071 299.046 274.119 299.076 274.163 299.049C274.792 298.665 275.454 298.066 275.718 297.815C275.8 297.738 275.911 297.696 276.024 297.699C276.137 297.702 276.245 297.75 276.324 297.832C276.401 297.915 276.443 298.025 276.44 298.139C276.437 298.252 276.389 298.36 276.307 298.438C276.285 298.452 275.948 298.777 275.489 299.147C275.441 299.191 275.376 299.231 275.329 299.275C275.307 299.288 275.32 299.31 275.316 299.327L275.351 299.336C276.053 298.876 276.568 298.427 276.59 298.414C276.632 298.377 276.681 298.349 276.735 298.331C276.788 298.313 276.844 298.307 276.9 298.312C276.956 298.316 277.01 298.333 277.06 298.359C277.109 298.386 277.153 298.422 277.188 298.466C277.225 298.508 277.253 298.557 277.271 298.61C277.289 298.664 277.295 298.72 277.29 298.776C277.286 298.832 277.269 298.886 277.243 298.936C277.216 298.985 277.18 299.029 277.136 299.064C277.136 299.064 276.582 299.522 276.005 299.919C275.984 299.932 275.997 299.954 276.019 299.94L276.952 299.444C277.052 299.396 277.168 299.389 277.273 299.424C277.379 299.46 277.466 299.536 277.516 299.636C277.631 299.848 277.529 300.12 277.32 300.217L276.274 300.723C276.252 300.736 276.261 300.775 276.3 300.766C276.626 300.642 276.852 300.548 276.852 300.548C277.078 300.455 277.31 300.566 277.403 300.792C277.497 301.018 277.386 301.25 277.16 301.343C276.199 301.722 274.622 302.359 274.435 302.443L270.158 304.999C269.522 305.375 268.799 305.577 268.06 305.584C267.321 305.591 266.594 305.403 265.951 305.038L261.734 302.746L263.224 300.017Z" fill="#C68D7B"/>
<path d="M259.643 300.374C259.141 301.307 259.487 302.481 260.419 302.983L262.955 304.353C263.542 304.679 264.295 304.472 264.608 303.864L265.887 301.472L262.426 299.417C261.47 298.854 260.261 299.191 259.729 300.173L259.643 300.374Z" fill="#FF8101"/>
<defs>
<filter id="filter0_d_296_16409" x="110.996" y="255.047" width="70.0039" height="42.875" filterUnits="userSpaceOnUse" color-interpolation-filters="sRGB">
<feFlood flood-opacity="0" result="BackgroundImageFix"/>
<feColorMatrix in="SourceAlpha" type="matrix" values="0 0 0 0 0 0 0 0 0 0 0 0 0 0 0 0 0 0 127 0" result="hardAlpha"/>
<feOffset dy="4"/>
<feGaussianBlur stdDeviation="2"/>
<feComposite in2="hardAlpha" operator="out"/>
<feColorMatrix type="matrix" values="0 0 0 0 0.137255 0 0 0 0 0.137255 0 0 0 0 0.141176 0 0 0 0.25 0"/>
<feBlend mode="normal" in2="BackgroundImageFix" result="effect1_dropShadow_296_16409"/>
<feBlend mode="normal" in="SourceGraphic" in2="effect1_dropShadow_296_16409" result="shape"/>
</filter>
<filter id="filter1_d_296_16409" x="356.998" y="118.797" width="37.0017" height="24.3125" filterUnits="userSpaceOnUse" color-interpolation-filters="sRGB">
<feFlood flood-opacity="0" result="BackgroundImageFix"/>
<feColorMatrix in="SourceAlpha" type="matrix" values="0 0 0 0 0 0 0 0 0 0 0 0 0 0 0 0 0 0 127 0" result="hardAlpha"/>
<feOffset dy="4"/>
<feGaussianBlur stdDeviation="2"/>
<feComposite in2="hardAlpha" operator="out"/>
<feColorMatrix type="matrix" values="0 0 0 0 0.137255 0 0 0 0 0.137255 0 0 0 0 0.141176 0 0 0 0.25 0"/>
<feBlend mode="normal" in2="BackgroundImageFix" result="effect1_dropShadow_296_16409"/>
<feBlend mode="normal" in="SourceGraphic" in2="effect1_dropShadow_296_16409" result="shape"/>
</filter>
<filter id="filter2_d_296_16409" x="274.996" y="222.797" width="69.0039" height="42.3125" filterUnits="userSpaceOnUse" color-interpolation-filters="sRGB">
<feFlood flood-opacity="0" result="BackgroundImageFix"/>
<feColorMatrix in="SourceAlpha" type="matrix" values="0 0 0 0 0 0 0 0 0 0 0 0 0 0 0 0 0 0 127 0" result="hardAlpha"/>
<feOffset dy="4"/>
<feGaussianBlur stdDeviation="2"/>
<feComposite in2="hardAlpha" operator="out"/>
<feColorMatrix type="matrix" values="0 0 0 0 0.137255 0 0 0 0 0.137255 0 0 0 0 0.141176 0 0 0 0.25 0"/>
<feBlend mode="normal" in2="BackgroundImageFix" result="effect1_dropShadow_296_16409"/>
<feBlend mode="normal" in="SourceGraphic" in2="effect1_dropShadow_296_16409" result="shape"/>
</filter>
<linearGradient id="paint0_linear_296_16409" x1="189" y1="714" x2="189" y2="310" gradientUnits="userSpaceOnUse">
<stop stop-color="#FFC2C1"/>
<stop offset="1" stop-color="#FEDC99"/>
</linearGradient>
<radialGradient id="paint1_radial_296_16409" cx="0" cy="0" r="1" gradientUnits="userSpaceOnUse" gradientTransform="translate(213.92 306.014) rotate(85.147) scale(27.9271 84.9441)">
<stop offset="0.673" stop-color="#454140" stop-opacity="0"/>
<stop offset="1" stop-color="#454140"/>
</radialGradient>
<linearGradient id="paint2_linear_296_16409" x1="234.452" y1="304.373" x2="218.585" y2="335.583" gradientUnits="userSpaceOnUse">
<stop stop-color="#646464"/>
<stop offset="0.995" stop-color="#262626"/>
</linearGradient>
<radialGradient id="paint3_radial_296_16409" cx="0" cy="0" r="1" gradientUnits="userSpaceOnUse" gradientTransform="translate(204.134 289.412) rotate(18.68) scale(75.316 47.1608)">
<stop stop-color="#81D4FA"/>
<stop offset="0.36" stop-color="#5EB3E7"/>
<stop offset="0.775" stop-color="#3C92D3"/>
<stop offset="1" stop-color="#2F85CC"/>
</radialGradient>
<linearGradient id="paint4_linear_296_16409" x1="249.39" y1="307.463" x2="185.935" y2="304.08" gradientUnits="userSpaceOnUse">
<stop stop-color="#FFD29C"/>
<stop offset="0.5" stop-color="#F9DDBD"/>
</linearGradient>
<linearGradient id="paint5_linear_296_16409" x1="252.752" y1="284.175" x2="250.424" y2="322.396" gradientUnits="userSpaceOnUse">
<stop stop-color="#FFD29C"/>
<stop offset="0.5" stop-color="#F9DDBD"/>
</linearGradient>
<radialGradient id="paint6_radial_296_16409" cx="0" cy="0" r="1" gradientUnits="userSpaceOnUse" gradientTransform="translate(228.647 306.757) rotate(2.48672) scale(83.7057 20.8136)">
<stop offset="0.37" stop-color="#F78C1F"/>
<stop offset="0.681" stop-color="#F37F21"/>
<stop offset="0.998" stop-color="#ED6D23"/>
</radialGradient>
<linearGradient id="paint7_linear_296_16409" x1="244.323" y1="306.639" x2="175.483" y2="306.639" gradientUnits="userSpaceOnUse">
<stop stop-color="#FFD29C"/>
<stop offset="0.5" stop-color="#F9DDBD"/>
</linearGradient>
<linearGradient id="paint8_linear_296_16409" x1="447.536" y1="306.675" x2="268.795" y2="306.675" gradientUnits="userSpaceOnUse">
<stop stop-color="#FFD29C"/>
<stop offset="0.5" stop-color="#F9DDBD"/>
</linearGradient>
<linearGradient id="paint9_linear_296_16409" x1="625.633" y1="306.619" x2="316.666" y2="306.619" gradientUnits="userSpaceOnUse">
<stop stop-color="#FFD29C"/>
<stop offset="0.5" stop-color="#F9DDBD"/>
</linearGradient>
<clipPath id="clip0_296_16409">
<rect width="62" height="62" fill="white" transform="translate(115 239.547)"/>
</clipPath>
<clipPath id="clip1_296_16409">
<rect width="29" height="29" fill="white" transform="translate(361 111.547)"/>
</clipPath>
</defs>
</svg>
