<svg width="375" height="714" viewBox="0 0 375 714" fill="none" xmlns="http://www.w3.org/2000/svg">
<path d="M0 569L147.5 460.5L203.5 501.5L375 310L460 332.5L573 122L637 33L668 47.5L732.5 132L864.5 338V579V714H573H375H0V569Z" fill="url(#paint0_linear_257_14700)"/>
<path d="M128.596 462.87C128.622 462.892 131.237 465.214 138.15 465.039C142.258 464.938 146.468 463.928 149.274 463.107L149.436 463.71C146.59 464.546 142.329 465.562 138.165 465.666C130.962 465.846 128.279 463.433 128.171 463.333C128.127 463.292 128.097 463.239 128.083 463.187C128.055 463.085 128.078 462.974 128.153 462.893C128.271 462.76 128.467 462.752 128.596 462.87Z" fill="#1C75BC"/>
<path d="M132.363 459.537C132.41 459.517 132.463 459.516 132.511 459.535L136.781 461.148L142.667 460.723C142.758 460.714 142.841 460.774 142.866 460.862L143.179 461.887C143.236 462.077 143.213 462.283 143.111 462.454C143.01 462.626 142.843 462.748 142.65 462.788L137.004 464.016L136.979 464.02C136.716 464.078 136.445 464.059 136.194 463.967L131.494 462.224C131.46 462.21 131.427 462.186 131.404 462.154C131.397 462.145 131.388 462.132 131.384 462.121C131.364 462.073 131.36 462.022 131.38 461.969L132.256 459.649C132.278 459.6 132.317 459.561 132.363 459.537Z" fill="#EDBD82"/>
<path d="M136.781 461.148L135.517 464.029L132.567 462.617C131.644 462.25 131.241 461.141 131.556 460.358C131.872 459.574 133.122 459.12 133.504 459.271L136.781 461.148Z" fill="#DB5200"/>
<path d="M135.66 451.924C137.092 451.085 139.355 451.04 140.682 452.036C142.17 453.151 142.432 454.774 141.887 456.366C141.69 456.941 141.395 457.468 141.101 457.8C141.067 457.84 140.804 458.12 140.743 458.223C140.475 458.589 141.039 459.39 140.901 459.875C140.798 460.241 139.992 460.087 139.904 460.118C139.475 460.273 139.091 461.582 137.634 461.142C137.26 461.029 136.499 460.276 136.499 460.276C135.816 460.032 134.971 461.433 134.971 461.433L132.512 459.021C132.512 459.021 133.992 458.631 133.932 456.631C133.887 455.1 134.738 452.461 135.66 451.924Z" fill="#F9DDBD"/>
<path d="M139.217 460.812C138.943 460.689 138.695 460.464 138.557 460.183C138.408 459.876 138.679 459.764 138.896 460.026C139.028 460.185 139.306 460.373 139.544 460.446L139.217 460.812Z" fill="#444444"/>
<path d="M139.103 457.631C139.268 457.343 139.554 457.197 139.743 457.305C139.932 457.413 139.952 457.734 139.787 458.022C139.622 458.31 139.335 458.456 139.146 458.348C138.957 458.24 138.938 457.919 139.103 457.631Z" fill="#312D2D"/>
<path d="M140.054 457.238C140.298 457.557 140.52 457.404 140.537 457.164C140.547 456.987 140.436 456.749 140.022 456.555C139.631 456.372 139.349 456.463 139.168 456.514C138.987 456.564 138.912 456.692 138.985 456.759C139.079 456.86 139.75 456.851 140.054 457.238Z" fill="#454140"/>
<path d="M133.335 455.244C133.322 455.187 133.306 455.126 133.295 455.051C133.114 454.172 133.894 453.376 134.482 452.838C134.557 452.768 134.639 452.703 134.72 452.634C134.813 452.556 134.898 452.474 134.993 452.399C135.198 452.244 135.41 452.103 135.639 451.993C135.799 451.914 135.97 451.851 136.143 451.796C136.315 451.747 136.494 451.708 136.672 451.679C136.818 451.654 136.965 451.643 137.112 451.632L137.238 451.626C137.356 451.622 137.473 451.623 137.587 451.626C137.623 451.629 137.657 451.629 137.693 451.631C137.839 451.64 137.987 451.657 138.132 451.682C138.164 451.687 138.194 451.694 138.223 451.701C138.34 451.722 138.459 451.751 138.572 451.78C138.596 451.786 138.618 451.79 138.642 451.796C138.66 451.802 138.681 451.811 138.706 451.817C138.793 451.844 138.881 451.872 138.968 451.905L139.087 451.948C139.211 451.998 139.334 452.053 139.453 452.116C140.301 452.558 140.994 453.298 141.347 454.186C141.415 454.359 141.471 454.54 141.505 454.724C141.524 454.816 141.535 454.91 141.546 455.004C141.57 455.281 141.546 455.565 141.463 455.82C141.433 455.905 141.398 455.989 141.358 456.067C141.318 456.144 141.264 456.223 141.208 456.298C140.9 456.103 140.732 455.742 140.383 455.558C140.045 455.38 139.672 455.248 139.365 455.028C139.261 454.953 139.168 454.872 139.088 454.776C139.005 454.677 138.933 454.565 138.86 454.459C138.824 454.403 138.787 454.348 138.75 454.297C138.717 454.278 138.694 454.266 138.694 454.266C138.649 454.265 138.609 454.276 138.571 454.284C138.286 454.377 138.134 454.789 137.944 455.229C137.921 455.284 137.893 455.339 137.868 455.396C137.83 455.477 137.79 455.555 137.751 455.632C137.711 455.71 137.666 455.787 137.616 455.857C137.579 455.913 137.538 455.963 137.497 456.012C137.368 456.16 137.218 456.285 137.03 456.365C136.894 456.422 136.753 456.469 136.609 456.505C136.609 456.505 136.696 456.306 136.732 456.066C136.741 456.025 136.745 455.984 136.746 455.939C136.751 455.873 136.752 455.809 136.745 455.747C136.738 455.684 136.724 455.626 136.702 455.57C136.686 455.528 136.669 455.492 136.644 455.457C136.587 455.373 136.497 455.304 136.366 455.264C136.34 455.255 136.318 455.251 136.291 455.247C136.251 455.236 136.209 455.231 136.168 455.231C136.148 455.231 136.13 455.225 136.112 455.228C136.093 455.228 136.076 455.231 136.058 455.234C136.041 455.237 136.022 455.237 136.008 455.237C135.99 455.24 135.972 455.249 135.955 455.252C135.94 455.258 135.923 455.261 135.911 455.264C135.897 455.271 135.878 455.279 135.866 455.288C135.851 455.294 135.836 455.3 135.824 455.31L135.745 455.367C135.729 455.379 135.719 455.391 135.705 455.406C135.695 455.418 135.683 455.428 135.672 455.44C135.659 455.455 135.648 455.473 135.638 455.485C135.627 455.497 135.62 455.507 135.612 455.523C135.601 455.541 135.59 455.559 135.581 455.58C135.573 455.595 135.566 455.605 135.558 455.621C135.547 455.639 135.541 455.657 135.533 455.678C135.525 455.694 135.52 455.707 135.514 455.726C135.505 455.747 135.502 455.769 135.493 455.79C135.491 455.806 135.483 455.821 135.478 455.835L135.459 455.907C135.456 455.923 135.451 455.937 135.449 455.953C135.442 455.977 135.441 456.002 135.435 456.026L135.427 456.075C135.426 456.1 135.422 456.128 135.419 456.149C135.416 456.166 135.414 456.182 135.414 456.202C135.412 456.232 135.41 456.263 135.41 456.296C135.409 456.307 135.41 456.316 135.411 456.33C135.409 456.374 135.411 456.416 135.413 456.458C135.439 457.166 135.868 457.045 135.682 457.22C135.655 457.288 135.561 457.425 135.469 457.556L135.465 457.563C135.35 457.73 135.231 457.885 135.231 457.885L135.229 457.882L135.088 458.073C134.881 458.298 134.562 458.464 134.112 458.398C133.89 458.367 133.654 458.177 133.522 458.056C133.352 458.109 133.036 458.166 132.742 458.024C132.615 457.962 132.506 457.873 132.418 457.754C132.328 457.631 132.261 457.481 132.216 457.301L132.131 456.967C132.131 456.967 132.533 457.218 132.921 456.909C132.172 456.68 132.211 455.823 132.214 455.802L132.247 455.477L132.514 455.649C132.612 455.717 132.839 455.802 132.951 455.764C133.356 455.636 133.332 455.28 133.335 455.244Z" fill="#312D2D"/>
<path d="M133.335 455.244C133.322 455.187 133.306 455.126 133.295 455.051C133.114 454.172 133.894 453.376 134.482 452.838C134.557 452.768 134.639 452.703 134.72 452.634C134.813 452.556 134.898 452.474 134.993 452.399C135.198 452.244 135.41 452.103 135.639 451.993C135.799 451.914 135.97 451.851 136.143 451.796C136.315 451.747 136.494 451.708 136.672 451.679C136.818 451.654 136.965 451.643 137.112 451.632L137.238 451.626C137.356 451.622 137.473 451.623 137.587 451.626C137.623 451.629 137.657 451.629 137.693 451.631C137.839 451.64 137.987 451.657 138.132 451.682C138.164 451.687 138.194 451.694 138.223 451.701C138.34 451.722 138.459 451.751 138.572 451.78C138.596 451.786 138.618 451.79 138.642 451.796C138.66 451.802 138.681 451.811 138.706 451.817C138.793 451.844 138.881 451.872 138.968 451.905L139.087 451.948C139.211 451.998 139.334 452.053 139.453 452.116C140.301 452.558 140.994 453.298 141.347 454.186C141.415 454.359 141.471 454.54 141.505 454.724C141.524 454.816 141.535 454.91 141.546 455.004C141.57 455.281 141.546 455.565 141.463 455.82C141.433 455.905 141.398 455.989 141.358 456.067C141.318 456.144 141.264 456.223 141.208 456.298C140.9 456.103 140.732 455.742 140.383 455.558C140.045 455.38 139.672 455.248 139.365 455.028C139.261 454.953 139.168 454.872 139.088 454.776C139.005 454.677 138.933 454.565 138.86 454.459C138.824 454.403 138.787 454.348 138.75 454.297C138.717 454.278 138.694 454.266 138.694 454.266C138.649 454.265 138.609 454.276 138.571 454.284C138.286 454.377 138.134 454.789 137.944 455.229C137.921 455.284 137.893 455.339 137.868 455.396C137.83 455.477 137.79 455.555 137.751 455.632C137.711 455.71 137.666 455.787 137.616 455.857C137.579 455.913 137.538 455.963 137.497 456.012C137.368 456.16 137.218 456.285 137.03 456.365C136.894 456.422 136.753 456.469 136.609 456.505C136.609 456.505 136.696 456.306 136.732 456.066C136.741 456.025 136.745 455.984 136.746 455.939C136.751 455.873 136.752 455.809 136.745 455.747C136.738 455.684 136.724 455.626 136.702 455.57C136.686 455.528 136.669 455.492 136.644 455.457C136.587 455.373 136.497 455.304 136.366 455.264C136.34 455.255 136.318 455.251 136.291 455.247C136.251 455.236 136.209 455.231 136.168 455.231C136.148 455.231 136.13 455.225 136.112 455.228C136.093 455.228 136.076 455.231 136.058 455.234C136.041 455.237 136.022 455.237 136.008 455.237C135.99 455.24 135.972 455.249 135.955 455.252C135.94 455.258 135.923 455.261 135.911 455.264C135.897 455.271 135.878 455.279 135.866 455.288C135.851 455.294 135.836 455.3 135.824 455.31L135.745 455.367C135.729 455.379 135.719 455.391 135.705 455.406C135.695 455.418 135.683 455.428 135.672 455.44C135.659 455.455 135.648 455.473 135.638 455.485C135.627 455.497 135.62 455.507 135.612 455.523C135.601 455.541 135.59 455.559 135.581 455.58C135.573 455.595 135.566 455.605 135.558 455.621C135.547 455.639 135.541 455.657 135.533 455.678C135.525 455.694 135.52 455.707 135.514 455.726C135.505 455.747 135.502 455.769 135.493 455.79C135.491 455.806 135.483 455.821 135.478 455.835L135.459 455.907C135.456 455.923 135.451 455.937 135.449 455.953C135.442 455.977 135.441 456.002 135.435 456.026L135.427 456.075C135.426 456.1 135.422 456.128 135.419 456.149C135.416 456.166 135.414 456.182 135.414 456.202C135.412 456.232 135.41 456.263 135.41 456.296C135.409 456.307 135.41 456.316 135.411 456.33C135.409 456.374 135.411 456.416 135.413 456.458C135.439 457.166 135.868 457.045 135.682 457.22C135.655 457.288 135.561 457.425 135.469 457.556L135.465 457.563C135.35 457.73 135.231 457.885 135.231 457.885L135.229 457.882L135.088 458.073C134.881 458.298 134.562 458.464 134.112 458.398C133.89 458.367 133.654 458.177 133.522 458.056C133.352 458.109 133.036 458.166 132.742 458.024C132.615 457.962 132.506 457.873 132.418 457.754C132.328 457.631 132.261 457.481 132.216 457.301L132.131 456.967C132.131 456.967 132.533 457.218 132.921 456.909C132.172 456.68 132.211 455.823 132.214 455.802L132.247 455.477L132.514 455.649C132.612 455.717 132.839 455.802 132.951 455.764C133.356 455.636 133.332 455.28 133.335 455.244Z" fill="url(#paint1_radial_257_14700)"/>
<path d="M136.034 458.293C135.838 458.849 136.495 460.192 136.499 460.276C136.516 460.418 135.9 460.193 135.816 460.032C135.732 459.871 134.876 458.95 134.552 457.396C134.408 456.698 134.147 454.88 134.147 454.88L135.287 454.678C135.287 454.678 134.78 457.568 135.493 457.76C136.206 457.953 136.961 455.23 136.961 455.23L138.37 456.344C138.37 456.344 136.154 457.948 136.034 458.293Z" fill="url(#paint2_linear_257_14700)"/>
<path d="M140.464 451.232C140.909 451.534 142.242 452.735 142.528 454.239C142.649 454.871 142.693 455.537 142.574 456.166C142.507 456.511 142.346 457.108 141.992 457.325C141.748 457.475 141.518 457.392 141.34 457.295C141.005 457.116 140.21 456.475 139.946 456.373C139.34 456.141 138.746 456.46 138.601 456.513C138.087 456.697 137.622 456.763 137.084 456.03C136.763 455.593 136.737 455.321 136.386 455.153C136.145 455.035 135.74 454.965 135.049 455.574C134.284 456.252 133.593 456.13 133.325 455.673C132.955 455.044 132.721 452.083 135.253 450.789C136.902 449.956 138.94 450.192 140.464 451.232Z" fill="url(#paint3_radial_257_14700)"/>
<path d="M132.27 473.721C132.839 472.94 132.711 471.771 132.049 471.08L125.674 464.432L122.557 467.652L128.506 472.875L124.89 478.935L127.272 480.556C127.271 480.561 132.066 473.997 132.27 473.721Z" fill="url(#paint4_linear_257_14700)"/>
<path d="M125.43 478.055L127.932 479.766L126.124 481.946L123.94 480.457L125.43 478.055Z" fill="#E0E0E0"/>
<path d="M122.165 464.158C123.189 463.1 124.877 463.071 125.935 464.095L125.938 464.093L130.255 468.5L126.721 472.152L122.227 467.928C121.169 466.909 121.143 465.219 122.165 464.158Z" fill="#646464"/>
<path d="M123.58 483.104C123.367 483.091 123.203 482.906 123.218 482.697L123.28 481.76C123.322 481.124 124.021 480.441 124.021 480.441L126.669 480.612L128.452 481.423C128.695 481.535 128.899 481.718 129.038 481.948C129.177 482.178 129.243 482.444 129.229 482.712L129.204 483.132C129.192 483.315 129.031 483.457 128.843 483.445L123.58 483.104Z" fill="#4568AD"/>
<path d="M122.356 475.446C122.702 474.645 125.996 467 125.996 467L121.801 465.423L119.269 473.288L112.241 476.786L113.365 479.436L121.038 476.632C121.041 476.635 122.01 476.247 122.356 475.446Z" fill="url(#paint5_linear_257_14700)"/>
<path d="M113.173 476.333L114.353 479.127L111.005 480.153L110.62 477.545L113.173 476.333Z" fill="#E0E0E0"/>
<path d="M124.989 463.066C125.317 463.189 125.617 463.375 125.873 463.614C126.128 463.853 126.334 464.141 126.479 464.459C126.624 464.778 126.704 465.122 126.716 465.472C126.727 465.822 126.67 466.17 126.547 466.498L124.224 472.214L119.467 470.426L121.555 464.62C122.072 463.248 123.611 462.548 124.989 463.066Z" fill="#7C7C7C"/>
<path d="M108.352 477.807C108.312 477.575 108.463 477.352 108.693 477.309L109.712 477.127C110.404 477.002 111.32 477.569 111.32 477.569L111.727 481.076L111.449 482.583C111.332 483.182 110.867 483.649 110.275 483.76L109.815 483.846C109.614 483.882 109.42 483.749 109.384 483.543L108.352 477.807Z" fill="#4568AD"/>
<path d="M134.79 459.861C135.946 461.224 135.103 462.779 133.933 463.638C131.445 465.466 129.773 466.143 127.583 468.119C127.434 468.253 125.979 468.203 124.428 467.134C122.269 465.645 122.062 463.715 122.2 463.614C123.591 462.592 127.484 460.206 131.103 459.107C133.147 458.482 133.672 458.551 134.79 459.861Z" fill="url(#paint6_radial_257_14700)"/>
<path d="M145.113 461.119C145.439 461.088 145.712 461.222 145.743 461.548C145.774 461.873 145.505 462.042 145.18 462.073L142.773 462.403C142.756 462.405 142.739 462.403 142.72 462.403C142.652 462.027 142.652 461.605 142.669 461.22L145.113 461.119Z" fill="#DBA689"/>
<path d="M142.254 461.103L142.36 460.779L144.476 459.883C144.691 459.793 144.913 459.746 145.148 459.742L146.283 459.732C146.442 459.73 146.601 459.751 146.754 459.793C147.047 459.868 147.577 460.016 147.836 460.126C147.978 460.186 148.121 460.275 148.196 460.496C148.253 460.667 148.23 460.839 148.137 460.99C148.037 461.15 147.859 461.257 147.648 461.286C147.397 461.32 147.069 461.184 146.839 461.062C146.798 461.039 146.751 461.034 146.708 461.042L145.57 461.253C145.493 461.266 145.425 461.292 145.36 461.33C145.265 461.385 145.16 461.433 145.04 461.487C144.758 461.617 144.407 461.773 143.905 462.19C143.265 462.724 142.669 462.775 142.641 462.776L142.474 462.734L142.45 462.562C142.448 462.554 142.517 462.416 142.579 462.395C142.579 462.395 142.599 462.39 142.626 462.38C142.593 462.104 142.533 461.523 142.537 461.08C142.407 461.093 142.254 461.103 142.254 461.103Z" fill="#EDBD82"/>
<path d="M131.002 461.99L133.374 461.322C133.424 461.31 133.477 461.316 133.522 461.339C133.545 461.351 133.565 461.368 133.58 461.388C133.596 461.408 133.607 461.432 133.613 461.457L134.812 465.704L138.238 468.688C138.557 468.938 138.61 469.418 138.353 469.853C138.116 470.255 137.615 470.575 137.075 470.341L132.833 467.778C132.813 467.763 132.793 467.749 132.779 467.73C132.564 467.563 132.401 467.339 132.309 467.083C132.295 467.064 132.281 467.045 132.277 467.02L130.867 462.234C130.85 462.184 130.858 462.13 130.884 462.086C130.91 462.04 130.952 462.006 131.002 461.99Z" fill="url(#paint7_linear_257_14700)"/>
<path d="M134.727 464.706L130.992 465.687L130.079 462.223C129.959 461.765 130.026 461.279 130.264 460.87C130.502 460.462 130.893 460.165 131.35 460.044L131.638 459.968C132.096 459.848 132.582 459.915 132.99 460.153C133.399 460.391 133.696 460.782 133.817 461.239L134.727 464.706Z" fill="#ED6D23"/>
<path d="M139.92 468.479C140.114 468.471 140.306 468.511 140.48 468.595L141.261 468.986C141.377 469.045 141.483 469.123 141.579 469.221C141.786 469.437 142.057 469.733 142.181 469.922C142.284 470.074 142.305 470.209 142.269 470.39C142.228 470.585 142.116 470.75 141.957 470.842C141.822 470.922 141.665 470.94 141.519 470.893C141.349 470.839 141.18 470.662 141.022 470.367C141.013 470.349 141.001 470.339 140.99 470.337L140.115 470.128C140.066 470.115 140.019 470.116 139.967 470.125C139.875 470.144 139.779 470.152 139.669 470.16C139.426 470.179 139.118 470.202 138.598 470.404C137.903 470.678 137.57 470.54 137.215 470.399L137.059 470.319L137.347 470.21C137.351 470.202 137.361 470.151 137.398 470.056C137.462 470.077 137.537 470.08 137.597 470.089C137.602 470.09 137.611 470.088 137.616 470.089C137.727 469.785 137.896 469.336 138.053 468.989L138.05 468.991C138.05 468.991 138 468.95 137.982 468.92C137.962 468.886 137.936 468.857 137.909 468.833C137.942 468.766 137.974 468.703 138.005 468.647L138.059 468.549L139.92 468.479Z" fill="url(#paint8_linear_257_14700)"/>
<path d="M139.152 469.378L140.478 470.36C140.619 470.445 140.699 470.561 140.735 470.689C140.771 470.817 140.748 470.951 140.674 471.073C140.528 471.316 140.237 471.355 139.958 471.173L138.554 470.344C138.554 470.344 138.552 470.341 138.547 470.34C138.537 470.333 138.516 470.319 138.512 470.313C138.46 470.269 138.434 470.186 138.461 470.132C138.512 470.036 138.53 470.014 138.53 470.014L138.537 470.018L138.883 469.512L138.88 469.509C138.947 469.422 138.907 469.46 138.962 469.396C139.007 469.339 139.089 469.332 139.152 469.378Z" fill="url(#paint9_linear_257_14700)"/>
<path d="M123.19 463.076C122.982 464.308 124.405 465.375 125.365 466.015C126.393 466.703 128.781 467.443 129.018 467.244C129.241 467.061 129.622 466.801 129.569 466.617C129.501 466.386 129.385 466.161 128.836 465.969C126.762 465.235 125.537 465.162 124.428 463.033C124.222 462.642 124.44 462.332 124.556 462.14C124.701 461.902 123.287 462.496 123.19 463.076Z" fill="#1B75BC"/>
<path d="M167.893 457.153L169.707 460.311L168.334 460.858L168.309 467.458L166.185 467.998L165.212 460.4C165.084 459.445 165.555 458.504 166.382 458.027L167.893 457.153Z" fill="#C68D7B"/>
<path d="M173.857 450.701L171.201 452.553L173.108 453.857C173.44 454.084 173.848 454.17 174.242 454.096C174.637 454.022 174.986 453.794 175.213 453.462C175.44 453.131 175.525 452.723 175.451 452.328C175.377 451.933 175.149 451.584 174.818 451.358L173.857 450.701Z" fill="#635994"/>
<path d="M170.453 451.528C170.392 451.486 170.316 451.47 170.243 451.484C170.169 451.498 170.105 451.54 170.062 451.602C170.02 451.663 170.004 451.739 170.018 451.812C170.032 451.886 170.074 451.951 170.136 451.993L171.266 452.765C171.315 452.813 171.379 452.841 171.446 452.845C171.514 452.85 171.581 452.83 171.635 452.79L174.07 450.98C174.102 450.958 174.129 450.93 174.15 450.898C174.171 450.866 174.185 450.83 174.191 450.792C174.198 450.754 174.197 450.715 174.188 450.677C174.179 450.64 174.162 450.605 174.139 450.574C174.116 450.543 174.088 450.517 174.054 450.497C174.021 450.478 173.984 450.465 173.946 450.461C173.908 450.456 173.869 450.459 173.832 450.469C173.795 450.48 173.761 450.498 173.731 450.522L171.455 452.213L170.453 451.528Z" fill="#433B6B"/>
<path d="M152.591 448.367C152.527 448.213 152.087 447.221 151.314 447.102C150.771 447.02 150.664 447.43 150.664 447.43C150.664 447.43 150.249 447.049 149.887 447.381C149.396 447.817 149.166 448.549 149.166 448.549C148.991 449.143 149.19 449.897 149.487 450.197C149.74 450.447 150.21 450.692 150.563 450.797L151.781 451.007L151.778 451.02C157.046 452.512 162.156 450.629 165.789 448.013L164.166 445.762C160.965 448.068 156.75 449.52 152.591 448.367ZM162.18 456.729L164.455 459.843L162.652 460.763L161.43 470.202L160.291 469.829L159.585 468.941L159.565 460.506C159.563 459.897 159.7 459.296 159.964 458.747C160.229 458.199 160.614 457.718 161.092 457.341L161.101 457.328L162.18 456.729Z" fill="#C68D7B"/>
<path d="M150.413 448.596C150.417 448.572 150.415 448.548 150.408 448.525C150.401 448.501 150.39 448.48 150.374 448.461C150.359 448.443 150.34 448.427 150.318 448.417C150.296 448.406 150.273 448.4 150.248 448.399C150.224 448.398 150.2 448.402 150.177 448.411C150.155 448.42 150.134 448.433 150.117 448.451C150.1 448.468 150.087 448.488 150.079 448.511C150.07 448.534 150.066 448.558 150.068 448.582C150.056 448.744 150.1 448.905 150.191 449.039C150.268 449.138 150.37 449.215 150.486 449.26C150.602 449.306 150.729 449.319 150.852 449.298C150.946 449.283 151.067 449.235 151.128 449.122C151.16 449.229 151.202 449.346 151.254 449.478C151.263 449.5 151.276 449.519 151.292 449.535C151.308 449.551 151.327 449.564 151.348 449.573C151.37 449.582 151.392 449.586 151.415 449.586C151.438 449.586 151.461 449.582 151.482 449.573C151.503 449.565 151.522 449.552 151.539 449.536C151.555 449.519 151.568 449.5 151.576 449.479C151.585 449.458 151.59 449.435 151.59 449.412C151.59 449.389 151.585 449.367 151.577 449.346C151.404 448.93 151.378 448.682 151.387 448.55L151.387 448.536C151.406 448.483 151.424 448.428 151.44 448.374L151.444 448.363L151.446 448.36C151.456 448.323 151.454 448.283 151.439 448.247C151.424 448.211 151.397 448.181 151.363 448.162C151.222 448.086 151.136 448.189 151.09 448.296C151.069 448.347 151.055 448.401 151.048 448.455C150.984 448.623 150.91 448.787 150.828 448.947C150.815 448.953 150.802 448.957 150.789 448.959C150.733 448.968 150.675 448.963 150.622 448.944C150.562 448.925 150.51 448.888 150.472 448.838C150.426 448.766 150.405 448.681 150.413 448.596Z" fill="#A9715F"/>
<path d="M161.061 444.172L163.265 445.891L161.536 448.165L159.302 446.405L161.061 444.172Z" fill="#B87A66"/>
<path d="M164.882 445.954C164.416 445.732 163.711 445.52 162.952 445.754C161.045 446.342 160.786 447.652 160.786 447.652C160.786 447.652 160.36 449.291 162.409 450.982C162.422 450.991 163.922 452.75 164.689 455.244L170.677 452.388C168.766 448.378 165.504 446.089 164.882 445.954Z" fill="#FF6723"/>
<path d="M166.881 456.414L169.103 461.042L172.065 459.844C172.789 459.547 173.153 458.734 172.865 457.997L171.261 453.791L166.881 456.414Z" fill="#636363"/>
<path d="M164.426 460.258L162.004 456.826L164.684 455.233L164.454 454.542L170.31 451.654L170.677 452.388C170.677 452.388 171.27 453.411 171.416 454.554C171.562 455.696 170.134 457.191 170.134 457.191L166.727 460.479C166.57 460.634 166.381 460.753 166.173 460.826C165.965 460.9 165.744 460.927 165.525 460.906C165.305 460.885 165.093 460.816 164.903 460.704C164.714 460.592 164.551 460.44 164.426 460.258Z" fill="#9B9B9B"/>
<path d="M159.002 447.494C159.918 447.058 161.151 445.932 161.051 444.667L160.743 443.027L160.467 441.313C159.95 440.207 158.612 439.735 157.505 440.253L156.198 440.865C155.091 441.383 154.62 442.721 155.137 443.828L155.53 444.666C155.511 445.06 155.465 445.294 155.434 445.455C155.398 445.643 155.381 445.734 155.441 445.868C155.558 446.121 155.931 446.188 156.197 446.085C156.831 447.374 157.474 448.21 159.004 447.493L159.002 447.494Z" fill="#C68D7B"/>
<path d="M156.74 442.472C158.447 441.67 158.939 442.701 158.939 442.701C158.939 442.701 159.555 442.196 160.547 444.303C161.06 445.387 161.779 444.759 162.148 444.587C162.78 444.285 162.364 443.17 161.52 443.558C161.52 443.558 162.569 443.04 161.189 440.088C160.176 437.928 158.103 438.615 156.938 439.614C156.098 440.334 155.988 439.93 154.85 440.465C154.472 440.65 153.882 441.174 154.283 442.027C154.654 442.841 155.287 443.158 156.74 442.472Z" fill="#593B39"/>
<path d="M159.869 442.739C160.059 442.869 160.19 443.069 160.233 443.295C160.275 443.522 160.226 443.756 160.096 443.946C159.966 444.136 159.766 444.267 159.539 444.309C159.313 444.352 159.079 444.303 158.889 444.173C158.699 444.043 158.568 443.842 158.525 443.616C158.483 443.389 158.532 443.155 158.662 442.965C158.792 442.775 158.992 442.644 159.219 442.602C159.445 442.559 159.679 442.609 159.869 442.739Z" fill="#BB806E"/>
<path d="M156.192 444.742C156.108 444.781 156.019 444.749 155.969 444.657C155.969 444.657 155.962 444.646 155.961 444.64C155.787 444.272 156.006 443.924 156.308 443.765C156.61 443.605 157.028 443.669 157.199 444.035L157.206 444.053C157.245 444.137 157.219 444.226 157.149 444.265L156.191 444.743L156.192 444.742Z" fill="white"/>
<path d="M156.08 444.799C156.036 444.749 155.986 444.699 155.959 444.645C155.83 444.382 155.921 444.076 156.128 443.969C156.337 443.86 156.604 444.004 156.732 444.266C156.767 444.328 156.779 444.394 156.779 444.452L156.079 444.798L156.08 444.799Z" fill="#7D4533"/>
<path d="M156.202 444.739C156.149 444.703 156.106 444.654 156.071 444.592C155.998 444.445 156.044 444.266 156.158 444.211C156.273 444.155 156.436 444.227 156.5 444.387C156.528 444.444 156.541 444.508 156.536 444.572L156.202 444.739Z" fill="#7D4533"/>
<path d="M156.146 444.34C156.123 444.293 156.073 444.27 156.033 444.288C155.994 444.306 155.98 444.36 156.002 444.407C156.026 444.454 156.076 444.477 156.115 444.459C156.154 444.442 156.168 444.388 156.146 444.34Z" fill="white"/>
<path d="M156.8 446.451C156.795 446.412 156.806 446.373 156.831 446.342C156.855 446.311 156.89 446.291 156.929 446.287C157.063 446.271 157.184 446.204 157.268 446.099C157.351 445.993 157.39 445.86 157.374 445.726C157.37 445.687 157.38 445.647 157.405 445.616C157.429 445.585 157.465 445.565 157.504 445.56C157.543 445.555 157.583 445.566 157.614 445.59C157.645 445.614 157.665 445.65 157.67 445.689C157.695 445.901 157.635 446.114 157.503 446.281C157.371 446.449 157.178 446.557 156.967 446.583C156.947 446.585 156.927 446.584 156.908 446.579C156.89 446.574 156.872 446.565 156.856 446.553C156.841 446.541 156.828 446.526 156.818 446.509C156.809 446.492 156.802 446.473 156.8 446.453L156.8 446.451Z" fill="#990838"/>
<path d="M158.058 437.581L155.83 438.297C154.357 438.757 153.543 440.343 154.025 441.812L154.439 443.099C154.541 443.401 154.862 443.581 155.164 443.479L161.611 441.42C161.913 441.317 162.093 440.996 161.991 440.695L161.573 439.386C161.104 437.926 159.518 437.111 158.058 437.581Z" fill="#00A6ED"/>
<path d="M158.773 440.29L156.816 440.921C156.696 440.959 156.595 441.044 156.537 441.156C156.478 441.267 156.467 441.398 156.504 441.519C156.542 441.639 156.627 441.739 156.739 441.798C156.85 441.856 156.981 441.868 157.102 441.831L159.059 441.199C159.307 441.118 159.452 440.85 159.371 440.602C159.332 440.482 159.248 440.381 159.136 440.323C159.024 440.264 158.894 440.252 158.773 440.29Z" fill="#0074BA"/>
<path d="M150.514 449.065C150.738 449.16 151.005 449.053 151.1 448.829L151.486 447.953L150.673 447.59L150.287 448.465C150.182 448.703 150.276 448.96 150.514 449.065ZM160.931 449.276L159.517 453.291L159.513 453.326C159.412 453.643 159.135 453.879 158.807 453.963L154.584 454.802C154.352 454.74 154.13 454.647 153.924 454.525C153.502 454.294 153.196 454.065 153.196 454.065C153.021 453.926 152.755 453.976 152.616 454.151C152.477 454.326 152.526 454.592 152.702 454.731C152.715 454.74 152.903 454.888 153.175 455.055C153.215 455.082 153.201 455.131 153.157 455.139C152.514 455.259 151.723 455.259 151.4 455.251C151.3 455.249 151.202 455.287 151.13 455.356C151.057 455.426 151.014 455.521 151.011 455.622C151.01 455.723 151.048 455.82 151.117 455.893C151.187 455.965 151.282 456.008 151.382 456.011C151.405 456.007 151.82 456.02 152.342 455.991C152.399 455.992 152.466 455.979 152.523 455.98C152.546 455.976 152.55 455.998 152.563 456.007L152.545 456.033C151.81 456.149 151.204 456.159 151.182 456.163C151.132 456.164 151.083 456.174 151.037 456.194C150.992 456.214 150.951 456.243 150.917 456.28C150.883 456.316 150.857 456.359 150.84 456.406C150.823 456.453 150.816 456.503 150.819 456.552C150.82 456.602 150.83 456.651 150.85 456.697C150.87 456.742 150.899 456.783 150.936 456.817C150.972 456.851 151.015 456.877 151.062 456.894C151.109 456.911 151.159 456.918 151.208 456.915C151.208 456.915 151.845 456.887 152.461 456.806C152.483 456.802 152.487 456.824 152.465 456.828L151.556 457.056C151.461 457.084 151.381 457.148 151.333 457.234C151.284 457.32 151.272 457.422 151.298 457.517C151.349 457.726 151.578 457.843 151.773 457.784L152.762 457.495C152.784 457.491 152.801 457.522 152.77 457.539C152.482 457.651 152.277 457.723 152.277 457.723C152.073 457.796 151.987 458.007 152.059 458.211C152.132 458.416 152.343 458.502 152.548 458.429C153.405 458.108 154.821 457.59 154.994 457.534L159.327 456.675C159.969 456.545 160.565 456.247 161.056 455.813C161.546 455.379 161.913 454.823 162.119 454.201L163.532 450.186L160.931 449.276Z" fill="#C68D7B"/>
<path d="M163.499 447.383C164.384 447.699 164.854 448.677 164.539 449.561L163.684 451.969C163.492 452.533 162.873 452.844 162.306 452.63L160.043 451.816L161.1 448.407C161.394 447.469 162.39 446.972 163.323 447.301L163.499 447.383Z" fill="#FF8101"/>
<path d="M165.23 452.841C165.219 452.873 164.142 456.2 158.095 459.555C154.503 461.55 150.362 462.814 147.527 463.529L147.692 464.131C150.57 463.409 154.758 462.124 158.399 460.102C164.699 456.606 165.789 453.165 165.831 453.024C165.848 452.967 165.847 452.906 165.833 452.854C165.805 452.752 165.729 452.668 165.623 452.636C165.454 452.581 165.281 452.674 165.23 452.841Z" fill="#1C75BC"/>
<path d="M171.237 449.197C171.445 450.43 170.022 451.496 169.062 452.137C168.034 452.825 165.646 453.564 165.409 453.366C165.185 453.182 164.805 452.922 164.858 452.738C164.926 452.507 165.042 452.283 165.591 452.09C167.664 451.357 168.89 451.284 169.999 449.155C170.204 448.763 169.987 448.453 169.871 448.262C169.726 448.024 171.14 448.617 171.237 449.197Z" fill="#1B75BC"/>
<path d="M156.859 468.101C158.398 468.301 160.653 468.587 160.653 468.587L161.777 470.534L161.083 471.536C161.074 471.549 161.064 471.562 161.053 471.574L160.854 471.859C160.62 472.203 159.92 471.688 159.92 471.688L156.342 469.123C156.342 469.123 156.247 469.048 156.299 468.874C156.371 468.635 156.557 468.056 156.859 468.101Z" fill="#635994"/>
<path d="M163.144 469.666C164.187 468.515 165.708 466.826 165.708 466.826L167.948 467.013L168.375 468.154C168.38 468.17 168.385 468.185 168.389 468.201L168.51 468.527C168.659 468.916 167.837 469.196 167.837 469.196L163.689 470.674C163.689 470.674 163.574 470.708 163.46 470.567C163.305 470.371 162.935 469.888 163.144 469.666Z" fill="#635994"/>
<g clip-path="url(#clip0_257_14700)">
<g filter="url(#filter0_d_257_14700)">
<path d="M36.9999 347.717C37 345.39 36.2194 343.131 34.783 341.3C33.3466 339.47 31.3375 338.175 29.0775 337.621C28.9841 333.924 27.4503 330.41 24.8031 327.828C22.1559 325.245 18.6046 323.799 14.9065 323.797C12.7626 323.796 10.6465 324.283 8.71796 325.219C6.78943 326.156 5.09889 327.518 3.77397 329.203C2.69604 327.819 1.19131 326.829 -0.506734 326.387C-2.20477 325.946 -4.00116 326.077 -5.61714 326.76C-7.23311 327.444 -8.5783 328.641 -9.44396 330.167C-10.3096 331.694 -10.6473 333.463 -10.4047 335.201C-12.0679 334.9 -13.7768 334.968 -15.4108 335.4C-17.0448 335.832 -18.564 336.617 -19.8611 337.701C-21.1582 338.785 -22.2015 340.14 -22.9173 341.671C-23.6332 343.202 -24.0041 344.872 -24.0039 346.562C-24.0044 348.078 -23.7063 349.579 -23.1266 350.98C-22.5469 352.381 -21.697 353.654 -20.6254 354.726C-19.5537 355.798 -18.2814 356.649 -16.881 357.23C-15.4805 357.81 -13.9795 358.109 -12.4635 358.11H26.6299C29.382 358.104 32.0192 357.006 33.9626 355.058C35.9061 353.109 36.9971 350.469 36.9961 347.717H36.9999Z" fill="#FFE2DF"/>
</g>
</g>
<g clip-path="url(#clip1_257_14700)">
<g filter="url(#filter1_d_257_14700)">
<path d="M363 279.359C363 276.994 362.207 274.698 360.747 272.837C359.287 270.977 357.245 269.66 354.948 269.098C354.853 265.341 353.294 261.769 350.603 259.144C347.913 256.519 344.303 255.049 340.544 255.047C338.365 255.046 336.215 255.54 334.254 256.492C332.294 257.444 330.576 258.829 329.229 260.542C328.134 259.135 326.604 258.129 324.878 257.68C323.153 257.231 321.327 257.364 319.684 258.059C318.042 258.753 316.675 259.971 315.795 261.522C314.915 263.073 314.572 264.871 314.818 266.637C313.128 266.332 311.391 266.401 309.73 266.84C308.069 267.279 306.525 268.078 305.207 269.179C303.888 270.28 302.828 271.658 302.1 273.214C301.373 274.77 300.996 276.467 300.996 278.185C300.996 279.726 301.299 281.252 301.888 282.676C302.477 284.099 303.341 285.393 304.43 286.483C305.519 287.573 306.812 288.438 308.236 289.028C309.659 289.618 311.185 289.922 312.726 289.922H352.46C355.257 289.916 357.938 288.8 359.913 286.82C361.888 284.84 362.997 282.156 362.996 279.359H363Z" fill="#FFE2DF"/>
</g>
</g>
<g clip-path="url(#clip2_257_14700)">
<g filter="url(#filter2_d_257_14700)">
<path d="M54.9999 380.169C54.9999 379.063 54.6288 377.989 53.9459 377.118C53.263 376.248 52.3079 375.632 51.2335 375.369C51.1891 373.612 50.4599 371.941 49.2014 370.713C47.9428 369.486 46.2546 368.798 44.4964 368.797C43.4772 368.797 42.4712 369.028 41.5543 369.473C40.6375 369.918 39.8338 370.566 39.2039 371.367C38.6915 370.709 37.9761 370.239 37.1688 370.029C36.3616 369.819 35.5075 369.881 34.7393 370.206C33.971 370.531 33.3315 371.1 32.92 371.826C32.5084 372.551 32.3479 373.392 32.4632 374.219C31.6725 374.076 30.8601 374.108 30.0833 374.313C29.3065 374.519 28.5842 374.892 27.9676 375.407C27.3509 375.922 26.8549 376.567 26.5146 377.295C26.1743 378.023 25.998 378.816 25.998 379.62C25.9978 380.341 26.1395 381.054 26.4151 381.72C26.6907 382.386 27.0948 382.991 27.6042 383.501C28.1137 384.011 28.7186 384.415 29.3844 384.691C30.0501 384.967 30.7638 385.11 31.4845 385.11H50.0699C51.3782 385.107 52.632 384.585 53.5559 383.659C54.4799 382.732 54.9985 381.477 54.998 380.169H54.9999Z" fill="#FFE2DF"/>
</g>
</g>
<path d="M360.157 293.463C360.206 293.461 360.254 293.479 360.29 293.513L363.55 296.448L368.967 298.121C369.051 298.145 369.105 298.228 369.097 298.316L369.019 299.342C369.004 299.532 368.911 299.709 368.76 299.827C368.61 299.945 368.418 299.996 368.231 299.965L362.748 299.093L362.724 299.088C362.468 299.047 362.232 298.936 362.04 298.766L358.441 295.565C358.415 295.541 358.394 295.507 358.385 295.471C358.382 295.46 358.378 295.446 358.379 295.434C358.377 295.384 358.392 295.337 358.427 295.297L360.022 293.526C360.059 293.489 360.107 293.468 360.157 293.463Z" fill="#EDBD82"/>
<path d="M363.55 296.448L361.412 298.585L359.264 296.292C358.566 295.641 358.592 294.508 359.148 293.916C359.704 293.325 360.982 293.355 361.271 293.623L363.55 296.448Z" fill="#DB5200"/>
<path d="M354.167 287.366C354.332 285.78 355.584 284.002 357.11 283.541C358.82 283.023 360.227 283.743 361.149 285.071C361.483 285.551 361.723 286.08 361.813 286.496C361.824 286.545 361.892 286.908 361.937 287.013C362.068 287.43 363.009 287.448 363.305 287.831C363.53 288.12 362.953 288.656 362.927 288.742C362.803 289.162 363.598 290.205 362.428 291.082C362.128 291.307 361.112 291.468 361.112 291.468C360.534 291.858 361.138 293.31 361.138 293.31L357.872 293.842C357.872 293.842 358.412 292.473 356.829 291.382C355.618 290.546 354.058 288.386 354.167 287.366Z" fill="#F9DDBD"/>
<path d="M363.073 289.668C362.822 289.811 362.507 289.875 362.21 289.822C361.888 289.762 361.955 289.488 362.282 289.47C362.48 289.458 362.784 289.35 362.975 289.207L363.073 289.668Z" fill="#444444"/>
<path d="M360.544 287.947C360.415 287.656 360.465 287.35 360.657 287.266C360.848 287.181 361.108 287.349 361.237 287.64C361.366 287.932 361.316 288.237 361.125 288.322C360.933 288.406 360.674 288.239 360.544 287.947Z" fill="#312D2D"/>
<path d="M360.782 286.987C361.168 286.98 361.175 286.721 360.999 286.571C360.868 286.462 360.62 286.413 360.234 286.623C359.87 286.822 359.78 287.092 359.717 287.261C359.653 287.43 359.709 287.561 359.803 287.542C359.934 287.527 360.309 287.002 360.782 286.987Z" fill="#454140"/>
<path d="M355.415 291.056C355.363 291.033 355.307 291.011 355.243 290.977C354.459 290.617 354.287 289.56 354.204 288.798C354.193 288.701 354.189 288.6 354.182 288.498C354.174 288.382 354.159 288.27 354.155 288.153C354.152 287.906 354.163 287.662 354.208 287.422C354.238 287.253 354.287 287.085 354.343 286.92C354.403 286.758 354.474 286.597 354.553 286.443C354.617 286.316 354.692 286.196 354.767 286.076L354.834 285.975C354.898 285.881 354.965 285.791 355.033 285.705C355.055 285.678 355.074 285.652 355.097 285.626C355.187 285.517 355.284 285.412 355.385 285.315C355.408 285.292 355.43 285.273 355.453 285.255C355.535 285.176 355.625 285.101 355.712 285.03C355.73 285.015 355.745 285 355.764 284.985C355.779 284.973 355.798 284.962 355.817 284.947C355.888 284.895 355.959 284.842 356.034 284.793L356.135 284.726C356.244 284.658 356.357 284.595 356.473 284.538C357.298 284.133 358.265 284.017 359.154 284.25C359.327 284.295 359.499 284.355 359.66 284.433C359.743 284.471 359.822 284.516 359.9 284.561C360.129 284.7 360.335 284.88 360.485 285.09C360.534 285.161 360.579 285.236 360.617 285.311C360.654 285.386 360.684 285.472 360.71 285.558C360.384 285.686 360.009 285.611 359.668 285.776C359.338 285.937 359.023 286.151 358.678 286.263C358.562 286.301 358.445 286.327 358.325 286.335C358.202 286.342 358.074 286.335 357.95 286.331C357.887 286.327 357.823 286.323 357.763 286.323C357.729 286.338 357.707 286.35 357.707 286.35C357.68 286.383 357.665 286.421 357.65 286.455C357.56 286.728 357.793 287.081 358.025 287.478C358.055 287.527 358.082 287.58 358.112 287.632C358.153 287.707 358.19 287.782 358.228 287.857C358.265 287.932 358.299 288.011 358.325 288.09C358.348 288.15 358.363 288.21 358.378 288.27C358.419 288.453 358.43 288.641 358.385 288.832C358.352 288.97 358.308 289.106 358.254 289.237C358.254 289.237 358.149 289.057 357.984 288.892C357.958 288.862 357.928 288.836 357.894 288.81C357.845 288.768 357.797 288.731 357.744 288.701C357.692 288.671 357.639 288.648 357.583 288.633C357.542 288.622 357.504 288.615 357.463 288.615C357.365 288.611 357.26 288.641 357.155 288.72C357.133 288.735 357.118 288.75 357.099 288.768C357.068 288.793 357.04 288.822 357.017 288.855C357.005 288.87 356.99 288.881 356.983 288.896C356.972 288.911 356.964 288.926 356.957 288.941C356.949 288.956 356.938 288.971 356.93 288.982C356.923 288.997 356.919 289.016 356.912 289.031C356.908 289.046 356.9 289.061 356.897 289.072C356.893 289.087 356.889 289.106 356.889 289.121C356.885 289.136 356.882 289.151 356.882 289.166V289.26C356.882 289.278 356.885 289.293 356.889 289.312C356.893 289.327 356.893 289.342 356.897 289.357C356.9 289.376 356.908 289.395 356.912 289.41C356.915 289.425 356.919 289.436 356.927 289.451C356.934 289.47 356.942 289.488 356.953 289.507C356.96 289.522 356.964 289.533 356.972 289.548C356.979 289.567 356.99 289.582 357.002 289.601C357.009 289.616 357.017 289.627 357.028 289.642C357.039 289.661 357.054 289.676 357.065 289.695C357.077 289.706 357.084 289.721 357.092 289.732L357.137 289.788C357.148 289.8 357.155 289.811 357.167 289.822C357.182 289.841 357.2 289.856 357.215 289.875L357.249 289.908C357.268 289.923 357.287 289.942 357.302 289.957C357.313 289.968 357.324 289.98 357.339 289.991C357.362 290.01 357.384 290.028 357.41 290.047C357.418 290.055 357.425 290.058 357.437 290.066C357.47 290.092 357.504 290.115 357.538 290.137C358.1 290.52 358.25 290.118 358.28 290.362C358.318 290.422 358.37 290.572 358.419 290.718L358.423 290.726C358.487 290.91 358.539 291.09 358.539 291.09H358.535L358.603 291.307C358.659 291.596 358.607 291.937 358.299 292.248C358.149 292.402 357.868 292.477 357.699 292.511C357.643 292.672 357.508 292.95 357.23 293.096C357.11 293.16 356.979 293.193 356.837 293.193C356.69 293.193 356.537 293.16 356.372 293.092L356.064 292.968C356.064 292.968 356.488 292.8 356.469 292.323C355.865 292.773 355.224 292.256 355.209 292.241L354.977 292.031L355.262 291.922C355.37 291.885 355.565 291.757 355.599 291.648C355.73 291.262 355.442 291.078 355.415 291.056Z" fill="#312D2D"/>
<path d="M355.415 291.056C355.363 291.033 355.307 291.011 355.243 290.977C354.459 290.617 354.287 289.56 354.204 288.798C354.193 288.701 354.189 288.6 354.182 288.498C354.174 288.382 354.159 288.27 354.155 288.153C354.152 287.906 354.163 287.662 354.208 287.422C354.238 287.253 354.287 287.085 354.343 286.92C354.403 286.758 354.474 286.597 354.553 286.443C354.617 286.316 354.692 286.196 354.767 286.076L354.834 285.975C354.898 285.881 354.965 285.791 355.033 285.705C355.055 285.678 355.074 285.652 355.097 285.626C355.187 285.517 355.284 285.412 355.385 285.315C355.408 285.292 355.43 285.273 355.453 285.255C355.535 285.176 355.625 285.101 355.712 285.03C355.73 285.015 355.745 285 355.764 284.985C355.779 284.973 355.798 284.962 355.817 284.947C355.888 284.895 355.959 284.842 356.034 284.793L356.135 284.726C356.244 284.658 356.357 284.595 356.473 284.538C357.298 284.133 358.265 284.017 359.154 284.25C359.327 284.295 359.499 284.355 359.66 284.433C359.743 284.471 359.822 284.516 359.9 284.561C360.129 284.7 360.335 284.88 360.485 285.09C360.534 285.161 360.579 285.236 360.617 285.311C360.654 285.386 360.684 285.472 360.71 285.558C360.384 285.686 360.009 285.611 359.668 285.776C359.338 285.937 359.023 286.151 358.678 286.263C358.562 286.301 358.445 286.327 358.325 286.335C358.202 286.342 358.074 286.335 357.95 286.331C357.887 286.327 357.823 286.323 357.763 286.323C357.729 286.338 357.707 286.35 357.707 286.35C357.68 286.383 357.665 286.421 357.65 286.455C357.56 286.728 357.793 287.081 358.025 287.478C358.055 287.527 358.082 287.58 358.112 287.632C358.153 287.707 358.19 287.782 358.228 287.857C358.265 287.932 358.299 288.011 358.325 288.09C358.348 288.15 358.363 288.21 358.378 288.27C358.419 288.453 358.43 288.641 358.385 288.832C358.352 288.97 358.308 289.106 358.254 289.237C358.254 289.237 358.149 289.057 357.984 288.892C357.958 288.862 357.928 288.836 357.894 288.81C357.845 288.768 357.797 288.731 357.744 288.701C357.692 288.671 357.639 288.648 357.583 288.633C357.542 288.622 357.504 288.615 357.463 288.615C357.365 288.611 357.26 288.641 357.155 288.72C357.133 288.735 357.118 288.75 357.099 288.768C357.068 288.793 357.04 288.822 357.017 288.855C357.005 288.87 356.99 288.881 356.983 288.896C356.972 288.911 356.964 288.926 356.957 288.941C356.949 288.956 356.938 288.971 356.93 288.982C356.923 288.997 356.919 289.016 356.912 289.031C356.908 289.046 356.9 289.061 356.897 289.072C356.893 289.087 356.889 289.106 356.889 289.121C356.885 289.136 356.882 289.151 356.882 289.166V289.26C356.882 289.278 356.885 289.293 356.889 289.312C356.893 289.327 356.893 289.342 356.897 289.357C356.9 289.376 356.908 289.395 356.912 289.41C356.915 289.425 356.919 289.436 356.927 289.451C356.934 289.47 356.942 289.488 356.953 289.507C356.96 289.522 356.964 289.533 356.972 289.548C356.979 289.567 356.99 289.582 357.002 289.601C357.009 289.616 357.017 289.627 357.028 289.642C357.039 289.661 357.054 289.676 357.065 289.695C357.077 289.706 357.084 289.721 357.092 289.732L357.137 289.788C357.148 289.8 357.155 289.811 357.167 289.822C357.182 289.841 357.2 289.856 357.215 289.875L357.249 289.908C357.268 289.923 357.287 289.942 357.302 289.957C357.313 289.968 357.324 289.98 357.339 289.991C357.362 290.01 357.384 290.028 357.41 290.047C357.418 290.055 357.425 290.058 357.437 290.066C357.47 290.092 357.504 290.115 357.538 290.137C358.1 290.52 358.25 290.118 358.28 290.362C358.318 290.422 358.37 290.572 358.419 290.718L358.423 290.726C358.487 290.91 358.539 291.09 358.539 291.09H358.535L358.603 291.307C358.659 291.596 358.607 291.937 358.299 292.248C358.149 292.402 357.868 292.477 357.699 292.511C357.643 292.672 357.508 292.95 357.23 293.096C357.11 293.16 356.979 293.193 356.837 293.193C356.69 293.193 356.537 293.16 356.372 293.092L356.064 292.968C356.064 292.968 356.488 292.8 356.469 292.323C355.865 292.773 355.224 292.256 355.209 292.241L354.977 292.031L355.262 291.922C355.37 291.885 355.565 291.757 355.599 291.648C355.73 291.262 355.442 291.078 355.415 291.056Z" fill="url(#paint10_radial_257_14700)"/>
<path d="M359.312 290.7C359.63 291.168 361.044 291.423 361.112 291.468C361.232 291.536 360.707 291.885 360.534 291.858C360.362 291.832 359.162 291.971 357.774 291.337C357.152 291.052 355.595 290.22 355.595 290.22L356.087 289.222C356.087 289.222 358.037 291.258 358.592 290.816C359.147 290.373 357.467 288.24 357.467 288.24L359.132 287.782C359.132 287.782 359.113 290.411 359.312 290.7Z" fill="url(#paint11_linear_257_14700)"/>
<path d="M356.364 283.252C356.852 283.08 358.539 282.731 359.867 283.365C360.425 283.631 360.965 283.976 361.385 284.426C361.614 284.673 361.985 285.138 361.952 285.536C361.929 285.81 361.734 285.941 361.558 286.023C361.228 286.181 360.279 286.432 360.05 286.578C359.525 286.916 359.435 287.557 359.394 287.7C359.244 288.202 359.03 288.6 358.157 288.6C357.635 288.6 357.41 288.465 357.08 288.641C356.852 288.761 356.567 289.035 356.645 289.916C356.735 290.895 356.248 291.36 355.742 291.307C355.044 291.236 352.618 289.732 353.057 287.036C353.349 285.285 354.692 283.841 356.364 283.252Z" fill="url(#paint12_radial_257_14700)"/>
<path d="M369.118 302.392C368.837 301.507 367.858 300.941 366.947 301.061L358.172 302.216L358.892 306.461L366.32 304.826L368.957 311.073L371.567 310.151C371.57 310.155 369.215 302.707 369.118 302.392Z" fill="url(#paint13_linear_257_14700)"/>
<path d="M368.582 310.155L371.33 309.191L371.99 311.831L369.594 312.675L368.582 310.155Z" fill="#E0E0E0"/>
<path d="M355.963 304.777C355.727 303.382 356.664 302.058 358.059 301.822V301.818L363.928 300.982L364.745 305.797L358.918 306.873C357.527 307.113 356.203 306.172 355.963 304.777Z" fill="#646464"/>
<path d="M371.439 314.46C371.308 314.617 371.072 314.64 370.918 314.508L370.228 313.927C369.759 313.533 369.628 312.603 369.628 312.603L371.267 310.65L372.909 309.731C373.135 309.606 373.393 309.552 373.649 309.576C373.906 309.599 374.15 309.699 374.349 309.862L374.66 310.121C374.795 310.233 374.814 310.44 374.698 310.578L371.439 314.46Z" fill="#4568AD"/>
<path d="M364.813 311.051C364.389 310.327 360.343 303.427 360.343 303.427L356.735 305.778L361.385 312.213L360.095 319.646L362.788 320.283L364.982 312.746C364.985 312.746 365.237 311.775 364.813 311.051Z" fill="url(#paint14_linear_257_14700)"/>
<path d="M360.275 318.667L363.11 319.342L362 322.518L359.762 321.333L360.275 318.667Z" fill="#E0E0E0"/>
<path d="M356.724 301.968C357.006 301.785 357.321 301.658 357.651 301.596C357.982 301.534 358.321 301.538 358.651 301.608C358.98 301.677 359.292 301.81 359.569 302C359.847 302.19 360.084 302.433 360.268 302.715L363.373 307.766L359.282 310.432L355.974 305.512C355.205 304.331 355.539 302.741 356.724 301.968Z" fill="#7C7C7C"/>
<path d="M358.674 323.238C358.472 323.137 358.385 322.893 358.483 322.691L358.922 321.798C359.218 321.191 360.178 320.805 360.178 320.805L363.125 322.485L364.134 323.557C364.532 323.988 364.629 324.615 364.378 325.136L364.183 325.541C364.097 325.717 363.883 325.792 363.703 325.702L358.674 323.238Z" fill="#4568AD"/>
<path d="M359.818 292.556C361.532 292.436 362.255 293.973 362.255 295.368C362.255 298.335 361.828 300.015 362.113 302.835C362.132 303.026 361.265 304.125 359.555 304.717C357.174 305.542 355.562 304.605 355.562 304.44C355.562 302.782 355.929 298.41 357.137 294.982C357.815 293.043 358.168 292.676 359.818 292.556Z" fill="url(#paint15_radial_257_14700)"/>
<path d="M371.019 299.33C371.322 299.416 371.519 299.631 371.433 299.933C371.347 300.236 371.048 300.293 370.746 300.207L368.476 299.662C368.459 299.659 368.446 299.651 368.428 299.644C368.499 299.283 368.646 298.906 368.796 298.567L371.019 299.33Z" fill="#DBA689"/>
<path d="M368.464 298.318L368.672 298.065L370.88 298.001C371.103 297.996 371.319 298.031 371.53 298.11L372.55 298.497C372.693 298.551 372.828 298.625 372.95 298.716C373.186 298.886 373.609 299.203 373.803 299.392C373.908 299.496 374.005 299.625 373.995 299.849C373.987 300.022 373.906 300.168 373.77 300.27C373.625 300.379 373.428 300.413 373.229 300.365C372.992 300.308 372.747 300.071 372.583 299.882C372.554 299.847 372.514 299.827 372.473 299.818L371.381 299.61C371.307 299.595 371.237 299.594 371.166 299.606C371.062 299.622 370.951 299.628 370.824 299.635C370.526 299.653 370.158 299.67 369.563 299.868C368.804 300.122 368.252 299.959 368.226 299.951L368.092 299.855L368.13 299.693C368.132 299.685 368.241 299.586 368.304 299.588C368.304 299.588 368.324 299.591 368.351 299.591C368.418 299.333 368.568 298.792 368.726 298.396C368.604 298.363 368.464 298.318 368.464 298.318Z" fill="#EDBD82"/>
<path d="M359.409 295.633L361.765 295.863C361.814 295.87 361.859 295.893 361.892 295.93C361.908 295.949 361.92 295.971 361.927 295.994C361.934 296.018 361.936 296.043 361.932 296.067L361.522 300.288L363.549 304.156C363.747 304.491 363.626 304.938 363.245 305.239C362.892 305.516 362.332 305.627 361.93 305.23L359.028 301.454C359.015 301.434 359.002 301.414 358.996 301.392C358.862 301.168 358.794 300.91 358.8 300.649C358.795 300.627 358.789 300.605 358.794 300.581L359.203 295.804C359.205 295.754 359.231 295.708 359.27 295.678C359.309 295.646 359.359 295.629 359.409 295.633Z" fill="url(#paint16_linear_257_14700)"/>
<path d="M361.795 299.365L358.11 298.939L358.501 295.519C358.554 295.067 358.783 294.655 359.139 294.373C359.495 294.09 359.948 293.961 360.4 294.012L360.684 294.045C361.136 294.097 361.548 294.326 361.83 294.682C362.113 295.038 362.242 295.492 362.191 295.943L361.795 299.365Z" fill="#ED6D23"/>
<path d="M365.127 304.556C365.303 304.616 365.461 304.719 365.588 304.855L366.15 305.477C366.234 305.571 366.301 305.677 366.353 305.799C366.463 306.065 366.602 306.424 366.648 306.637C366.686 306.809 366.658 306.937 366.562 307.087C366.458 307.247 366.3 307.355 366.125 307.382C365.976 307.407 365.83 307.368 365.716 307.275C365.582 307.167 365.493 306.95 365.454 306.63C365.453 306.611 365.445 306.598 365.436 306.593L364.726 306.1C364.687 306.071 364.644 306.056 364.595 306.045C364.505 306.031 364.416 306.004 364.315 305.973C364.091 305.905 363.808 305.818 363.272 305.818C362.554 305.82 362.304 305.58 362.035 305.33L361.923 305.204L362.219 305.207C362.225 305.201 362.253 305.159 362.319 305.087C362.369 305.128 362.435 305.157 362.485 305.186C362.49 305.188 362.498 305.19 362.503 305.193C362.708 304.959 363.016 304.617 363.277 304.36L363.274 304.361C363.274 304.361 363.244 304.307 363.238 304.274C363.232 304.236 363.219 304.201 363.203 304.17C363.256 304.121 363.306 304.077 363.354 304.037L363.436 303.968L365.127 304.556Z" fill="url(#paint17_linear_257_14700)"/>
<path d="M364.125 305.092L364.97 306.434C365.066 306.56 365.097 306.691 365.085 306.819C365.073 306.946 365.005 307.057 364.896 307.141C364.68 307.308 364.406 307.241 364.22 306.981L363.253 305.749C363.253 305.749 363.252 305.745 363.248 305.742C363.241 305.733 363.228 305.713 363.226 305.706C363.195 305.648 363.2 305.565 363.244 305.526C363.323 305.458 363.346 305.444 363.346 305.444L363.352 305.451L363.837 305.119L363.836 305.115C363.926 305.06 363.878 305.081 363.949 305.042C364.009 305.007 364.085 305.029 364.125 305.092Z" fill="url(#paint18_linear_257_14700)"/>
<path d="M440.573 315.565C440.735 314.697 439.844 313.858 439.704 313.732C440.033 308.876 443.154 304.934 446.805 302.391L445.017 299.822C440.874 302.709 436.96 307.443 436.577 313.606L436.592 313.607L436.36 314.982C436.34 315.396 436.424 315.988 436.596 316.351C436.804 316.779 437.532 317.273 438.23 317.309C438.23 317.309 439.094 317.338 439.742 316.979C440.23 316.717 439.98 316.133 439.98 316.133C439.98 316.133 440.456 316.173 440.573 315.565Z" fill="#C68D7B"/>
<path d="M439.48 310.98L443.103 310.522L442.492 313.056C442.386 313.496 442.11 313.876 441.723 314.113C441.337 314.349 440.872 314.422 440.432 314.316C439.992 314.21 439.612 313.933 439.376 313.546C439.139 313.16 439.066 312.696 439.172 312.255L439.48 310.98Z" fill="#635994"/>
<path d="M442.955 309.1C442.975 309.018 443.026 308.948 443.098 308.904C443.17 308.86 443.256 308.846 443.338 308.866C443.42 308.886 443.49 308.937 443.534 309.009C443.578 309.081 443.592 309.167 443.572 309.249L443.21 310.75C443.205 310.826 443.173 310.898 443.12 310.953C443.066 311.008 442.996 311.042 442.919 311.05L439.513 311.375C439.47 311.381 439.426 311.378 439.384 311.367C439.342 311.355 439.303 311.336 439.269 311.309C439.235 311.282 439.207 311.248 439.186 311.21C439.165 311.172 439.152 311.13 439.148 311.087C439.144 311.044 439.149 311 439.162 310.959C439.175 310.917 439.196 310.879 439.224 310.846C439.253 310.813 439.287 310.786 439.326 310.767C439.365 310.748 439.408 310.737 439.451 310.735L442.634 310.43L442.955 309.1Z" fill="#433B6B"/>
<path d="M453.811 307.201L454.26 311.527L456.465 310.934L464.623 317.912L465.294 316.739L465.213 315.462L458.854 308.385C458.396 307.874 457.827 307.474 457.191 307.215C456.556 306.956 455.869 306.845 455.184 306.89L455.167 306.886L453.811 307.201ZM446.75 316.816L450.611 315.411L451.277 317.264C451.643 318.277 451.365 319.43 450.561 320.16L444.197 326.003L442.758 323.993L447.537 318.285L446.75 316.816Z" fill="#C68D7B"/>
<path d="M445.256 295.843L444.711 298.947L447.877 299.544L448.417 296.383L445.256 295.843Z" fill="#B87A66"/>
<path d="M443.405 300.222C443.628 299.684 444.058 298.974 444.87 298.597C446.911 297.647 448.117 298.548 448.117 298.548C448.117 298.548 449.713 299.598 449.276 302.562C449.271 302.58 449.346 305.186 450.589 307.853L443.417 309.988C441.987 305.187 442.987 300.806 443.405 300.222Z" fill="#FF6723"/>
<path d="M449.639 310.489L451.276 316.043L447.891 317.279C447.06 317.578 446.141 317.171 445.825 316.337L443.989 311.605L449.639 310.489Z" fill="#636363"/>
<path d="M454.598 311.851L454.031 307.148L450.584 307.84L450.255 307.088L443.17 309.096L443.417 309.988C443.417 309.988 443.694 311.293 444.435 312.359C445.177 313.426 447.502 313.598 447.502 313.598L452.839 313.776C453.088 313.787 453.335 313.743 453.565 313.648C453.795 313.553 454.001 313.408 454.168 313.225C454.336 313.041 454.461 312.823 454.536 312.586C454.61 312.348 454.631 312.098 454.598 311.851Z" fill="#9B9B9B"/>
<path d="M449.491 297.068C448.395 297.395 446.512 297.385 445.639 296.25L444.658 294.645L443.593 293.001C443.19 291.684 443.954 290.278 445.272 289.875L446.828 289.399C448.146 288.996 449.552 289.76 449.955 291.078L450.26 292.076C450.574 292.392 450.789 292.553 450.937 292.664C451.109 292.795 451.192 292.857 451.243 293.015C451.337 293.315 451.074 293.653 450.775 293.768C451.218 295.326 451.311 296.512 449.489 297.069L449.491 297.068Z" fill="#C68D7B"/>
<path d="M447.588 291.154C445.553 291.773 445.921 293.008 445.921 293.008C445.921 293.008 445.023 293.05 445.786 295.564C446.176 296.86 445.099 296.877 444.66 297.012C443.903 297.236 443.409 295.989 444.409 295.676C444.409 295.676 443.139 296.035 442.063 292.521C441.279 289.947 443.533 288.956 445.263 288.911C446.51 288.879 446.297 288.458 447.654 288.045C448.111 287.915 449 287.907 449.309 288.925C449.614 289.886 449.323 290.63 447.588 291.154Z" fill="#593B39"/>
<path d="M445.171 293.743C445.11 293.995 445.152 294.262 445.287 294.483C445.423 294.705 445.641 294.864 445.894 294.925C446.146 294.985 446.413 294.943 446.634 294.808C446.856 294.672 447.015 294.454 447.076 294.202C447.136 293.949 447.095 293.683 446.959 293.461C446.823 293.24 446.605 293.081 446.353 293.02C446.1 292.959 445.834 293.001 445.612 293.136C445.391 293.272 445.232 293.49 445.171 293.743Z" fill="#BB806E"/>
<path d="M445.563 292.272C445.539 292.221 445.525 292.165 445.523 292.108C445.521 292.051 445.53 291.995 445.55 291.941C445.57 291.888 445.6 291.839 445.638 291.798C445.677 291.756 445.723 291.722 445.775 291.699C445.826 291.675 445.882 291.661 445.939 291.659C445.996 291.657 446.052 291.666 446.106 291.686C446.159 291.706 446.208 291.736 446.249 291.774C446.291 291.813 446.325 291.859 446.349 291.911L448.773 297.192C448.797 297.243 448.81 297.299 448.813 297.356C448.815 297.412 448.806 297.469 448.786 297.522C448.767 297.575 448.737 297.624 448.698 297.666C448.66 297.708 448.613 297.741 448.562 297.765C448.51 297.789 448.455 297.802 448.398 297.804C448.341 297.807 448.285 297.798 448.232 297.778C448.178 297.758 448.13 297.729 448.088 297.69C448.046 297.652 448.013 297.605 447.989 297.554L445.564 292.273L445.563 292.272ZM465.22 315.448C465.22 315.448 467.588 314.464 469.203 313.787C469.517 313.648 469.892 314.223 470.042 314.461C470.15 314.635 470.07 314.745 470.07 314.745L466.943 318.602C466.943 318.602 466.336 319.371 465.979 319.067L465.677 318.816C465.662 318.806 465.647 318.795 465.633 318.784L464.579 317.901L465.22 315.448ZM444.618 325.643C444.618 325.643 444.265 328.183 444.013 329.916C443.985 330.125 443.619 330.246 443.299 330.254L443.302 330.26C443.302 330.26 443.141 330.314 443.11 330.288C442.905 330.294 442.821 330.107 442.821 330.107L440.927 325.231C440.927 325.231 440.695 324.584 441.138 324.432L441.643 324.258L441.645 324.264L442.873 323.833L444.619 325.641L444.618 325.643Z" fill="#635994"/>
<path d="M449.763 292.64C449.863 292.609 449.913 292.515 449.886 292.4C449.886 292.4 449.884 292.386 449.88 292.38C449.747 291.941 449.3 291.815 448.928 291.91C448.554 292.004 448.252 292.374 448.386 292.809L448.394 292.829C448.425 292.929 448.514 292.984 448.601 292.964L449.765 292.64L449.763 292.64Z" fill="white"/>
<path d="M449.9 292.602C449.899 292.528 449.904 292.448 449.884 292.382C449.795 292.065 449.486 291.878 449.232 291.944C448.975 292.012 448.861 292.333 448.951 292.649C448.969 292.728 449.009 292.793 449.053 292.84L449.9 292.601L449.9 292.602Z" fill="#7D4533"/>
<path d="M449.753 292.645C449.77 292.575 449.769 292.501 449.751 292.423C449.702 292.245 449.528 292.131 449.391 292.17C449.252 292.21 449.17 292.394 449.237 292.576C449.257 292.646 449.295 292.708 449.347 292.758L449.753 292.645Z" fill="#7D4533"/>
<path d="M449.497 292.269C449.482 292.212 449.507 292.155 449.553 292.14C449.599 292.125 449.651 292.16 449.669 292.216C449.685 292.274 449.66 292.331 449.614 292.345C449.568 292.36 449.515 292.325 449.497 292.269Z" fill="white"/>
<path d="M450.546 294.53C450.521 294.494 450.482 294.47 450.438 294.462C450.395 294.455 450.35 294.465 450.314 294.49C450.19 294.578 450.037 294.614 449.888 294.589C449.739 294.564 449.605 294.481 449.517 294.358C449.492 294.321 449.453 294.296 449.409 294.288C449.365 294.281 449.32 294.29 449.283 294.316C449.247 294.342 449.222 294.381 449.214 294.424C449.206 294.468 449.216 294.513 449.242 294.55C449.381 294.746 449.592 294.879 449.829 294.92C450.066 294.96 450.31 294.905 450.506 294.766C450.524 294.754 450.54 294.738 450.552 294.719C450.564 294.7 450.572 294.68 450.576 294.658C450.58 294.636 450.579 294.614 450.574 294.592C450.569 294.571 450.56 294.55 450.548 294.532L450.546 294.53Z" fill="#990838"/>
<path d="M442.789 288.056L445.195 286.972C446.776 286.243 448.656 286.956 449.363 288.55L449.989 289.94C450.132 290.27 450 290.663 449.67 290.805L442.716 293.955C442.386 294.097 441.992 293.965 441.85 293.635L441.211 292.223C440.5 290.647 441.212 288.766 442.789 288.056Z" fill="#00A6ED"/>
<path d="M444.238 290.864L446.353 289.913C446.483 289.854 446.63 289.848 446.764 289.898C446.898 289.948 447.006 290.048 447.066 290.177C447.125 290.307 447.13 290.455 447.081 290.588C447.031 290.722 446.931 290.83 446.802 290.89L444.686 291.841C444.417 291.961 444.094 291.846 443.974 291.576C443.915 291.447 443.909 291.299 443.959 291.165C444.008 291.032 444.109 290.923 444.238 290.864Z" fill="#0074BA"/>
<path d="M449.224 300.017L453.441 302.31L453.472 302.336C453.796 302.525 454.206 302.513 454.545 302.335L458.713 299.846C458.86 299.619 458.976 299.373 459.056 299.115C459.235 298.604 459.318 298.18 459.318 298.18C459.36 297.931 459.62 297.772 459.869 297.814C460.118 297.855 460.277 298.115 460.235 298.364C460.231 298.382 460.186 298.648 460.084 298.993C460.071 299.046 460.119 299.076 460.163 299.049C460.792 298.665 461.454 298.066 461.718 297.815C461.8 297.738 461.911 297.696 462.024 297.699C462.137 297.702 462.245 297.75 462.324 297.832C462.401 297.915 462.443 298.025 462.44 298.139C462.437 298.252 462.389 298.36 462.307 298.438C462.285 298.452 461.948 298.777 461.489 299.147C461.441 299.191 461.376 299.231 461.329 299.275C461.307 299.288 461.32 299.31 461.316 299.327L461.351 299.336C462.053 298.876 462.568 298.427 462.59 298.414C462.632 298.377 462.681 298.349 462.735 298.331C462.788 298.313 462.844 298.307 462.9 298.312C462.956 298.316 463.01 298.333 463.06 298.359C463.109 298.386 463.153 298.422 463.188 298.466C463.225 298.508 463.253 298.557 463.271 298.61C463.289 298.664 463.295 298.72 463.29 298.776C463.286 298.832 463.269 298.886 463.243 298.936C463.216 298.985 463.18 299.029 463.136 299.064C463.136 299.064 462.582 299.522 462.005 299.919C461.984 299.932 461.997 299.954 462.019 299.94L462.952 299.444C463.052 299.396 463.168 299.389 463.273 299.424C463.379 299.46 463.466 299.536 463.516 299.636C463.631 299.848 463.529 300.12 463.32 300.217L462.274 300.723C462.252 300.736 462.261 300.775 462.3 300.766C462.626 300.642 462.852 300.548 462.852 300.548C463.078 300.455 463.31 300.566 463.403 300.792C463.497 301.018 463.386 301.25 463.16 301.343C462.199 301.722 460.622 302.359 460.435 302.443L456.158 304.999C455.522 305.375 454.799 305.577 454.06 305.584C453.321 305.591 452.594 305.403 451.951 305.038L447.734 302.746L449.224 300.017Z" fill="#C68D7B"/>
<path d="M445.643 300.374C445.141 301.307 445.487 302.481 446.419 302.983L448.955 304.353C449.542 304.679 450.295 304.472 450.608 303.864L451.887 301.472L448.426 299.417C447.47 298.854 446.261 299.191 445.729 300.173L445.643 300.374Z" fill="#FF8101"/>
<defs>
<filter id="filter0_d_257_14700" x="-28.0039" y="323.797" width="69.0039" height="42.3125" filterUnits="userSpaceOnUse" color-interpolation-filters="sRGB">
<feFlood flood-opacity="0" result="BackgroundImageFix"/>
<feColorMatrix in="SourceAlpha" type="matrix" values="0 0 0 0 0 0 0 0 0 0 0 0 0 0 0 0 0 0 127 0" result="hardAlpha"/>
<feOffset dy="4"/>
<feGaussianBlur stdDeviation="2"/>
<feComposite in2="hardAlpha" operator="out"/>
<feColorMatrix type="matrix" values="0 0 0 0 0.137255 0 0 0 0 0.137255 0 0 0 0 0.141176 0 0 0 0.25 0"/>
<feBlend mode="normal" in2="BackgroundImageFix" result="effect1_dropShadow_257_14700"/>
<feBlend mode="normal" in="SourceGraphic" in2="effect1_dropShadow_257_14700" result="shape"/>
</filter>
<filter id="filter1_d_257_14700" x="296.996" y="255.047" width="70.0039" height="42.875" filterUnits="userSpaceOnUse" color-interpolation-filters="sRGB">
<feFlood flood-opacity="0" result="BackgroundImageFix"/>
<feColorMatrix in="SourceAlpha" type="matrix" values="0 0 0 0 0 0 0 0 0 0 0 0 0 0 0 0 0 0 127 0" result="hardAlpha"/>
<feOffset dy="4"/>
<feGaussianBlur stdDeviation="2"/>
<feComposite in2="hardAlpha" operator="out"/>
<feColorMatrix type="matrix" values="0 0 0 0 0.137255 0 0 0 0 0.137255 0 0 0 0 0.141176 0 0 0 0.25 0"/>
<feBlend mode="normal" in2="BackgroundImageFix" result="effect1_dropShadow_257_14700"/>
<feBlend mode="normal" in="SourceGraphic" in2="effect1_dropShadow_257_14700" result="shape"/>
</filter>
<filter id="filter2_d_257_14700" x="21.998" y="368.797" width="37.002" height="24.3125" filterUnits="userSpaceOnUse" color-interpolation-filters="sRGB">
<feFlood flood-opacity="0" result="BackgroundImageFix"/>
<feColorMatrix in="SourceAlpha" type="matrix" values="0 0 0 0 0 0 0 0 0 0 0 0 0 0 0 0 0 0 127 0" result="hardAlpha"/>
<feOffset dy="4"/>
<feGaussianBlur stdDeviation="2"/>
<feComposite in2="hardAlpha" operator="out"/>
<feColorMatrix type="matrix" values="0 0 0 0 0.137255 0 0 0 0 0.137255 0 0 0 0 0.141176 0 0 0 0.25 0"/>
<feBlend mode="normal" in2="BackgroundImageFix" result="effect1_dropShadow_257_14700"/>
<feBlend mode="normal" in="SourceGraphic" in2="effect1_dropShadow_257_14700" result="shape"/>
</filter>
<linearGradient id="paint0_linear_257_14700" x1="375" y1="714" x2="375" y2="310" gradientUnits="userSpaceOnUse">
<stop stop-color="#FFC2C1"/>
<stop offset="1" stop-color="#FEDC99"/>
</linearGradient>
<radialGradient id="paint1_radial_257_14700" cx="0" cy="0" r="1" gradientUnits="userSpaceOnUse" gradientTransform="translate(135.243 460.029) rotate(87.1599) scale(27.3365 48.8144)">
<stop offset="0.673" stop-color="#454140" stop-opacity="0"/>
<stop offset="1" stop-color="#454140"/>
</radialGradient>
<linearGradient id="paint2_linear_257_14700" x1="147.014" y1="458.418" x2="127.931" y2="480.351" gradientUnits="userSpaceOnUse">
<stop stop-color="#646464"/>
<stop offset="0.995" stop-color="#262626"/>
</linearGradient>
<radialGradient id="paint3_radial_257_14700" cx="0" cy="0" r="1" gradientUnits="userSpaceOnUse" gradientTransform="translate(129.633 443.739) rotate(30.0542) scale(47.2586 42.2784)">
<stop stop-color="#81D4FA"/>
<stop offset="0.36" stop-color="#5EB3E7"/>
<stop offset="0.775" stop-color="#3C92D3"/>
<stop offset="1" stop-color="#2F85CC"/>
</radialGradient>
<linearGradient id="paint4_linear_257_14700" x1="155.578" y1="461.45" x2="119.131" y2="460.315" gradientUnits="userSpaceOnUse">
<stop stop-color="#FFD29C"/>
<stop offset="0.5" stop-color="#F9DDBD"/>
</linearGradient>
<linearGradient id="paint5_linear_257_14700" x1="157.506" y1="438.601" x2="153.624" y2="475.836" gradientUnits="userSpaceOnUse">
<stop stop-color="#FFD29C"/>
<stop offset="0.5" stop-color="#F9DDBD"/>
</linearGradient>
<radialGradient id="paint6_radial_257_14700" cx="0" cy="0" r="1" gradientUnits="userSpaceOnUse" gradientTransform="translate(143.686 460.757) rotate(4.25065) scale(48.0763 20.3846)">
<stop offset="0.37" stop-color="#F78C1F"/>
<stop offset="0.681" stop-color="#F37F21"/>
<stop offset="0.998" stop-color="#ED6D23"/>
</radialGradient>
<linearGradient id="paint7_linear_257_14700" x1="152.673" y1="460.641" x2="113.207" y2="460.641" gradientUnits="userSpaceOnUse">
<stop stop-color="#FFD29C"/>
<stop offset="0.5" stop-color="#F9DDBD"/>
</linearGradient>
<linearGradient id="paint8_linear_257_14700" x1="269.177" y1="460.677" x2="166.704" y2="460.677" gradientUnits="userSpaceOnUse">
<stop stop-color="#FFD29C"/>
<stop offset="0.5" stop-color="#F9DDBD"/>
</linearGradient>
<linearGradient id="paint9_linear_257_14700" x1="371.282" y1="460.622" x2="194.148" y2="460.622" gradientUnits="userSpaceOnUse">
<stop stop-color="#FFD29C"/>
<stop offset="0.5" stop-color="#F9DDBD"/>
</linearGradient>
<radialGradient id="paint10_radial_257_14700" cx="0" cy="0" r="1" gradientUnits="userSpaceOnUse" gradientTransform="translate(399.92 306.014) rotate(85.147) scale(27.9271 84.9441)">
<stop offset="0.673" stop-color="#454140" stop-opacity="0"/>
<stop offset="1" stop-color="#454140"/>
</radialGradient>
<linearGradient id="paint11_linear_257_14700" x1="420.452" y1="304.373" x2="404.585" y2="335.583" gradientUnits="userSpaceOnUse">
<stop stop-color="#646464"/>
<stop offset="0.995" stop-color="#262626"/>
</linearGradient>
<radialGradient id="paint12_radial_257_14700" cx="0" cy="0" r="1" gradientUnits="userSpaceOnUse" gradientTransform="translate(390.134 289.412) rotate(18.68) scale(75.316 47.1608)">
<stop stop-color="#81D4FA"/>
<stop offset="0.36" stop-color="#5EB3E7"/>
<stop offset="0.775" stop-color="#3C92D3"/>
<stop offset="1" stop-color="#2F85CC"/>
</radialGradient>
<linearGradient id="paint13_linear_257_14700" x1="435.39" y1="307.463" x2="371.935" y2="304.08" gradientUnits="userSpaceOnUse">
<stop stop-color="#FFD29C"/>
<stop offset="0.5" stop-color="#F9DDBD"/>
</linearGradient>
<linearGradient id="paint14_linear_257_14700" x1="438.752" y1="284.175" x2="436.424" y2="322.396" gradientUnits="userSpaceOnUse">
<stop stop-color="#FFD29C"/>
<stop offset="0.5" stop-color="#F9DDBD"/>
</linearGradient>
<radialGradient id="paint15_radial_257_14700" cx="0" cy="0" r="1" gradientUnits="userSpaceOnUse" gradientTransform="translate(414.647 306.757) rotate(2.48672) scale(83.7057 20.8136)">
<stop offset="0.37" stop-color="#F78C1F"/>
<stop offset="0.681" stop-color="#F37F21"/>
<stop offset="0.998" stop-color="#ED6D23"/>
</radialGradient>
<linearGradient id="paint16_linear_257_14700" x1="430.323" y1="306.639" x2="361.483" y2="306.639" gradientUnits="userSpaceOnUse">
<stop stop-color="#FFD29C"/>
<stop offset="0.5" stop-color="#F9DDBD"/>
</linearGradient>
<linearGradient id="paint17_linear_257_14700" x1="633.536" y1="306.675" x2="454.795" y2="306.675" gradientUnits="userSpaceOnUse">
<stop stop-color="#FFD29C"/>
<stop offset="0.5" stop-color="#F9DDBD"/>
</linearGradient>
<linearGradient id="paint18_linear_257_14700" x1="811.633" y1="306.619" x2="502.666" y2="306.619" gradientUnits="userSpaceOnUse">
<stop stop-color="#FFD29C"/>
<stop offset="0.5" stop-color="#F9DDBD"/>
</linearGradient>
<clipPath id="clip0_257_14700">
<rect width="61" height="61" fill="white" transform="translate(-24 308.547)"/>
</clipPath>
<clipPath id="clip1_257_14700">
<rect width="62" height="62" fill="white" transform="translate(301 239.547)"/>
</clipPath>
<clipPath id="clip2_257_14700">
<rect width="29" height="29" fill="white" transform="translate(26 361.547)"/>
</clipPath>
</defs>
</svg>
