<svg width="32" height="32" viewBox="0 0 32 32" fill="none" xmlns="http://www.w3.org/2000/svg">
<path d="M16.0001 29.3334C21.1454 29.3334 25.3334 25.1454 25.3334 20.0001C25.3334 14.8547 21.1454 10.6667 16.0001 10.6667C10.8534 10.6667 6.66675 14.8547 6.66675 20.0001C6.66675 25.1454 10.8534 29.3334 16.0001 29.3334ZM16.0001 13.3334C19.6761 13.3334 22.6667 16.3241 22.6667 20.0001C22.6667 23.6761 19.6761 26.6667 16.0001 26.6667C12.3241 26.6667 9.33341 23.6761 9.33341 20.0001C9.33341 16.3241 12.3241 13.3334 16.0001 13.3334ZM14.6667 2.66675H9.33341V10.0241C10.929 8.95638 12.7585 8.28908 14.6667 8.07875V2.66675ZM22.6667 2.66675H17.3334V8.07875C19.2417 8.28908 21.0712 8.95638 22.6667 10.0241V2.66675Z" fill="#FEA800"/>
<path d="M14.9091 19.4531H12V22.7351L16 25.3334L20 22.7351V20.9573H19.0303V22.1197L16 24.1026L12.9697 22.1197V20.5471H14.9091V19.4531Z" fill="#FEA800"/>
<path d="M17.0909 20.5471L20 20.5471V17.265L16 14.6667L12 17.265L12 19.0428L12.9697 19.0428L12.9697 17.8804L16 15.8975L19.0303 17.8804V19.4531L17.0909 19.4531V20.5471Z" fill="#FEA800"/>
</svg>
