<svg width="14" height="14" viewBox="0 0 14 14" fill="none" xmlns="http://www.w3.org/2000/svg">
<path d="M6.21053 0H7.78947C7.92982 0 8 0.0518519 8 0.155556V13.8444C8 13.9481 7.92982 14 7.78947 14H6.21053C6.07018 14 6 13.9481 6 13.8444V0.155556C6 0.0518519 6.07018 0 6.21053 0Z" fill="#FEA800"/>
<path d="M0.162791 6H13.8372C13.9457 6 14 6.07018 14 6.21053V7.78947C14 7.92982 13.9457 8 13.8372 8H0.162791C0.0542636 8 0 7.92982 0 7.78947V6.21053C0 6.07018 0.0542636 6 0.162791 6Z" fill="#FEA800"/>
</svg>
