<svg width="28" height="9" viewBox="0 0 28 9" fill="none" xmlns="http://www.w3.org/2000/svg">
<path fill-rule="evenodd" clip-rule="evenodd" d="M13.552 0.105967C13.691 0.0362837 13.8444 0 14 0C14.1555 0 14.3089 0.0362837 14.448 0.105967L26.448 6.10597C26.5664 6.16418 26.6722 6.24526 26.7591 6.34453C26.8461 6.4438 26.9125 6.55931 26.9546 6.68438C26.9967 6.80946 27.0137 6.94164 27.0044 7.07329C26.9952 7.20494 26.96 7.33346 26.9009 7.45145C26.8418 7.56944 26.7599 7.67456 26.66 7.76074C26.56 7.84693 26.444 7.91248 26.3186 7.95362C26.1932 7.99475 26.0609 8.01066 25.9293 8.00042C25.7977 7.99019 25.6695 7.954 25.552 7.89397L14 2.11997L2.44797 7.89397C2.33044 7.954 2.20219 7.99019 2.07062 8.00042C1.93904 8.01066 1.80674 7.99475 1.68134 7.95362C1.55594 7.91248 1.43993 7.84693 1.33998 7.76074C1.24004 7.67456 1.15814 7.56944 1.09902 7.45145C1.03989 7.33346 1.0047 7.20494 0.995485 7.07329C0.986266 6.94164 1.0032 6.80946 1.0453 6.68438C1.08741 6.55931 1.15386 6.4438 1.24082 6.34453C1.32778 6.24526 1.43352 6.16418 1.55197 6.10597L13.552 0.105967V0.105967Z" fill="#F2F2F2"/>
</svg>
