<svg width="22" height="22" viewBox="0 0 22 22" fill="none" xmlns="http://www.w3.org/2000/svg">
<path d="M18.2188 5.58594H15.4297L14.7652 3.72383C14.7193 3.59641 14.6352 3.48627 14.5244 3.40845C14.4135 3.33064 14.2813 3.28894 14.1459 3.28906H7.8541C7.57725 3.28906 7.3291 3.46338 7.23682 3.72383L6.57031 5.58594H3.78125C2.8748 5.58594 2.14062 6.32012 2.14062 7.22656V16.5781C2.14062 17.4846 2.8748 18.2188 3.78125 18.2188H18.2188C19.1252 18.2188 19.8594 17.4846 19.8594 16.5781V7.22656C19.8594 6.32012 19.1252 5.58594 18.2188 5.58594ZM18.3828 16.5781C18.3828 16.6684 18.309 16.7422 18.2188 16.7422H3.78125C3.69102 16.7422 3.61719 16.6684 3.61719 16.5781V7.22656C3.61719 7.13633 3.69102 7.0625 3.78125 7.0625H7.61006L7.96074 6.08223L8.43037 4.76563H13.5676L14.0372 6.08223L14.3879 7.0625H18.2188C18.309 7.0625 18.3828 7.13633 18.3828 7.22656V16.5781ZM11 8.375C9.18711 8.375 7.71875 9.84336 7.71875 11.6562C7.71875 13.4691 9.18711 14.9375 11 14.9375C12.8129 14.9375 14.2812 13.4691 14.2812 11.6562C14.2812 9.84336 12.8129 8.375 11 8.375ZM11 13.625C9.91309 13.625 9.03125 12.7432 9.03125 11.6562C9.03125 10.5693 9.91309 9.6875 11 9.6875C12.0869 9.6875 12.9688 10.5693 12.9688 11.6562C12.9688 12.7432 12.0869 13.625 11 13.625Z" fill="#FEA800"/>
</svg>
