<svg width="32" height="32" viewBox="0 0 32 32" fill="none" xmlns="http://www.w3.org/2000/svg">
<path d="M16 2.66667C8.64796 2.66667 2.66663 8.64801 2.66663 16C2.66663 23.352 8.64796 29.3333 16 29.3333C23.352 29.3333 29.3333 23.352 29.3333 16C29.3333 8.64801 23.352 2.66667 16 2.66667ZM16 26.6667C10.1186 26.6667 5.33329 21.8813 5.33329 16C5.33329 10.1187 10.1186 5.33334 16 5.33334C21.8813 5.33334 26.6666 10.1187 26.6666 16C26.6666 21.8813 21.8813 26.6667 16 26.6667Z" fill="#F2F2F2"/>
<path d="M17.3333 9.33333H14.6666V17.3333H22.6666V14.6667H17.3333V9.33333Z" fill="#F2F2F2"/>
</svg>
